<svg xmlns="http://www.w3.org/2000/svg" xmlns:xlink="http://www.w3.org/1999/xlink" contentStyleType="text/css" data-diagram-type="STATE" height="802px" preserveAspectRatio="none" style="width:480px;height:802px;background:#FFFFFF;" version="1.1" viewBox="0 0 480 802" width="480px" zoomAndPan="magnify"><?plantuml 1.2026.6?><defs/><g><g class="entity" data-qualified-name="s_disarmed" data-source-line="6" id="ent0001"><a href="http://localhost:3000/ui/detail/Behavior::FlightStates::disarmed" target="_top" title="http://localhost:3000/ui/detail/Behavior::FlightStates::disarmed" xlink:actuate="onRequest" xlink:href="http://localhost:3000/ui/detail/Behavior::FlightStates::disarmed" xlink:show="new" xlink:title="http://localhost:3000/ui/detail/Behavior::FlightStates::disarmed" xlink:type="simple"><rect fill="#F5F5FA" height="50" rx="12.5" ry="12.5" style="stroke:#3A3A4A;stroke-width:0.5;" width="85.543" x="272" y="103"/><line style="stroke:#3A3A4A;stroke-width:0.5;" x1="272" x2="357.543" y1="129.2969" y2="129.2969"/><text fill="#000000" font-family="sans-serif" font-size="14" lengthAdjust="spacing" textLength="65.543" x="282" y="120.9951">disarmed</text></a></g><g class="entity" data-qualified-name="s_armed" data-source-line="7" id="ent0002"><a href="http://localhost:3000/ui/detail/Behavior::FlightStates::armed" target="_top" title="http://localhost:3000/ui/detail/Behavior::FlightStates::armed" xlink:actuate="onRequest" xlink:href="http://localhost:3000/ui/detail/Behavior::FlightStates::armed" xlink:show="new" xlink:title="http://localhost:3000/ui/detail/Behavior::FlightStates::armed" xlink:type="simple"><rect fill="#F5F5FA" height="50" rx="12.5" ry="12.5" style="stroke:#3A3A4A;stroke-width:0.5;" width="65.4727" x="126.5" y="230"/><line style="stroke:#3A3A4A;stroke-width:0.5;" x1="126.5" x2="191.9727" y1="256.2969" y2="256.2969"/><text fill="#000000" font-family="sans-serif" font-size="14" lengthAdjust="spacing" textLength="45.4727" x="136.5" y="247.9951">armed</text></a></g><g class="entity" data-qualified-name="s_takingOff" data-source-line="8" id="ent0003"><a href="http://localhost:3000/ui/detail/Behavior::FlightStates::takingOff" target="_top" title="http://localhost:3000/ui/detail/Behavior::FlightStates::takingOff" xlink:actuate="onRequest" xlink:href="http://localhost:3000/ui/detail/Behavior::FlightStates::takingOff" xlink:show="new" xlink:title="http://localhost:3000/ui/detail/Behavior::FlightStates::takingOff" xlink:type="simple"><rect fill="#F5F5FA" height="50" rx="12.5" ry="12.5" style="stroke:#3A3A4A;stroke-width:0.5;" width="84.7021" x="116.5" y="357"/><line style="stroke:#3A3A4A;stroke-width:0.5;" x1="116.5" x2="201.2021" y1="383.2969" y2="383.2969"/><text fill="#000000" font-family="sans-serif" font-size="14" lengthAdjust="spacing" textLength="64.7021" x="126.5" y="374.9951">takingOff</text></a></g><g class="entity" data-qualified-name="s_flying" data-source-line="9" id="ent0004"><a href="http://localhost:3000/ui/detail/Behavior::FlightStates::flying" target="_top" title="http://localhost:3000/ui/detail/Behavior::FlightStates::flying" xlink:actuate="onRequest" xlink:href="http://localhost:3000/ui/detail/Behavior::FlightStates::flying" xlink:show="new" xlink:title="http://localhost:3000/ui/detail/Behavior::FlightStates::flying" xlink:type="simple"><rect fill="#F5F5FA" height="50" rx="12.5" ry="12.5" style="stroke:#3A3A4A;stroke-width:0.5;" width="58.7529" x="174.5" y="484"/><line style="stroke:#3A3A4A;stroke-width:0.5;" x1="174.5" x2="233.2529" y1="510.2969" y2="510.2969"/><text fill="#000000" font-family="sans-serif" font-size="14" lengthAdjust="spacing" textLength="38.7529" x="184.5" y="501.9951">flying</text></a></g><g class="entity" data-qualified-name="s_landing" data-source-line="10" id="ent0005"><a href="http://localhost:3000/ui/detail/Behavior::FlightStates::landing" target="_top" title="http://localhost:3000/ui/detail/Behavior::FlightStates::landing" xlink:actuate="onRequest" xlink:href="http://localhost:3000/ui/detail/Behavior::FlightStates::landing" xlink:show="new" xlink:title="http://localhost:3000/ui/detail/Behavior::FlightStates::landing" xlink:type="simple"><rect fill="#F5F5FA" height="50" rx="12.5" ry="12.5" style="stroke:#3A3A4A;stroke-width:0.5;" width="71.8779" x="286" y="611"/><line style="stroke:#3A3A4A;stroke-width:0.5;" x1="286" x2="357.8779" y1="637.2969" y2="637.2969"/><text fill="#000000" font-family="sans-serif" font-size="14" lengthAdjust="spacing" textLength="51.8779" x="296" y="628.9951">landing</text></a></g><g class="entity" data-qualified-name="s_fault" data-source-line="11" id="ent0006"><a href="http://localhost:3000/ui/detail/Behavior::FlightStates::fault" target="_top" title="http://localhost:3000/ui/detail/Behavior::FlightStates::fault" xlink:actuate="onRequest" xlink:href="http://localhost:3000/ui/detail/Behavior::FlightStates::fault" xlink:show="new" xlink:title="http://localhost:3000/ui/detail/Behavior::FlightStates::fault" xlink:type="simple"><rect fill="#F5F5FA" height="50" rx="12.5" ry="12.5" style="stroke:#3A3A4A;stroke-width:0.5;" width="51.7598" x="178" y="738"/><line style="stroke:#3A3A4A;stroke-width:0.5;" x1="178" x2="229.7598" y1="764.2969" y2="764.2969"/><text fill="#000000" font-family="sans-serif" font-size="14" lengthAdjust="spacing" textLength="31.7598" x="188" y="755.9951">fault</text></a></g><g class="start_entity" data-qualified-name=".start." data-source-line="13" id="ent0007"><ellipse cx="315" cy="16" fill="#222222" rx="10" ry="10" style="stroke:#222222;stroke-width:1;"/></g><!--link *start* to s_disarmed--><g class="link" data-entity-1="ent0007" data-entity-2="ent0001" data-link-type="dependency" data-source-line="13" id="lnk8"><path d="M315,26 C315,42.63 315,73.66 315,97.87" fill="none" id="*start*-to-s_disarmed" style="stroke:#181818;stroke-width:1;"/><polygon fill="#181818" points="315,102.87,319,93.87,315,97.87,311,93.87,315,102.87" style="stroke:#181818;stroke-width:1;stroke-linejoin:miter;stroke-miterlimit:10;"/><text fill="#000000" font-family="sans-serif" font-size="13" lengthAdjust="spacing" textLength="20.5601" x="316" y="69.0669">init</text></g><!--link s_disarmed to s_armed--><g class="link" data-entity-1="ent0001" data-entity-2="ent0002" data-link-type="dependency" data-source-line="14" id="lnk9"><path d="M284.92,153.1 C257.3,175.24 220.4817,204.7332 192.8917,226.8432" fill="none" id="s_disarmed-to-s_armed" style="stroke:#181818;stroke-width:1;"/><polygon fill="#181818" points="188.99,229.97,198.5145,227.4632,192.8917,226.8432,193.5117,221.2205,188.99,229.97" style="stroke:#181818;stroke-width:1;stroke-linejoin:miter;stroke-miterlimit:10;"/><text fill="#000000" font-family="sans-serif" font-size="13" lengthAdjust="spacing" textLength="25.9746" x="248" y="196.0669">arm</text></g><!--link s_armed to s_takingOff--><g class="link" data-entity-1="ent0002" data-entity-2="ent0003" data-link-type="dependency" data-source-line="15" id="lnk10"><path d="M159,280.1 C159,302.24 159,329.86 159,351.97" fill="none" id="s_armed-to-s_takingOff" style="stroke:#181818;stroke-width:1;"/><polygon fill="#181818" points="159,356.97,163,347.97,159,351.97,155,347.97,159,356.97" style="stroke:#181818;stroke-width:1;stroke-linejoin:miter;stroke-miterlimit:10;"/><text fill="#000000" font-family="sans-serif" font-size="13" lengthAdjust="spacing" textLength="45.6968" x="160" y="323.0669">takeoff</text></g><!--link s_armed to s_fault--><g class="link" data-entity-1="ent0002" data-entity-2="ent0006" data-link-type="dependency" data-source-line="16" id="lnk11"><path d="M126.18,266.32 C81.22,282.75 6,319.43 6,381 C6,381 6,381 6,637 C6,717.29 118.9322,747.187 172.7922,757.077" fill="none" id="s_armed-to-s_fault" style="stroke:#181818;stroke-width:1;"/><polygon fill="#181818" points="177.71,757.98,169.5804,752.4203,172.7922,757.077,168.1356,760.2888,177.71,757.98" style="stroke:#181818;stroke-width:1;stroke-linejoin:miter;stroke-miterlimit:10;"/><text fill="#000000" font-family="sans-serif" font-size="13" lengthAdjust="spacing" textLength="55.4658" x="7" y="513.5669">armfault</text></g><!--link s_takingOff to s_flying--><g class="link" data-entity-1="ent0003" data-entity-2="ent0004" data-link-type="dependency" data-source-line="17" id="lnk12"><path d="M167.68,407.1 C175.64,429.24 185.6963,457.1556 193.6563,479.2656" fill="none" id="s_takingOff-to-s_flying" style="stroke:#181818;stroke-width:1;"/><polygon fill="#181818" points="195.35,483.97,196.0649,474.1471,193.6563,479.2656,188.5379,476.857,195.35,483.97" style="stroke:#181818;stroke-width:1;stroke-linejoin:miter;stroke-miterlimit:10;"/><text fill="#000000" font-family="sans-serif" font-size="13" lengthAdjust="spacing" textLength="15.8818" x="186" y="450.0669">fly</text></g><!--link s_takingOff to s_fault--><g class="link" data-entity-1="ent0003" data-entity-2="ent0006" data-link-type="dependency" data-source-line="18" id="lnk13"><path d="M155.44,407.22 C150.53,444.68 143.25,518.84 152,581 C160.11,638.63 180.3493,698.9291 192.9893,733.1891" fill="none" id="s_takingOff-to-s_fault" style="stroke:#181818;stroke-width:1;"/><polygon fill="#181818" points="194.72,737.88,195.3575,728.0518,192.9893,733.1891,187.852,730.8209,194.72,737.88" style="stroke:#181818;stroke-width:1;stroke-linejoin:miter;stroke-miterlimit:10;"/><text fill="#000000" font-family="sans-serif" font-size="13" lengthAdjust="spacing" textLength="42.542" x="153" y="577.0669">tofault</text></g><!--link s_flying to s_landing--><g class="link" data-entity-1="ent0004" data-entity-2="ent0005" data-link-type="dependency" data-source-line="19" id="lnk14"><path d="M220.94,534.33 C231.28,548.51 245.13,566.43 259,581 C268.93,591.44 276.8892,598.7467 287.5592,607.6967" fill="none" id="s_flying-to-s_landing" style="stroke:#181818;stroke-width:1;"/><polygon fill="#181818" points="291.39,610.91,287.0652,602.0615,287.5592,607.6967,281.924,608.1908,291.39,610.91" style="stroke:#181818;stroke-width:1;stroke-linejoin:miter;stroke-miterlimit:10;"/><text fill="#000000" font-family="sans-serif" font-size="13" lengthAdjust="spacing" textLength="28.0693" x="260" y="577.0669">land</text></g><!--link s_flying to s_fault--><g class="link" data-entity-1="ent0004" data-entity-2="ent0006" data-link-type="dependency" data-source-line="20" id="lnk15"><path d="M204,534.16 C204,582.33 204,684.8 204,732.91" fill="none" id="s_flying-to-s_fault" style="stroke:#181818;stroke-width:1;"/><polygon fill="#181818" points="204,737.91,208,728.91,204,732.91,200,728.91,204,737.91" style="stroke:#181818;stroke-width:1;stroke-linejoin:miter;stroke-miterlimit:10;"/><text fill="#000000" font-family="sans-serif" font-size="13" lengthAdjust="spacing" textLength="45.373" x="205" y="640.5669">flyfault</text></g><!--link s_landing to s_disarmed--><g class="link" data-entity-1="ent0005" data-entity-2="ent0001" data-link-type="dependency" data-source-line="21" id="lnk16"><path d="M319.82,610.59 C317.77,585.41 315,544.99 315,510 C315,254 315,254 315,254 C315,219.06 315,183.63 315,158.43" fill="none" id="s_landing-to-s_disarmed" style="stroke:#181818;stroke-width:1;"/><polygon fill="#181818" points="315,153.43,311,162.43,315,158.43,319,162.43,315,153.43" style="stroke:#181818;stroke-width:1;stroke-linejoin:miter;stroke-miterlimit:10;"/><text fill="#000000" font-family="sans-serif" font-size="13" lengthAdjust="spacing" textLength="44.6113" x="316" y="386.5669">disarm</text></g><!--link s_landing to s_fault--><g class="link" data-entity-1="ent0005" data-entity-2="ent0006" data-link-type="dependency" data-source-line="22" id="lnk17"><path d="M299.25,661.1 C278.35,683.24 250.9821,712.224 230.1121,734.334" fill="none" id="s_landing-to-s_fault" style="stroke:#181818;stroke-width:1;"/><polygon fill="#181818" points="226.68,737.97,235.7666,734.1708,230.1121,734.334,229.949,728.6795,226.68,737.97" style="stroke:#181818;stroke-width:1;stroke-linejoin:miter;stroke-miterlimit:10;"/><text fill="#000000" font-family="sans-serif" font-size="13" lengthAdjust="spacing" textLength="49.5942" x="272" y="704.0669">lndfault</text></g><!--link s_fault to s_disarmed--><g class="link" data-entity-1="ent0006" data-entity-2="ent0001" data-link-type="dependency" data-source-line="23" id="lnk18"><path d="M230.17,758.79 C286.47,750.28 414,721.64 414,637 C414,254 414,254 414,254 C414,211.78 382.7937,178.6092 354.3837,156.1692" fill="none" id="s_fault-to-s_disarmed" style="stroke:#181818;stroke-width:1;"/><polygon fill="#181818" points="350.46,153.07,355.0433,161.7874,354.3837,156.1692,360.0019,155.5096,350.46,153.07" style="stroke:#181818;stroke-width:1;stroke-linejoin:miter;stroke-miterlimit:10;"/><text fill="#000000" font-family="sans-serif" font-size="13" lengthAdjust="spacing" textLength="49.48" x="415" y="450.0669">recover</text></g><?plantuml-src fP9DQuGm48Rl-HN3zbPO56mlEVImXRtsqAD86KnSmsRDaiI5KlhV6qr6HNiJ3yxN-xnZehkgxeuMR-0yUWa_3E24zVLYJT-9TwEDXQVcDJmuT8mLqgPgWGM-8FjbB4eFGZcqDoaEW0xS5wLGbgttTvvbsjIeM-CyB_8yptgL2UbHwUmaMtmeOpa_QtLf_US0T9mJegh8Oscmbxv2UmndSVbeceIVyXqM4sEsQVHtA2MFcEmmY82Phh4JCpvbE_Y9i5WVU-rf-o7Ui_oW3sXMFbTmFBujVneEgbEUBIfnWBhXpIYBdVc-E8HOcgPPJSHzH-qOigKeZSGBuH22_zg9u0q1aY2swRmv3D6wI-9G93K9DXyVmyq48NGdfWN6qWPWPMqUqh8_?></g></svg>