<svg xmlns="http://www.w3.org/2000/svg" xmlns:xlink="http://www.w3.org/1999/xlink" contentStyleType="text/css" data-diagram-type="CLASS" height="178px" preserveAspectRatio="none" style="width:365px;height:178px;background:#FFFFFF;" version="1.1" viewBox="0 0 365 178" width="365px" zoomAndPan="magnify"><?plantuml 1.2026.6?><defs/><g><!--class s_propulsion--><g class="entity" data-qualified-name="s_propulsion" data-source-line="7" id="ent0001"><a href="https://github.com/sjames/syscribe/blob/main/model/UAV/Propulsion/PropulsionSystem.md" target="_top" title="https://github.com/sjames/syscribe/blob/main/model/UAV/Propulsion/PropulsionSystem.md" xlink:actuate="onRequest" xlink:href="https://github.com/sjames/syscribe/blob/main/model/UAV/Propulsion/PropulsionSystem.md" xlink:show="new" xlink:title="https://github.com/sjames/syscribe/blob/main/model/UAV/Propulsion/PropulsionSystem.md" xlink:type="simple"><rect fill="#F5F5FA" height="40.2656" rx="2.5" ry="2.5" style="stroke:#3A3A4A;stroke-width:0.5;" width="157.2412" x="7" y="7"/><ellipse cx="22" cy="27.1328" fill="#ADD1B2" rx="11" ry="11" style="stroke:#181818;stroke-width:1;"/><path d="M24.9688,32.7734 Q24.3906,33.0703 23.75,33.2109 Q23.1094,33.3672 22.4063,33.3672 Q19.9063,33.3672 18.5781,31.7266 Q17.2656,30.0703 17.2656,26.9453 Q17.2656,23.8203 18.5781,22.1641 Q19.9063,20.5078 22.4063,20.5078 Q23.1094,20.5078 23.75,20.6641 Q24.4063,20.8203 24.9688,21.1172 L24.9688,23.8359 Q24.3438,23.2578 23.75,22.9922 Q23.1563,22.7109 22.5313,22.7109 Q21.1875,22.7109 20.5,23.7891 Q19.8125,24.8516 19.8125,26.9453 Q19.8125,29.0391 20.5,30.1172 Q21.1875,31.1797 22.5313,31.1797 Q23.1563,31.1797 23.75,30.9141 Q24.3438,30.6328 24.9688,30.0547 L24.9688,32.7734 Z " fill="#000000"/><text fill="#000000" font-family="sans-serif" font-size="12" font-style="italic" lengthAdjust="spacing" textLength="62.4609" x="67.3901" y="23.1387">&#171;part def&#187;</text><text fill="#000000" font-family="sans-serif" font-size="14" lengthAdjust="spacing" textLength="125.2412" x="36" y="38.9639">PropulsionSystem</text></a></g><!--class s_motor--><g class="entity" data-qualified-name="s_motor" data-source-line="8" id="ent0002"><a href="https://github.com/sjames/syscribe/blob/main/model/UAV/Propulsion/Motor.md" target="_top" title="https://github.com/sjames/syscribe/blob/main/model/UAV/Propulsion/Motor.md" xlink:actuate="onRequest" xlink:href="https://github.com/sjames/syscribe/blob/main/model/UAV/Propulsion/Motor.md" xlink:show="new" xlink:title="https://github.com/sjames/syscribe/blob/main/model/UAV/Propulsion/Motor.md" xlink:type="simple"><rect fill="#F5F5FA" height="40.2656" rx="2.5" ry="2.5" style="stroke:#3A3A4A;stroke-width:0.5;" width="90.4609" x="223.5" y="124"/><ellipse cx="238.5" cy="144.1328" fill="#ADD1B2" rx="11" ry="11" style="stroke:#181818;stroke-width:1;"/><path d="M241.4688,149.7734 Q240.8906,150.0703 240.25,150.2109 Q239.6094,150.3672 238.9063,150.3672 Q236.4063,150.3672 235.0781,148.7266 Q233.7656,147.0703 233.7656,143.9453 Q233.7656,140.8203 235.0781,139.1641 Q236.4063,137.5078 238.9063,137.5078 Q239.6094,137.5078 240.25,137.6641 Q240.9063,137.8203 241.4688,138.1172 L241.4688,140.8359 Q240.8438,140.2578 240.25,139.9922 Q239.6563,139.7109 239.0313,139.7109 Q237.6875,139.7109 237,140.7891 Q236.3125,141.8516 236.3125,143.9453 Q236.3125,146.0391 237,147.1172 Q237.6875,148.1797 239.0313,148.1797 Q239.6563,148.1797 240.25,147.9141 Q240.8438,147.6328 241.4688,147.0547 L241.4688,149.7734 Z " fill="#000000"/><text fill="#000000" font-family="sans-serif" font-size="12" font-style="italic" lengthAdjust="spacing" textLength="62.4609" x="250.5" y="140.1387">&#171;part def&#187;</text><text fill="#000000" font-family="sans-serif" font-size="14" lengthAdjust="spacing" textLength="40.4551" x="261.5029" y="155.9639">Motor</text></a></g><!--class s_rotor--><g class="entity" data-qualified-name="s_rotor" data-source-line="9" id="ent0003"><a href="https://github.com/sjames/syscribe/blob/main/model/UAV/Propulsion/RotorAssembly.md" target="_top" title="https://github.com/sjames/syscribe/blob/main/model/UAV/Propulsion/RotorAssembly.md" xlink:actuate="onRequest" xlink:href="https://github.com/sjames/syscribe/blob/main/model/UAV/Propulsion/RotorAssembly.md" xlink:show="new" xlink:title="https://github.com/sjames/syscribe/blob/main/model/UAV/Propulsion/RotorAssembly.md" xlink:type="simple"><rect fill="#F5F5FA" height="40.2656" rx="2.5" ry="2.5" style="stroke:#3A3A4A;stroke-width:0.5;" width="137.5811" x="199.5" y="7"/><ellipse cx="214.5" cy="27.1328" fill="#ADD1B2" rx="11" ry="11" style="stroke:#181818;stroke-width:1;"/><path d="M217.4688,32.7734 Q216.8906,33.0703 216.25,33.2109 Q215.6094,33.3672 214.9063,33.3672 Q212.4063,33.3672 211.0781,31.7266 Q209.7656,30.0703 209.7656,26.9453 Q209.7656,23.8203 211.0781,22.1641 Q212.4063,20.5078 214.9063,20.5078 Q215.6094,20.5078 216.25,20.6641 Q216.9063,20.8203 217.4688,21.1172 L217.4688,23.8359 Q216.8438,23.2578 216.25,22.9922 Q215.6563,22.7109 215.0313,22.7109 Q213.6875,22.7109 213,23.7891 Q212.3125,24.8516 212.3125,26.9453 Q212.3125,29.0391 213,30.1172 Q213.6875,31.1797 215.0313,31.1797 Q215.6563,31.1797 216.25,30.9141 Q216.8438,30.6328 217.4688,30.0547 L217.4688,32.7734 Z " fill="#000000"/><text fill="#000000" font-family="sans-serif" font-size="12" font-style="italic" lengthAdjust="spacing" textLength="62.4609" x="250.0601" y="23.1387">&#171;part def&#187;</text><text fill="#000000" font-family="sans-serif" font-size="14" lengthAdjust="spacing" textLength="105.5811" x="228.5" y="38.9639">RotorAssembly</text></a></g><!--reverse link s_rotor to s_motor--><g class="link" data-entity-1="ent0003" data-entity-2="ent0002" data-link-type="composition" data-source-line="11" id="lnk4"><path codeLine="11" d="M268.5,59.25 C268.5,80.48 268.5,102.44 268.5,123.69" fill="none" id="s_rotor-backto-s_motor" style="stroke:#181818;stroke-width:1;"/><polygon fill="#181818" points="268.5,47.25,264.5,53.25,268.5,59.25,272.5,53.25,268.5,47.25" style="stroke:#181818;stroke-width:1;stroke-linejoin:miter;stroke-miterlimit:10;"/><text fill="#000000" font-family="sans-serif" font-size="13" lengthAdjust="spacing" textLength="79.7202" x="269.5" y="90.0669">motor-comp</text></g><?plantuml-src jT31IWCn40RWUvvYg3TXEuVgfPH2wraGHI-boEmcxSPcTa8cUrZ4TtUttLRgMSaXuG_a-oTwy4saH0nL85NuD01hgWxx96rZ7oH8WflTVRzek95aNHhJ6SteZioNgRrru3Zc3jXnwP8QStfjyfGaja6zD2-TPiSJ80LzZvSO5ekUps3TRhc4pQREEUeSSUzptPRJIXZrWzWfQgTLygN3CaY9JBv15ki2lgxUyCV1t-IKxNPxxlCeMT9OWeVpt_j7uWfz7fALQlyteHlnz3_u5NKgOSxORL5Sffx3SIzw8ffl?></g></svg>