<svg xmlns="http://www.w3.org/2000/svg" xmlns:xlink="http://www.w3.org/1999/xlink" contentStyleType="text/css" data-diagram-type="CLASS" height="158px" preserveAspectRatio="none" style="width:307px;height:158px;background:#FFFFFF;" version="1.1" viewBox="0 0 307 158" width="307px" zoomAndPan="magnify"><?plantuml 1.2026.6?><defs/><g><!--class s_propulsion--><g class="entity" data-qualified-name="s_propulsion" data-source-line="4" id="ent0001"><a href="https://github.com/sjames/syscribe/blob/main/model/UAV/Propulsion/PropulsionSystem.md" target="_top" title="https://github.com/sjames/syscribe/blob/main/model/UAV/Propulsion/PropulsionSystem.md" xlink:actuate="onRequest" xlink:href="https://github.com/sjames/syscribe/blob/main/model/UAV/Propulsion/PropulsionSystem.md" xlink:show="new" xlink:title="https://github.com/sjames/syscribe/blob/main/model/UAV/Propulsion/PropulsionSystem.md" xlink:type="simple"><rect fill="#D4E6F1" height="32.1172" rx="2" ry="2" style="stroke:#154360;stroke-width:1.5;" width="129.8604" x="7" y="7"/><rect fill="#154360" height="32.1172" rx="2" ry="2" style="stroke:#154360;stroke-width:1.5;" width="129.8604" x="7" y="7"/><rect fill="#154360" height="2" style="stroke:#154360;stroke-width:1.5;" width="129.8604" x="7" y="37.1172"/><rect fill="none" height="32.1172" rx="2" ry="2" style="stroke:#154360;stroke-width:1.5;" width="129.8604" x="7" y="7"/><ellipse cx="20" cy="23.0586" fill="#ADD1B2" rx="9" ry="9" style="stroke:#181818;stroke-width:1;"/><path d="M21.3125,26.8242 Q20.9375,27.0273 20.5156,27.1211 Q20.1094,27.2148 19.6406,27.2148 Q18.0313,27.2148 17.1719,26.1523 Q16.3125,25.0742 16.3125,23.0586 Q16.3125,21.0273 17.1719,19.9648 Q18.0313,18.8867 19.6406,18.8867 Q20.1094,18.8867 20.5156,18.9961 Q20.9375,19.0898 21.3125,19.2773 L21.3125,21.043 Q20.8906,20.668 20.5,20.4961 Q20.125,20.3242 19.7188,20.3242 Q18.8594,20.3242 18.4063,21.0117 Q17.9688,21.6992 17.9688,23.0586 Q17.9688,24.418 18.4063,25.1055 Q18.8594,25.793 19.7188,25.793 Q20.125,25.793 20.5,25.6211 Q20.8906,25.4492 21.3125,25.0586 L21.3125,26.8242 Z " fill="#000000"/><text fill="#A8C8E8" font-family="Helvetica Neue, Helvetica, Arial, sans-serif" font-size="9" font-style="italic" lengthAdjust="spacing" textLength="46.8457" x="59.5073" y="20.354">&#171;part def&#187;</text><text fill="#FFFFFF" font-family="'Helvetica Neue, Helvetica, Arial, sans-serif'" font-size="10" font-weight="700" lengthAdjust="spacing" textLength="101.8604" x="32" y="31.7588">PropulsionSystem</text></a></g><!--class s_motor--><g class="entity" data-qualified-name="s_motor" data-source-line="5" id="ent0002"><a href="https://github.com/sjames/syscribe/blob/main/model/UAV/Propulsion/Motor.md" target="_top" title="https://github.com/sjames/syscribe/blob/main/model/UAV/Propulsion/Motor.md" xlink:actuate="onRequest" xlink:href="https://github.com/sjames/syscribe/blob/main/model/UAV/Propulsion/Motor.md" xlink:show="new" xlink:title="https://github.com/sjames/syscribe/blob/main/model/UAV/Propulsion/Motor.md" xlink:type="simple"><rect fill="#D4E6F1" height="32.1172" rx="2" ry="2" style="stroke:#154360;stroke-width:1.5;" width="70.8457" x="193.5" y="112"/><rect fill="#154360" height="32.1172" rx="2" ry="2" style="stroke:#154360;stroke-width:1.5;" width="70.8457" x="193.5" y="112"/><rect fill="#154360" height="2" style="stroke:#154360;stroke-width:1.5;" width="70.8457" x="193.5" y="142.1172"/><rect fill="none" height="32.1172" rx="2" ry="2" style="stroke:#154360;stroke-width:1.5;" width="70.8457" x="193.5" y="112"/><ellipse cx="206.5" cy="128.0586" fill="#ADD1B2" rx="9" ry="9" style="stroke:#181818;stroke-width:1;"/><path d="M207.8125,131.8242 Q207.4375,132.0273 207.0156,132.1211 Q206.6094,132.2148 206.1406,132.2148 Q204.5313,132.2148 203.6719,131.1523 Q202.8125,130.0742 202.8125,128.0586 Q202.8125,126.0273 203.6719,124.9648 Q204.5313,123.8867 206.1406,123.8867 Q206.6094,123.8867 207.0156,123.9961 Q207.4375,124.0898 207.8125,124.2773 L207.8125,126.043 Q207.3906,125.668 207,125.4961 Q206.625,125.3242 206.2188,125.3242 Q205.3594,125.3242 204.9063,126.0117 Q204.4688,126.6992 204.4688,128.0586 Q204.4688,129.418 204.9063,130.1055 Q205.3594,130.793 206.2188,130.793 Q206.625,130.793 207,130.6211 Q207.3906,130.4492 207.8125,130.0586 L207.8125,131.8242 Z " fill="#000000"/><text fill="#A8C8E8" font-family="Helvetica Neue, Helvetica, Arial, sans-serif" font-size="9" font-style="italic" lengthAdjust="spacing" textLength="46.8457" x="216.5" y="125.354">&#171;part def&#187;</text><text fill="#FFFFFF" font-family="'Helvetica Neue, Helvetica, Arial, sans-serif'" font-size="10" font-weight="700" lengthAdjust="spacing" textLength="33.4033" x="223.2212" y="136.7588">Motor</text></a></g><!--class s_rotor--><g class="entity" data-qualified-name="s_rotor" data-source-line="6" id="ent0003"><a href="https://github.com/sjames/syscribe/blob/main/model/UAV/Propulsion/RotorAssembly.md" target="_top" title="https://github.com/sjames/syscribe/blob/main/model/UAV/Propulsion/RotorAssembly.md" xlink:actuate="onRequest" xlink:href="https://github.com/sjames/syscribe/blob/main/model/UAV/Propulsion/RotorAssembly.md" xlink:show="new" xlink:title="https://github.com/sjames/syscribe/blob/main/model/UAV/Propulsion/RotorAssembly.md" xlink:type="simple"><rect fill="#D4E6F1" height="32.1172" rx="2" ry="2" style="stroke:#154360;stroke-width:1.5;" width="113.1025" x="172.5" y="7"/><rect fill="#154360" height="32.1172" rx="2" ry="2" style="stroke:#154360;stroke-width:1.5;" width="113.1025" x="172.5" y="7"/><rect fill="#154360" height="2" style="stroke:#154360;stroke-width:1.5;" width="113.1025" x="172.5" y="37.1172"/><rect fill="none" height="32.1172" rx="2" ry="2" style="stroke:#154360;stroke-width:1.5;" width="113.1025" x="172.5" y="7"/><ellipse cx="185.5" cy="23.0586" fill="#ADD1B2" rx="9" ry="9" style="stroke:#181818;stroke-width:1;"/><path d="M186.8125,26.8242 Q186.4375,27.0273 186.0156,27.1211 Q185.6094,27.2148 185.1406,27.2148 Q183.5313,27.2148 182.6719,26.1523 Q181.8125,25.0742 181.8125,23.0586 Q181.8125,21.0273 182.6719,19.9648 Q183.5313,18.8867 185.1406,18.8867 Q185.6094,18.8867 186.0156,18.9961 Q186.4375,19.0898 186.8125,19.2773 L186.8125,21.043 Q186.3906,20.668 186,20.4961 Q185.625,20.3242 185.2188,20.3242 Q184.3594,20.3242 183.9063,21.0117 Q183.4688,21.6992 183.4688,23.0586 Q183.4688,24.418 183.9063,25.1055 Q184.3594,25.793 185.2188,25.793 Q185.625,25.793 186,25.6211 Q186.3906,25.4492 186.8125,25.0586 L186.8125,26.8242 Z " fill="#000000"/><text fill="#A8C8E8" font-family="Helvetica Neue, Helvetica, Arial, sans-serif" font-size="9" font-style="italic" lengthAdjust="spacing" textLength="46.8457" x="216.6284" y="20.354">&#171;part def&#187;</text><text fill="#FFFFFF" font-family="'Helvetica Neue, Helvetica, Arial, sans-serif'" font-size="10" font-weight="700" lengthAdjust="spacing" textLength="85.1025" x="197.5" y="31.7588">RotorAssembly</text></a></g><!--reverse link s_rotor to s_motor--><g class="link" data-entity-1="ent0003" data-entity-2="ent0002" data-link-type="composition" data-source-line="8" id="lnk4"><path codeLine="8" d="M229,51.2 C229,70.67 229,92.24 229,111.74" fill="none" id="s_rotor-backto-s_motor" style="stroke:#1F497D;stroke-width:1.5;"/><polygon fill="#1F497D" points="229,39.2,225,45.2,229,51.2,233,45.2,229,39.2" style="stroke:#1F497D;stroke-width:1.5;stroke-linejoin:miter;stroke-miterlimit:10;"/><text fill="#2C3E50" font-family="'Helvetica Neue, Helvetica, Arial, sans-serif'" font-size="10" lengthAdjust="spacing" textLength="61.3232" x="230" y="79.2822">motor-comp</text></g><?plantuml-src jT31QWCX40RWkqzXSmpipZs4G1wWK1gIImX5rsdMugWuUl3jwoRPBUcvFStmWtp_-6Bzu8f12MCW1FvIX0pHgNfDeNW3N7b8LYFqBVIva9iYShrjgnXjUueKSvM4f36n48DJp7Brba8iZctmXyePQIKLI_w8IootswXIbWO_TpjvFeyvHzu0N6qUY-w7G7ETfODsGGCfwu62GGV7_Gb-7FXDzcGkbxdFQyWXFKhGjF-zVoEUqFSfsJEtlt7rWQV_mP-eUmanO-kkMwxUoDli6X75Dm00?></g></svg>