<svg xmlns="http://www.w3.org/2000/svg" xmlns:xlink="http://www.w3.org/1999/xlink" contentStyleType="text/css" data-diagram-type="CLASS" height="263px" preserveAspectRatio="none" style="width:844px;height:263px;background:#FFFFFF;" version="1.1" viewBox="0 0 844 263" width="844px" zoomAndPan="magnify"><?plantuml 1.2026.6?><defs/><g><!--class s_safety_root--><g class="entity" data-qualified-name="s_safety_root" data-source-line="4" id="ent0001"><a href="https://github.com/sjames/syscribe/blob/main/model/Requirements/SafetyReqs.md" target="_top" title="https://github.com/sjames/syscribe/blob/main/model/Requirements/SafetyReqs.md" xlink:actuate="onRequest" xlink:href="https://github.com/sjames/syscribe/blob/main/model/Requirements/SafetyReqs.md" xlink:show="new" xlink:title="https://github.com/sjames/syscribe/blob/main/model/Requirements/SafetyReqs.md" xlink:type="simple"><rect fill="#FDEDEC" height="32.1172" rx="2" ry="2" style="stroke:#C0392B;stroke-width:1.5;" width="108.3179" x="393" y="217"/><rect fill="#922B21" height="32.1172" rx="2" ry="2" style="stroke:#922B21;stroke-width:1.5;" width="108.3179" x="393" y="217"/><rect fill="#922B21" height="2" style="stroke:#922B21;stroke-width:1.5;" width="108.3179" x="393" y="247.1172"/><rect fill="none" height="32.1172" rx="2" ry="2" style="stroke:#C0392B;stroke-width:1.5;" width="108.3179" x="393" y="217"/><ellipse cx="406" cy="233.0586" fill="#ADD1B2" rx="9" ry="9" style="stroke:#181818;stroke-width:1;"/><path d="M407.3125,236.8242 Q406.9375,237.0273 406.5156,237.1211 Q406.1094,237.2148 405.6406,237.2148 Q404.0313,237.2148 403.1719,236.1523 Q402.3125,235.0742 402.3125,233.0586 Q402.3125,231.0273 403.1719,229.9648 Q404.0313,228.8867 405.6406,228.8867 Q406.1094,228.8867 406.5156,228.9961 Q406.9375,229.0898 407.3125,229.2773 L407.3125,231.043 Q406.8906,230.668 406.5,230.4961 Q406.125,230.3242 405.7188,230.3242 Q404.8594,230.3242 404.4063,231.0117 Q403.9688,231.6992 403.9688,233.0586 Q403.9688,234.418 404.4063,235.1055 Q404.8594,235.793 405.7188,235.793 Q406.125,235.793 406.5,235.6211 Q406.8906,235.4492 407.3125,235.0586 L407.3125,236.8242 Z " fill="#000000"/><text fill="#A8C8E8" font-family="Helvetica Neue, Helvetica, Arial, sans-serif" font-size="9" font-style="italic" lengthAdjust="spacing" textLength="84.3179" x="416" y="230.354">&#171;requirement def&#187;</text><text fill="#FFFFFF" font-family="'Helvetica Neue, Helvetica, Arial, sans-serif'" font-size="10" font-weight="700" lengthAdjust="spacing" textLength="63.9746" x="426.1716" y="241.7588">SafetyReqs</text></a></g><!--class s_fc_req--><g class="entity" data-qualified-name="s_fc_req" data-source-line="5" id="ent0002"><a href="https://github.com/sjames/syscribe/blob/main/model/Requirements/FaultTolerantFCReq.md" target="_top" title="https://github.com/sjames/syscribe/blob/main/model/Requirements/FaultTolerantFCReq.md" xlink:actuate="onRequest" xlink:href="https://github.com/sjames/syscribe/blob/main/model/Requirements/FaultTolerantFCReq.md" xlink:show="new" xlink:title="https://github.com/sjames/syscribe/blob/main/model/Requirements/FaultTolerantFCReq.md" xlink:type="simple"><rect fill="#FDEDEC" height="32.1172" rx="2" ry="2" style="stroke:#C0392B;stroke-width:1.5;" width="383.6934" x="7" y="112"/><rect fill="#C0392B" height="32.1172" rx="2" ry="2" style="stroke:#C0392B;stroke-width:1.5;" width="383.6934" x="7" y="112"/><rect fill="#C0392B" height="2" style="stroke:#C0392B;stroke-width:1.5;" width="383.6934" x="7" y="142.1172"/><rect fill="none" height="32.1172" rx="2" ry="2" style="stroke:#C0392B;stroke-width:1.5;" width="383.6934" x="7" y="112"/><ellipse cx="20" cy="128.0586" fill="#ADD1B2" rx="9" ry="9" style="stroke:#181818;stroke-width:1;"/><path d="M21.3125,131.8242 Q20.9375,132.0273 20.5156,132.1211 Q20.1094,132.2148 19.6406,132.2148 Q18.0313,132.2148 17.1719,131.1523 Q16.3125,130.0742 16.3125,128.0586 Q16.3125,126.0273 17.1719,124.9648 Q18.0313,123.8867 19.6406,123.8867 Q20.1094,123.8867 20.5156,123.9961 Q20.9375,124.0898 21.3125,124.2773 L21.3125,126.043 Q20.8906,125.668 20.5,125.4961 Q20.125,125.3242 19.7188,125.3242 Q18.8594,125.3242 18.4063,126.0117 Q17.9688,126.6992 17.9688,128.0586 Q17.9688,129.418 18.4063,130.1055 Q18.8594,130.793 19.7188,130.793 Q20.125,130.793 20.5,130.6211 Q20.8906,130.4492 21.3125,130.0586 L21.3125,131.8242 Z " fill="#000000"/><text fill="#F5B7B1" font-family="Helvetica Neue, Helvetica, Arial, sans-serif" font-size="9" font-style="italic" lengthAdjust="spacing" textLength="67.0386" x="176.3274" y="125.354">&#171;requirement&#187;</text><text fill="#FFFFFF" font-family="'Helvetica Neue, Helvetica, Arial, sans-serif'" font-size="10" font-weight="700" lengthAdjust="spacing" textLength="355.6934" x="32" y="136.7588">Flight controller shall detect single sensor failure within 50 ms</text></a></g><!--class s_land_req--><g class="entity" data-qualified-name="s_land_req" data-source-line="6" id="ent0003"><a href="https://github.com/sjames/syscribe/blob/main/model/Requirements/SafeLandingReq.md" target="_top" title="https://github.com/sjames/syscribe/blob/main/model/Requirements/SafeLandingReq.md" xlink:actuate="onRequest" xlink:href="https://github.com/sjames/syscribe/blob/main/model/Requirements/SafeLandingReq.md" xlink:show="new" xlink:title="https://github.com/sjames/syscribe/blob/main/model/Requirements/SafeLandingReq.md" xlink:type="simple"><rect fill="#FDEDEC" height="32.1172" rx="2" ry="2" style="stroke:#C0392B;stroke-width:1.5;" width="378.4199" x="431" y="112"/><rect fill="#C0392B" height="32.1172" rx="2" ry="2" style="stroke:#C0392B;stroke-width:1.5;" width="378.4199" x="431" y="112"/><rect fill="#C0392B" height="2" style="stroke:#C0392B;stroke-width:1.5;" width="378.4199" x="431" y="142.1172"/><rect fill="none" height="32.1172" rx="2" ry="2" style="stroke:#C0392B;stroke-width:1.5;" width="378.4199" x="431" y="112"/><ellipse cx="444" cy="128.0586" fill="#ADD1B2" rx="9" ry="9" style="stroke:#181818;stroke-width:1;"/><path d="M445.3125,131.8242 Q444.9375,132.0273 444.5156,132.1211 Q444.1094,132.2148 443.6406,132.2148 Q442.0313,132.2148 441.1719,131.1523 Q440.3125,130.0742 440.3125,128.0586 Q440.3125,126.0273 441.1719,124.9648 Q442.0313,123.8867 443.6406,123.8867 Q444.1094,123.8867 444.5156,123.9961 Q444.9375,124.0898 445.3125,124.2773 L445.3125,126.043 Q444.8906,125.668 444.5,125.4961 Q444.125,125.3242 443.7188,125.3242 Q442.8594,125.3242 442.4063,126.0117 Q441.9688,126.6992 441.9688,128.0586 Q441.9688,129.418 442.4063,130.1055 Q442.8594,130.793 443.7188,130.793 Q444.125,130.793 444.5,130.6211 Q444.8906,130.4492 445.3125,130.0586 L445.3125,131.8242 Z " fill="#000000"/><text fill="#F5B7B1" font-family="Helvetica Neue, Helvetica, Arial, sans-serif" font-size="9" font-style="italic" lengthAdjust="spacing" textLength="67.0386" x="597.6907" y="125.354">&#171;requirement&#187;</text><text fill="#FFFFFF" font-family="'Helvetica Neue, Helvetica, Arial, sans-serif'" font-size="10" font-weight="700" lengthAdjust="spacing" textLength="350.4199" x="456" y="136.7588">Autonomous safe landing on battery-critical or link-loss event</text></a></g><!--class s_fc_test--><g class="entity" data-qualified-name="s_fc_test" data-source-line="7" id="ent0004"><a href="https://github.com/sjames/syscribe/blob/main/model/Verification/FCFaultInjectionTest.md" target="_top" title="https://github.com/sjames/syscribe/blob/main/model/Verification/FCFaultInjectionTest.md" xlink:actuate="onRequest" xlink:href="https://github.com/sjames/syscribe/blob/main/model/Verification/FCFaultInjectionTest.md" xlink:show="new" xlink:title="https://github.com/sjames/syscribe/blob/main/model/Verification/FCFaultInjectionTest.md" xlink:type="simple"><rect fill="#E9F7EF" height="32.1172" rx="2" ry="2" style="stroke:#196F3D;stroke-width:1.5;" width="370.9053" x="10.5" y="7"/><rect fill="#196F3D" height="32.1172" rx="2" ry="2" style="stroke:#196F3D;stroke-width:1.5;" width="370.9053" x="10.5" y="7"/><rect fill="#196F3D" height="2" style="stroke:#196F3D;stroke-width:1.5;" width="370.9053" x="10.5" y="37.1172"/><rect fill="none" height="32.1172" rx="2" ry="2" style="stroke:#196F3D;stroke-width:1.5;" width="370.9053" x="10.5" y="7"/><ellipse cx="23.5" cy="23.0586" fill="#ADD1B2" rx="9" ry="9" style="stroke:#181818;stroke-width:1;"/><path d="M24.8125,26.8242 Q24.4375,27.0273 24.0156,27.1211 Q23.6094,27.2148 23.1406,27.2148 Q21.5313,27.2148 20.6719,26.1523 Q19.8125,25.0742 19.8125,23.0586 Q19.8125,21.0273 20.6719,19.9648 Q21.5313,18.8867 23.1406,18.8867 Q23.6094,18.8867 24.0156,18.9961 Q24.4375,19.0898 24.8125,19.2773 L24.8125,21.043 Q24.3906,20.668 24,20.4961 Q23.625,20.3242 23.2188,20.3242 Q22.3594,20.3242 21.9063,21.0117 Q21.4688,21.6992 21.4688,23.0586 Q21.4688,24.418 21.9063,25.1055 Q22.3594,25.793 23.2188,25.793 Q23.625,25.793 24,25.6211 Q24.3906,25.4492 24.8125,25.0586 L24.8125,26.8242 Z " fill="#000000"/><text fill="#A8C8E8" font-family="Helvetica Neue, Helvetica, Arial, sans-serif" font-size="9" font-style="italic" lengthAdjust="spacing" textLength="69.2227" x="172.3413" y="20.354">&#171;test case def&#187;</text><text fill="#FFFFFF" font-family="'Helvetica Neue, Helvetica, Arial, sans-serif'" font-size="10" font-weight="700" lengthAdjust="spacing" textLength="342.9053" x="35.5" y="31.7588">FC detects injected sensor failure within 50 ms on HIL bench</text></a></g><!--class s_land_test--><g class="entity" data-qualified-name="s_land_test" data-source-line="8" id="ent0005"><a href="https://github.com/sjames/syscribe/blob/main/model/Verification/SafeLandingTest.md" target="_top" title="https://github.com/sjames/syscribe/blob/main/model/Verification/SafeLandingTest.md" xlink:actuate="onRequest" xlink:href="https://github.com/sjames/syscribe/blob/main/model/Verification/SafeLandingTest.md" xlink:show="new" xlink:title="https://github.com/sjames/syscribe/blob/main/model/Verification/SafeLandingTest.md" xlink:type="simple"><rect fill="#E9F7EF" height="32.1172" rx="2" ry="2" style="stroke:#196F3D;stroke-width:1.5;" width="413.0635" x="416.5" y="7"/><rect fill="#196F3D" height="32.1172" rx="2" ry="2" style="stroke:#196F3D;stroke-width:1.5;" width="413.0635" x="416.5" y="7"/><rect fill="#196F3D" height="2" style="stroke:#196F3D;stroke-width:1.5;" width="413.0635" x="416.5" y="37.1172"/><rect fill="none" height="32.1172" rx="2" ry="2" style="stroke:#196F3D;stroke-width:1.5;" width="413.0635" x="416.5" y="7"/><ellipse cx="429.5" cy="23.0586" fill="#ADD1B2" rx="9" ry="9" style="stroke:#181818;stroke-width:1;"/><path d="M430.8125,26.8242 Q430.4375,27.0273 430.0156,27.1211 Q429.6094,27.2148 429.1406,27.2148 Q427.5313,27.2148 426.6719,26.1523 Q425.8125,25.0742 425.8125,23.0586 Q425.8125,21.0273 426.6719,19.9648 Q427.5313,18.8867 429.1406,18.8867 Q429.6094,18.8867 430.0156,18.9961 Q430.4375,19.0898 430.8125,19.2773 L430.8125,21.043 Q430.3906,20.668 430,20.4961 Q429.625,20.3242 429.2188,20.3242 Q428.3594,20.3242 427.9063,21.0117 Q427.4688,21.6992 427.4688,23.0586 Q427.4688,24.418 427.9063,25.1055 Q428.3594,25.793 429.2188,25.793 Q429.625,25.793 430,25.6211 Q430.3906,25.4492 430.8125,25.0586 L430.8125,26.8242 Z " fill="#000000"/><text fill="#A8C8E8" font-family="Helvetica Neue, Helvetica, Arial, sans-serif" font-size="9" font-style="italic" lengthAdjust="spacing" textLength="69.2227" x="599.4204" y="20.354">&#171;test case def&#187;</text><text fill="#FFFFFF" font-family="'Helvetica Neue, Helvetica, Arial, sans-serif'" font-size="10" font-weight="700" lengthAdjust="spacing" textLength="385.0635" x="441.5" y="31.7588">Autonomous landing descent rate &#8804; 3 m/s on battery-critical trigger</text></a></g><!--class s_fc_hw--><g class="entity" data-qualified-name="s_fc_hw" data-source-line="9" id="ent0006"><a href="https://github.com/sjames/syscribe/blob/main/model/UAV/Avionics/FlightController.md" target="_top" title="https://github.com/sjames/syscribe/blob/main/model/UAV/Avionics/FlightController.md" xlink:actuate="onRequest" xlink:href="https://github.com/sjames/syscribe/blob/main/model/UAV/Avionics/FlightController.md" xlink:show="new" xlink:title="https://github.com/sjames/syscribe/blob/main/model/UAV/Avionics/FlightController.md" xlink:type="simple"><rect fill="#D4E6F1" height="32.1172" rx="2" ry="2" style="stroke:#154360;stroke-width:1.5;" width="117.2236" x="140.5" y="217"/><rect fill="#154360" height="32.1172" rx="2" ry="2" style="stroke:#154360;stroke-width:1.5;" width="117.2236" x="140.5" y="217"/><rect fill="#154360" height="2" style="stroke:#154360;stroke-width:1.5;" width="117.2236" x="140.5" y="247.1172"/><rect fill="none" height="32.1172" rx="2" ry="2" style="stroke:#154360;stroke-width:1.5;" width="117.2236" x="140.5" y="217"/><ellipse cx="153.5" cy="233.0586" fill="#ADD1B2" rx="9" ry="9" style="stroke:#181818;stroke-width:1;"/><path d="M154.8125,236.8242 Q154.4375,237.0273 154.0156,237.1211 Q153.6094,237.2148 153.1406,237.2148 Q151.5313,237.2148 150.6719,236.1523 Q149.8125,235.0742 149.8125,233.0586 Q149.8125,231.0273 150.6719,229.9648 Q151.5313,228.8867 153.1406,228.8867 Q153.6094,228.8867 154.0156,228.9961 Q154.4375,229.0898 154.8125,229.2773 L154.8125,231.043 Q154.3906,230.668 154,230.4961 Q153.625,230.3242 153.2188,230.3242 Q152.3594,230.3242 151.9063,231.0117 Q151.4688,231.6992 151.4688,233.0586 Q151.4688,234.418 151.9063,235.1055 Q152.3594,235.793 153.2188,235.793 Q153.625,235.793 154,235.6211 Q154.3906,235.4492 154.8125,235.0586 L154.8125,236.8242 Z " fill="#000000"/><text fill="#A8C8E8" font-family="Helvetica Neue, Helvetica, Arial, sans-serif" font-size="9" font-style="italic" lengthAdjust="spacing" textLength="46.8457" x="186.689" y="230.354">&#171;part def&#187;</text><text fill="#FFFFFF" font-family="'Helvetica Neue, Helvetica, Arial, sans-serif'" font-size="10" font-weight="700" lengthAdjust="spacing" textLength="89.2236" x="165.5" y="241.7588">FlightController</text></a></g><!--class s_uav_sys--><g class="entity" data-qualified-name="s_uav_sys" data-source-line="10" id="ent0007"><a href="https://github.com/sjames/syscribe/blob/main/model/UAV/UAVSystem.md" target="_top" title="https://github.com/sjames/syscribe/blob/main/model/UAV/UAVSystem.md" xlink:actuate="onRequest" xlink:href="https://github.com/sjames/syscribe/blob/main/model/UAV/UAVSystem.md" xlink:show="new" xlink:title="https://github.com/sjames/syscribe/blob/main/model/UAV/UAVSystem.md" xlink:type="simple"><rect fill="#D4E6F1" height="32.1172" rx="2" ry="2" style="stroke:#154360;stroke-width:1.5;" width="93.2539" x="573.5" y="217"/><rect fill="#154360" height="32.1172" rx="2" ry="2" style="stroke:#154360;stroke-width:1.5;" width="93.2539" x="573.5" y="217"/><rect fill="#154360" height="2" style="stroke:#154360;stroke-width:1.5;" width="93.2539" x="573.5" y="247.1172"/><rect fill="none" height="32.1172" rx="2" ry="2" style="stroke:#154360;stroke-width:1.5;" width="93.2539" x="573.5" y="217"/><ellipse cx="586.5" cy="233.0586" fill="#ADD1B2" rx="9" ry="9" style="stroke:#181818;stroke-width:1;"/><path d="M587.8125,236.8242 Q587.4375,237.0273 587.0156,237.1211 Q586.6094,237.2148 586.1406,237.2148 Q584.5313,237.2148 583.6719,236.1523 Q582.8125,235.0742 582.8125,233.0586 Q582.8125,231.0273 583.6719,229.9648 Q584.5313,228.8867 586.1406,228.8867 Q586.6094,228.8867 587.0156,228.9961 Q587.4375,229.0898 587.8125,229.2773 L587.8125,231.043 Q587.3906,230.668 587,230.4961 Q586.625,230.3242 586.2188,230.3242 Q585.3594,230.3242 584.9063,231.0117 Q584.4688,231.6992 584.4688,233.0586 Q584.4688,234.418 584.9063,235.1055 Q585.3594,235.793 586.2188,235.793 Q586.625,235.793 587,235.6211 Q587.3906,235.4492 587.8125,235.0586 L587.8125,236.8242 Z " fill="#000000"/><text fill="#A8C8E8" font-family="Helvetica Neue, Helvetica, Arial, sans-serif" font-size="9" font-style="italic" lengthAdjust="spacing" textLength="46.8457" x="607.7041" y="230.354">&#171;part def&#187;</text><text fill="#FFFFFF" font-family="'Helvetica Neue, Helvetica, Arial, sans-serif'" font-size="10" font-weight="700" lengthAdjust="spacing" textLength="65.2539" x="598.5" y="241.7588">UAVSystem</text></a></g><!--link s_fc_req to s_safety_root--><g class="link" data-entity-1="ent0002" data-entity-2="ent0001" data-link-type="dependency" data-source-line="12" id="lnk8"><path codeLine="12" d="M235.33,144.09 C282.28,163.59 358.9523,195.4326 405.9623,214.9526" fill="none" id="s_fc_req-to-s_safety_root" style="stroke:#1F497D;stroke-width:1.5;stroke-dasharray:7,7;"/><polygon fill="#1F497D" points="410.58,216.87,403.802,209.7244,405.9623,214.9526,400.7341,217.1128,410.58,216.87" style="stroke:#1F497D;stroke-width:1.5;stroke-linejoin:miter;stroke-miterlimit:10;"/><text fill="#2C3E50" font-family="'Helvetica Neue, Helvetica, Arial, sans-serif'" font-size="10" lengthAdjust="spacing" textLength="63.5303" x="339" y="184.2822">derivedFrom</text></g><!--link s_land_req to s_safety_root--><g class="link" data-entity-1="ent0003" data-entity-2="ent0001" data-link-type="dependency" data-source-line="13" id="lnk9"><path codeLine="13" d="M594.47,144.2 C561.67,163.73 509.3662,194.8722 476.6462,214.3522" fill="none" id="s_land_req-to-s_safety_root" style="stroke:#1F497D;stroke-width:1.5;stroke-dasharray:7,7;"/><polygon fill="#1F497D" points="472.35,216.91,482.1295,215.743,476.6462,214.3522,478.037,208.869,472.35,216.91" style="stroke:#1F497D;stroke-width:1.5;stroke-linejoin:miter;stroke-miterlimit:10;"/><text fill="#2C3E50" font-family="'Helvetica Neue, Helvetica, Arial, sans-serif'" font-size="10" lengthAdjust="spacing" textLength="63.5303" x="545" y="184.2822">derivedFrom</text></g><!--link s_fc_test to s_fc_req--><g class="link" data-entity-1="ent0004" data-entity-2="ent0002" data-link-type="dependency" data-source-line="14" id="lnk10"><path codeLine="14" d="M196.44,39.2 C197.01,58.67 197.8439,87.2421 198.4139,106.7421" fill="none" id="s_fc_test-to-s_fc_req" style="stroke:#1F497D;stroke-width:1.5;stroke-dasharray:7,7;"/><polygon fill="#1F497D" points="198.56,111.74,202.2953,102.627,198.4139,106.7421,194.2987,102.8607,198.56,111.74" style="stroke:#1F497D;stroke-width:1.5;stroke-linejoin:miter;stroke-miterlimit:10;"/><text fill="#2C3E50" font-family="'Helvetica Neue, Helvetica, Arial, sans-serif'" font-size="10" lengthAdjust="spacing" textLength="36.6211" x="199" y="79.2822">verifies</text></g><!--link s_land_test to s_land_req--><g class="link" data-entity-1="ent0005" data-entity-2="ent0003" data-link-type="dependency" data-source-line="15" id="lnk11"><path codeLine="15" d="M622.56,39.2 C621.99,58.67 621.1561,87.2421 620.5861,106.7421" fill="none" id="s_land_test-to-s_land_req" style="stroke:#1F497D;stroke-width:1.5;stroke-dasharray:7,7;"/><polygon fill="#1F497D" points="620.44,111.74,624.7013,102.8607,620.5861,106.7421,616.7047,102.627,620.44,111.74" style="stroke:#1F497D;stroke-width:1.5;stroke-linejoin:miter;stroke-miterlimit:10;"/><text fill="#2C3E50" font-family="'Helvetica Neue, Helvetica, Arial, sans-serif'" font-size="10" lengthAdjust="spacing" textLength="36.6211" x="623" y="79.2822">verifies</text></g><!--link s_fc_req to s_fc_hw--><g class="link" data-entity-1="ent0002" data-entity-2="ent0006" data-link-type="dependency" data-source-line="16" id="lnk12"><path codeLine="16" d="M199,144.2 C199,163.67 199,192.24 199,211.74" fill="none" id="s_fc_req-to-s_fc_hw" style="stroke:#1F497D;stroke-width:1.5;stroke-dasharray:7,7;"/><polygon fill="#1F497D" points="199,216.74,203,207.74,199,211.74,195,207.74,199,216.74" style="stroke:#1F497D;stroke-width:1.5;stroke-linejoin:miter;stroke-miterlimit:10;"/><text fill="#2C3E50" font-family="'Helvetica Neue, Helvetica, Arial, sans-serif'" font-size="10" lengthAdjust="spacing" textLength="59.0674" x="200" y="184.2822">allocated to</text></g><!--link s_land_req to s_uav_sys--><g class="link" data-entity-1="ent0003" data-entity-2="ent0007" data-link-type="dependency" data-source-line="17" id="lnk13"><path codeLine="17" d="M620,144.2 C620,163.67 620,192.24 620,211.74" fill="none" id="s_land_req-to-s_uav_sys" style="stroke:#1F497D;stroke-width:1.5;stroke-dasharray:7,7;"/><polygon fill="#1F497D" points="620,216.74,624,207.74,620,211.74,616,207.74,620,216.74" style="stroke:#1F497D;stroke-width:1.5;stroke-linejoin:miter;stroke-miterlimit:10;"/><text fill="#2C3E50" font-family="'Helvetica Neue, Helvetica, Arial, sans-serif'" font-size="10" lengthAdjust="spacing" textLength="59.0674" x="621" y="184.2822">allocated to</text></g><?plantuml-src jPHBRjj038RtEWMRVJG5YcwCm81XG6Y0h98qco0mHYDQcdGUpf1oe2Fq7ZrPJrBAilnAsYwIh2ICEFm__YJroGRZsWf1DT6ZeaVjaTJAwQvEiGsLeevCiYMgN0u3jzxrHzxbLbwpnifLz2lkmAClCL6M6QU9uEn6Bv6xQtoYCz04jA3DmIB5o71naV2fjGaz1eOAbzCftDytp2kQA5LRRjeoDz6FG3kAqiLIUMs3yh52fwxtQKZj9NDVFJoC98MpTSDWOk0KdSC4r6ZdH9RHC90DjKCW31GJBBLrRK9u5WORuEjdy6C1IxCGwcFsT-4kTEluDWgPE5pCvTiH_wpb6AAFhK18XI1zg8GPOe1ICsFgpaM4hT4Ef09dmuzp5-KchYNz5hw_z47ulUrN0zCfUZ7VkanWmwCyiVgNqNr9towleCHWchthZDIFpEPXDE5R1kOEarsALMnZKCLyO_tb1aqERaNXRzQFhbT8fX_Qf1dXzyzVy0L4zTLcSB9rZUcm0nzMoa4JNbGnBC1yD_zxPvjdWLdfzAOT_3wxKxErG5WZitoYTGGYaJSTCVejGQlN2qdxJWoxx8DcjjlOF9-U_7ycefNi6giYHPyTRCV_GyTv72At2XDORvg1b1qsUeZP9J-AEc8RMZ41-Ir5QQXi2SUNMADT9t5_0000?></g></svg>