<svg xmlns="http://www.w3.org/2000/svg" xmlns:xlink="http://www.w3.org/1999/xlink" contentStyleType="text/css" data-diagram-type="CLASS" height="295px" preserveAspectRatio="none" style="width:1025px;height:295px;background:#FFFFFF;" version="1.1" viewBox="0 0 1025 295" width="1025px" zoomAndPan="magnify"><?plantuml 1.2026.6?><defs/><g><!--class s_safety_root--><g class="entity" data-qualified-name="s_safety_root" data-source-line="7" id="ent0001"><a href="http://localhost:3000/ui/detail/Requirements::SafetyReqs" target="_top" title="http://localhost:3000/ui/detail/Requirements::SafetyReqs" xlink:actuate="onRequest" xlink:href="http://localhost:3000/ui/detail/Requirements::SafetyReqs" xlink:show="new" xlink:title="http://localhost:3000/ui/detail/Requirements::SafetyReqs" xlink:type="simple"><rect fill="#F9F7FF" height="40.2656" rx="2.5" ry="2.5" style="stroke:#4A0A6E;stroke-width:0.5;" width="140.4238" x="476.5" y="241"/><ellipse cx="491.5" cy="261.1328" fill="#ADD1B2" rx="11" ry="11" style="stroke:#181818;stroke-width:1;"/><path d="M494.4688,266.7734 Q493.8906,267.0703 493.25,267.2109 Q492.6094,267.3672 491.9063,267.3672 Q489.4063,267.3672 488.0781,265.7266 Q486.7656,264.0703 486.7656,260.9453 Q486.7656,257.8203 488.0781,256.1641 Q489.4063,254.5078 491.9063,254.5078 Q492.6094,254.5078 493.25,254.6641 Q493.9063,254.8203 494.4688,255.1172 L494.4688,257.8359 Q493.8438,257.2578 493.25,256.9922 Q492.6563,256.7109 492.0313,256.7109 Q490.6875,256.7109 490,257.7891 Q489.3125,258.8516 489.3125,260.9453 Q489.3125,263.0391 490,264.1172 Q490.6875,265.1797 492.0313,265.1797 Q492.6563,265.1797 493.25,264.9141 Q493.8438,264.6328 494.4688,264.0547 L494.4688,266.7734 Z " fill="#000000"/><text fill="#000000" font-family="sans-serif" font-size="12" font-style="italic" lengthAdjust="spacing" textLength="112.4238" x="503.5" y="257.1387">&#171;requirement def&#187;</text><text fill="#000000" font-family="sans-serif" font-size="14" lengthAdjust="spacing" textLength="79.3037" x="520.0601" y="272.9639">SafetyReqs</text></a></g><!--class s_fc_req--><g class="entity" data-qualified-name="s_fc_req" data-source-line="8" id="ent0002"><a href="http://localhost:3000/ui/detail/Requirements::FaultTolerantFCReq" target="_top" title="http://localhost:3000/ui/detail/Requirements::FaultTolerantFCReq" xlink:actuate="onRequest" xlink:href="http://localhost:3000/ui/detail/Requirements::FaultTolerantFCReq" xlink:show="new" xlink:title="http://localhost:3000/ui/detail/Requirements::FaultTolerantFCReq" xlink:type="simple"><rect fill="#F9F7FF" height="40.2656" rx="2.5" ry="2.5" style="stroke:#4A0A6E;stroke-width:0.5;" width="469.124" x="7" y="124"/><ellipse cx="22" cy="144.1328" fill="#ADD1B2" rx="11" ry="11" style="stroke:#181818;stroke-width:1;"/><path d="M24.9688,149.7734 Q24.3906,150.0703 23.75,150.2109 Q23.1094,150.3672 22.4063,150.3672 Q19.9063,150.3672 18.5781,148.7266 Q17.2656,147.0703 17.2656,143.9453 Q17.2656,140.8203 18.5781,139.1641 Q19.9063,137.5078 22.4063,137.5078 Q23.1094,137.5078 23.75,137.6641 Q24.4063,137.8203 24.9688,138.1172 L24.9688,140.8359 Q24.3438,140.2578 23.75,139.9922 Q23.1563,139.7109 22.5313,139.7109 Q21.1875,139.7109 20.5,140.7891 Q19.8125,141.8516 19.8125,143.9453 Q19.8125,146.0391 20.5,147.1172 Q21.1875,148.1797 22.5313,148.1797 Q23.1563,148.1797 23.75,147.9141 Q24.3438,147.6328 24.9688,147.0547 L24.9688,149.7734 Z " fill="#000000"/><text fill="#000000" font-family="sans-serif" font-size="12" font-style="italic" lengthAdjust="spacing" textLength="89.3848" x="209.8696" y="140.1387">&#171;requirement&#187;</text><text fill="#000000" font-family="sans-serif" font-size="14" lengthAdjust="spacing" textLength="437.124" x="36" y="155.9639">Flight controller shall detect single sensor failure within 50 ms</text></a></g><!--class s_land_req--><g class="entity" data-qualified-name="s_land_req" data-source-line="9" id="ent0003"><a href="http://localhost:3000/ui/detail/Requirements::SafeLandingReq" target="_top" title="http://localhost:3000/ui/detail/Requirements::SafeLandingReq" xlink:actuate="onRequest" xlink:href="http://localhost:3000/ui/detail/Requirements::SafeLandingReq" xlink:show="new" xlink:title="http://localhost:3000/ui/detail/Requirements::SafeLandingReq" xlink:type="simple"><rect fill="#F9F7FF" height="40.2656" rx="2.5" ry="2.5" style="stroke:#4A0A6E;stroke-width:0.5;" width="464.2842" x="519.5" y="124"/><ellipse cx="534.5" cy="144.1328" fill="#ADD1B2" rx="11" ry="11" style="stroke:#181818;stroke-width:1;"/><path d="M537.4688,149.7734 Q536.8906,150.0703 536.25,150.2109 Q535.6094,150.3672 534.9063,150.3672 Q532.4063,150.3672 531.0781,148.7266 Q529.7656,147.0703 529.7656,143.9453 Q529.7656,140.8203 531.0781,139.1641 Q532.4063,137.5078 534.9063,137.5078 Q535.6094,137.5078 536.25,137.6641 Q536.9063,137.8203 537.4688,138.1172 L537.4688,140.8359 Q536.8438,140.2578 536.25,139.9922 Q535.6563,139.7109 535.0313,139.7109 Q533.6875,139.7109 533,140.7891 Q532.3125,141.8516 532.3125,143.9453 Q532.3125,146.0391 533,147.1172 Q533.6875,148.1797 535.0313,148.1797 Q535.6563,148.1797 536.25,147.9141 Q536.8438,147.6328 537.4688,147.0547 L537.4688,149.7734 Z " fill="#000000"/><text fill="#000000" font-family="sans-serif" font-size="12" font-style="italic" lengthAdjust="spacing" textLength="89.3848" x="719.9497" y="140.1387">&#171;requirement&#187;</text><text fill="#000000" font-family="sans-serif" font-size="14" lengthAdjust="spacing" textLength="432.2842" x="548.5" y="155.9639">Autonomous safe landing on battery-critical or link-loss event</text></a></g><!--class s_fc_test--><g class="entity" data-qualified-name="s_fc_test" data-source-line="10" id="ent0004"><a href="http://localhost:3000/ui/detail/Verification::FCFaultInjectionTest" target="_top" title="http://localhost:3000/ui/detail/Verification::FCFaultInjectionTest" xlink:actuate="onRequest" xlink:href="http://localhost:3000/ui/detail/Verification::FCFaultInjectionTest" xlink:show="new" xlink:title="http://localhost:3000/ui/detail/Verification::FCFaultInjectionTest" xlink:type="simple"><rect fill="#F9F7FF" height="40.2656" rx="2.5" ry="2.5" style="stroke:#4A0A6E;stroke-width:0.5;" width="457.3389" x="8" y="7"/><ellipse cx="23" cy="27.1328" fill="#ADD1B2" rx="11" ry="11" style="stroke:#181818;stroke-width:1;"/><path d="M25.9688,32.7734 Q25.3906,33.0703 24.75,33.2109 Q24.1094,33.3672 23.4063,33.3672 Q20.9063,33.3672 19.5781,31.7266 Q18.2656,30.0703 18.2656,26.9453 Q18.2656,23.8203 19.5781,22.1641 Q20.9063,20.5078 23.4063,20.5078 Q24.1094,20.5078 24.75,20.6641 Q25.4063,20.8203 25.9688,21.1172 L25.9688,23.8359 Q25.3438,23.2578 24.75,22.9922 Q24.1563,22.7109 23.5313,22.7109 Q22.1875,22.7109 21.5,23.7891 Q20.8125,24.8516 20.8125,26.9453 Q20.8125,29.0391 21.5,30.1172 Q22.1875,31.1797 23.5313,31.1797 Q24.1563,31.1797 24.75,30.9141 Q25.3438,30.6328 25.9688,30.0547 L25.9688,32.7734 Z " fill="#000000"/><text fill="#000000" font-family="sans-serif" font-size="12" font-style="italic" lengthAdjust="spacing" textLength="92.2969" x="203.521" y="23.1387">&#171;test case def&#187;</text><text fill="#000000" font-family="sans-serif" font-size="14" lengthAdjust="spacing" textLength="425.3389" x="37" y="38.9639">FC detects injected sensor failure within 50 ms on HIL bench</text></a></g><!--class s_land_test--><g class="entity" data-qualified-name="s_land_test" data-source-line="11" id="ent0005"><a href="http://localhost:3000/ui/detail/Verification::SafeLandingTest" target="_top" title="http://localhost:3000/ui/detail/Verification::SafeLandingTest" xlink:actuate="onRequest" xlink:href="http://localhost:3000/ui/detail/Verification::SafeLandingTest" xlink:show="new" xlink:title="http://localhost:3000/ui/detail/Verification::SafeLandingTest" xlink:type="simple"><rect fill="#F9F7FF" height="40.2656" rx="2.5" ry="2.5" style="stroke:#4A0A6E;stroke-width:0.5;" width="510.1875" x="500.5" y="7"/><ellipse cx="515.5" cy="27.1328" fill="#ADD1B2" rx="11" ry="11" style="stroke:#181818;stroke-width:1;"/><path d="M518.4688,32.7734 Q517.8906,33.0703 517.25,33.2109 Q516.6094,33.3672 515.9063,33.3672 Q513.4063,33.3672 512.0781,31.7266 Q510.7656,30.0703 510.7656,26.9453 Q510.7656,23.8203 512.0781,22.1641 Q513.4063,20.5078 515.9063,20.5078 Q516.6094,20.5078 517.25,20.6641 Q517.9063,20.8203 518.4688,21.1172 L518.4688,23.8359 Q517.8438,23.2578 517.25,22.9922 Q516.6563,22.7109 516.0313,22.7109 Q514.6875,22.7109 514,23.7891 Q513.3125,24.8516 513.3125,26.9453 Q513.3125,29.0391 514,30.1172 Q514.6875,31.1797 516.0313,31.1797 Q516.6563,31.1797 517.25,30.9141 Q517.8438,30.6328 518.4688,30.0547 L518.4688,32.7734 Z " fill="#000000"/><text fill="#000000" font-family="sans-serif" font-size="12" font-style="italic" lengthAdjust="spacing" textLength="92.2969" x="722.4453" y="23.1387">&#171;test case def&#187;</text><text fill="#000000" font-family="sans-serif" font-size="14" lengthAdjust="spacing" textLength="478.1875" x="529.5" y="38.9639">Autonomous landing descent rate &#8804; 3 m/s on battery-critical trigger</text></a></g><!--class s_fc_hw--><g class="entity" data-qualified-name="s_fc_hw" data-source-line="12" id="ent0006"><a href="http://localhost:3000/ui/detail/UAV::Avionics::FlightController" target="_top" title="http://localhost:3000/ui/detail/UAV::Avionics::FlightController" xlink:actuate="onRequest" xlink:href="http://localhost:3000/ui/detail/UAV::Avionics::FlightController" xlink:show="new" xlink:title="http://localhost:3000/ui/detail/UAV::Avionics::FlightController" xlink:type="simple"><rect fill="#F9F7FF" height="40.2656" rx="2.5" ry="2.5" style="stroke:#4A0A6E;stroke-width:0.5;" width="140.2539" x="171.5" y="241"/><ellipse cx="186.5" cy="261.1328" fill="#ADD1B2" rx="11" ry="11" style="stroke:#181818;stroke-width:1;"/><path d="M189.4688,266.7734 Q188.8906,267.0703 188.25,267.2109 Q187.6094,267.3672 186.9063,267.3672 Q184.4063,267.3672 183.0781,265.7266 Q181.7656,264.0703 181.7656,260.9453 Q181.7656,257.8203 183.0781,256.1641 Q184.4063,254.5078 186.9063,254.5078 Q187.6094,254.5078 188.25,254.6641 Q188.9063,254.8203 189.4688,255.1172 L189.4688,257.8359 Q188.8438,257.2578 188.25,256.9922 Q187.6563,256.7109 187.0313,256.7109 Q185.6875,256.7109 185,257.7891 Q184.3125,258.8516 184.3125,260.9453 Q184.3125,263.0391 185,264.1172 Q185.6875,265.1797 187.0313,265.1797 Q187.6563,265.1797 188.25,264.9141 Q188.8438,264.6328 189.4688,264.0547 L189.4688,266.7734 Z " fill="#000000"/><text fill="#000000" font-family="sans-serif" font-size="12" font-style="italic" lengthAdjust="spacing" textLength="62.4609" x="223.3965" y="257.1387">&#171;part def&#187;</text><text fill="#000000" font-family="sans-serif" font-size="14" lengthAdjust="spacing" textLength="108.2539" x="200.5" y="272.9639">FlightController</text></a></g><!--class s_uav_sys--><g class="entity" data-qualified-name="s_uav_sys" data-source-line="13" id="ent0007"><a href="http://localhost:3000/ui/detail/UAV::UAVSystem" target="_top" title="http://localhost:3000/ui/detail/UAV::UAVSystem" xlink:actuate="onRequest" xlink:href="http://localhost:3000/ui/detail/UAV::UAVSystem" xlink:show="new" xlink:title="http://localhost:3000/ui/detail/UAV::UAVSystem" xlink:type="simple"><rect fill="#F9F7FF" height="40.2656" rx="2.5" ry="2.5" style="stroke:#4A0A6E;stroke-width:0.5;" width="113.6074" x="694.5" y="241"/><ellipse cx="709.5" cy="261.1328" fill="#ADD1B2" rx="11" ry="11" style="stroke:#181818;stroke-width:1;"/><path d="M712.4688,266.7734 Q711.8906,267.0703 711.25,267.2109 Q710.6094,267.3672 709.9063,267.3672 Q707.4063,267.3672 706.0781,265.7266 Q704.7656,264.0703 704.7656,260.9453 Q704.7656,257.8203 706.0781,256.1641 Q707.4063,254.5078 709.9063,254.5078 Q710.6094,254.5078 711.25,254.6641 Q711.9063,254.8203 712.4688,255.1172 L712.4688,257.8359 Q711.8438,257.2578 711.25,256.9922 Q710.6563,256.7109 710.0313,256.7109 Q708.6875,256.7109 708,257.7891 Q707.3125,258.8516 707.3125,260.9453 Q707.3125,263.0391 708,264.1172 Q708.6875,265.1797 710.0313,265.1797 Q710.6563,265.1797 711.25,264.9141 Q711.8438,264.6328 712.4688,264.0547 L712.4688,266.7734 Z " fill="#000000"/><text fill="#000000" font-family="sans-serif" font-size="12" font-style="italic" lengthAdjust="spacing" textLength="62.4609" x="733.0732" y="257.1387">&#171;part def&#187;</text><text fill="#000000" font-family="sans-serif" font-size="14" lengthAdjust="spacing" textLength="81.6074" x="723.5" y="272.9639">UAVSystem</text></a></g><!--link s_fc_req to s_safety_root--><g class="link" data-entity-1="ent0002" data-entity-2="ent0001" data-link-type="dependency" data-source-line="15" id="lnk8"><path codeLine="15" d="M292.21,164.12 C348.7,185.42 434.8115,217.886 491.2515,239.166" fill="none" id="s_fc_req-to-s_safety_root" style="stroke:#181818;stroke-width:1;stroke-dasharray:7,7;"/><polygon fill="#181818" points="495.93,240.93,488.9199,234.012,491.2515,239.166,486.0975,241.4977,495.93,240.93" style="stroke:#181818;stroke-width:1;stroke-linejoin:miter;stroke-miterlimit:10;"/><text fill="#000000" font-family="sans-serif" font-size="13" lengthAdjust="spacing" textLength="82.5894" x="413.5" y="207.0669">derivedFrom</text></g><!--link s_land_req to s_safety_root--><g class="link" data-entity-1="ent0003" data-entity-2="ent0001" data-link-type="dependency" data-source-line="16" id="lnk9"><path codeLine="16" d="M714.61,164.22 C697.73,173.13 677.51,183.95 659.5,194 C631.92,209.39 605.2799,224.9683 582.7499,238.3383" fill="none" id="s_land_req-to-s_safety_root" style="stroke:#181818;stroke-width:1;stroke-dasharray:7,7;"/><polygon fill="#181818" points="578.45,240.89,588.2311,239.7369,582.7499,238.3383,584.1484,232.8571,578.45,240.89" style="stroke:#181818;stroke-width:1;stroke-linejoin:miter;stroke-miterlimit:10;"/><text fill="#000000" font-family="sans-serif" font-size="13" lengthAdjust="spacing" textLength="82.5894" x="660.5" y="207.0669">derivedFrom</text></g><!--link s_fc_test to s_fc_req--><g class="link" data-entity-1="ent0004" data-entity-2="ent0002" data-link-type="dependency" data-source-line="17" id="lnk10"><path codeLine="17" d="M237.34,47.25 C238.26,68.48 239.5237,97.4447 240.4437,118.6947" fill="none" id="s_fc_test-to-s_fc_req" style="stroke:#181818;stroke-width:1;stroke-dasharray:7,7;"/><polygon fill="#181818" points="240.66,123.69,244.267,114.5254,240.4437,118.6947,236.2745,114.8714,240.66,123.69" style="stroke:#181818;stroke-width:1;stroke-linejoin:miter;stroke-miterlimit:10;"/><text fill="#000000" font-family="sans-serif" font-size="13" lengthAdjust="spacing" textLength="47.6074" x="240.5" y="90.0669">verifies</text></g><!--link s_land_test to s_land_req--><g class="link" data-entity-1="ent0005" data-entity-2="ent0003" data-link-type="dependency" data-source-line="18" id="lnk11"><path codeLine="18" d="M754.83,47.25 C754.09,68.48 753.084,97.443 752.344,118.693" fill="none" id="s_land_test-to-s_land_req" style="stroke:#181818;stroke-width:1;stroke-dasharray:7,7;"/><polygon fill="#181818" points="752.17,123.69,756.4808,114.8347,752.344,118.693,748.4856,114.5562,752.17,123.69" style="stroke:#181818;stroke-width:1;stroke-linejoin:miter;stroke-miterlimit:10;"/><text fill="#000000" font-family="sans-serif" font-size="13" lengthAdjust="spacing" textLength="47.6074" x="755.5" y="90.0669">verifies</text></g><!--link s_fc_req to s_fc_hw--><g class="link" data-entity-1="ent0002" data-entity-2="ent0006" data-link-type="dependency" data-source-line="19" id="lnk12"><path codeLine="19" d="M241.5,164.25 C241.5,185.48 241.5,214.44 241.5,235.69" fill="none" id="s_fc_req-to-s_fc_hw" style="stroke:#181818;stroke-width:1;stroke-dasharray:7,7;"/><polygon fill="#181818" points="241.5,240.69,245.5,231.69,241.5,235.69,237.5,231.69,241.5,240.69" style="stroke:#181818;stroke-width:1;stroke-linejoin:miter;stroke-miterlimit:10;"/><text fill="#000000" font-family="sans-serif" font-size="13" lengthAdjust="spacing" textLength="76.7876" x="242.5" y="207.0669">allocated to</text></g><!--link s_land_req to s_uav_sys--><g class="link" data-entity-1="ent0003" data-entity-2="ent0007" data-link-type="dependency" data-source-line="20" id="lnk13"><path codeLine="20" d="M751.5,164.25 C751.5,185.48 751.5,214.44 751.5,235.69" fill="none" id="s_land_req-to-s_uav_sys" style="stroke:#181818;stroke-width:1;stroke-dasharray:7,7;"/><polygon fill="#181818" points="751.5,240.69,755.5,231.69,751.5,235.69,747.5,231.69,751.5,240.69" style="stroke:#181818;stroke-width:1;stroke-linejoin:miter;stroke-miterlimit:10;"/><text fill="#000000" font-family="sans-serif" font-size="13" lengthAdjust="spacing" textLength="76.7876" x="752.5" y="207.0669">allocated to</text></g><?plantuml-src hPJTQjj048NlzHH3Ufr8aBIb8XXSWsaWLqcQcn3CUZMoDbxjEZiZ1rFw07sFFbcVfAC_otP26qAk1BkpvtnxTaQqD6wbWYf1MqK4FoA0hqel5y5NBfjuwmDyoB_ad_Eytl4Xmz2jdgb4VSBePrIO307B5M-Wn7AEWQAeLJkwLZdovWeVwGWK0SseMPW5xndEpmC-LYPWYOuXmtmqWhkxWdcLnh7rMjd24wUdIPB4bOapP6LiV3MSeJGT3ExlUzEfDOk2GNl7mLkB0QXGree3esOWunOMWT2HN2CNpIeWF1akZ8EF2PGzQwvd0hYF-GR4gQeittZXK8wd4zaSKCSLU-TBNucVt0IiSfdWWNSmLymODiSw63PY109hZLiUMoydSItY7MTzw5r8wp0lMu8zokcaoux0k0VvOlQl-6hwRnUNC4UdYo5BHghVlFbeHVZg5x_5O7A9W8rt4kUa2VIY0P6L6z5xCT0-omn9rmqM52Fy-VKRJg6CwSM8EPZ50iDkhkz4lHFjFd3Rh9Djhmvv5K_YAxFv-j7uFhvDq_5Q38sk6-z0UZ2LmkiDCPQTMwNMCzhGc_osMY8VROVcv6HqCEsfo0QpncmQV1djTEt_I_lcQIixXnJMJS98qUvJjJLRyRsgFROsuHJapo3tgrkQ_NEiFfc3khy0?></g></svg>