<svg xmlns="http://www.w3.org/2000/svg" xmlns:xlink="http://www.w3.org/1999/xlink" contentStyleType="text/css" data-diagram-type="CLASS" height="178px" preserveAspectRatio="none" style="width:989px;height:178px;background:#FFFFFF;" version="1.1" viewBox="0 0 989 178" width="989px" zoomAndPan="magnify"><?plantuml 1.2026.6?><defs/><g><!--class s_uavsystem--><g class="entity" data-qualified-name="s_uavsystem" data-source-line="7" id="ent0001"><a href="https://github.com/sjames/syscribe/blob/main/model/UAV/UAVSystem.md" target="_top" title="https://github.com/sjames/syscribe/blob/main/model/UAV/UAVSystem.md" xlink:actuate="onRequest" xlink:href="https://github.com/sjames/syscribe/blob/main/model/UAV/UAVSystem.md" xlink:show="new" xlink:title="https://github.com/sjames/syscribe/blob/main/model/UAV/UAVSystem.md" xlink:type="simple"><rect fill="#F5F5FA" height="40.2656" rx="2.5" ry="2.5" style="stroke:#3A3A4A;stroke-width:0.5;" width="113.6074" x="406.5" y="7"/><ellipse cx="421.5" cy="27.1328" fill="#ADD1B2" rx="11" ry="11" style="stroke:#181818;stroke-width:1;"/><path d="M424.4688,32.7734 Q423.8906,33.0703 423.25,33.2109 Q422.6094,33.3672 421.9063,33.3672 Q419.4063,33.3672 418.0781,31.7266 Q416.7656,30.0703 416.7656,26.9453 Q416.7656,23.8203 418.0781,22.1641 Q419.4063,20.5078 421.9063,20.5078 Q422.6094,20.5078 423.25,20.6641 Q423.9063,20.8203 424.4688,21.1172 L424.4688,23.8359 Q423.8438,23.2578 423.25,22.9922 Q422.6563,22.7109 422.0313,22.7109 Q420.6875,22.7109 420,23.7891 Q419.3125,24.8516 419.3125,26.9453 Q419.3125,29.0391 420,30.1172 Q420.6875,31.1797 422.0313,31.1797 Q422.6563,31.1797 423.25,30.9141 Q423.8438,30.6328 424.4688,30.0547 L424.4688,32.7734 Z " fill="#000000"/><text fill="#000000" font-family="sans-serif" font-size="12" font-style="italic" lengthAdjust="spacing" textLength="62.4609" x="445.0732" y="23.1387">&#171;part def&#187;</text><text fill="#000000" font-family="sans-serif" font-size="14" lengthAdjust="spacing" textLength="81.6074" x="435.5" y="38.9639">UAVSystem</text></a></g><!--class s_airframe--><g class="entity" data-qualified-name="s_airframe" data-source-line="8" id="ent0002"><a href="https://github.com/sjames/syscribe/blob/main/model/UAV/Airframe.md" target="_top" title="https://github.com/sjames/syscribe/blob/main/model/UAV/Airframe.md" xlink:actuate="onRequest" xlink:href="https://github.com/sjames/syscribe/blob/main/model/UAV/Airframe.md" xlink:show="new" xlink:title="https://github.com/sjames/syscribe/blob/main/model/UAV/Airframe.md" xlink:type="simple"><rect fill="#F5F5FA" height="40.2656" rx="2.5" ry="2.5" style="stroke:#3A3A4A;stroke-width:0.5;" width="92.7373" x="7" y="124"/><ellipse cx="22" cy="144.1328" fill="#ADD1B2" rx="11" ry="11" style="stroke:#181818;stroke-width:1;"/><path d="M24.9688,149.7734 Q24.3906,150.0703 23.75,150.2109 Q23.1094,150.3672 22.4063,150.3672 Q19.9063,150.3672 18.5781,148.7266 Q17.2656,147.0703 17.2656,143.9453 Q17.2656,140.8203 18.5781,139.1641 Q19.9063,137.5078 22.4063,137.5078 Q23.1094,137.5078 23.75,137.6641 Q24.4063,137.8203 24.9688,138.1172 L24.9688,140.8359 Q24.3438,140.2578 23.75,139.9922 Q23.1563,139.7109 22.5313,139.7109 Q21.1875,139.7109 20.5,140.7891 Q19.8125,141.8516 19.8125,143.9453 Q19.8125,146.0391 20.5,147.1172 Q21.1875,148.1797 22.5313,148.1797 Q23.1563,148.1797 23.75,147.9141 Q24.3438,147.6328 24.9688,147.0547 L24.9688,149.7734 Z " fill="#000000"/><text fill="#000000" font-family="sans-serif" font-size="12" font-style="italic" lengthAdjust="spacing" textLength="62.4609" x="35.1382" y="140.1387">&#171;part def&#187;</text><text fill="#000000" font-family="sans-serif" font-size="14" lengthAdjust="spacing" textLength="60.7373" x="36" y="155.9639">Airframe</text></a></g><!--class s_propulsion--><g class="entity" data-qualified-name="s_propulsion" data-source-line="9" id="ent0003"><a href="https://github.com/sjames/syscribe/blob/main/model/UAV/Propulsion/PropulsionSystem.md" target="_top" title="https://github.com/sjames/syscribe/blob/main/model/UAV/Propulsion/PropulsionSystem.md" xlink:actuate="onRequest" xlink:href="https://github.com/sjames/syscribe/blob/main/model/UAV/Propulsion/PropulsionSystem.md" xlink:show="new" xlink:title="https://github.com/sjames/syscribe/blob/main/model/UAV/Propulsion/PropulsionSystem.md" xlink:type="simple"><rect fill="#F5F5FA" height="40.2656" rx="2.5" ry="2.5" style="stroke:#3A3A4A;stroke-width:0.5;" width="157.2412" x="135" y="124"/><ellipse cx="150" cy="144.1328" fill="#ADD1B2" rx="11" ry="11" style="stroke:#181818;stroke-width:1;"/><path d="M152.9688,149.7734 Q152.3906,150.0703 151.75,150.2109 Q151.1094,150.3672 150.4063,150.3672 Q147.9063,150.3672 146.5781,148.7266 Q145.2656,147.0703 145.2656,143.9453 Q145.2656,140.8203 146.5781,139.1641 Q147.9063,137.5078 150.4063,137.5078 Q151.1094,137.5078 151.75,137.6641 Q152.4063,137.8203 152.9688,138.1172 L152.9688,140.8359 Q152.3438,140.2578 151.75,139.9922 Q151.1563,139.7109 150.5313,139.7109 Q149.1875,139.7109 148.5,140.7891 Q147.8125,141.8516 147.8125,143.9453 Q147.8125,146.0391 148.5,147.1172 Q149.1875,148.1797 150.5313,148.1797 Q151.1563,148.1797 151.75,147.9141 Q152.3438,147.6328 152.9688,147.0547 L152.9688,149.7734 Z " fill="#000000"/><text fill="#000000" font-family="sans-serif" font-size="12" font-style="italic" lengthAdjust="spacing" textLength="62.4609" x="195.3901" y="140.1387">&#171;part def&#187;</text><text fill="#000000" font-family="sans-serif" font-size="14" lengthAdjust="spacing" textLength="125.2412" x="164" y="155.9639">PropulsionSystem</text></a></g><!--class s_avionics--><g class="entity" data-qualified-name="s_avionics" data-source-line="10" id="ent0004"><a href="https://github.com/sjames/syscribe/blob/main/model/UAV/Avionics/AvionicsBay.md" target="_top" title="https://github.com/sjames/syscribe/blob/main/model/UAV/Avionics/AvionicsBay.md" xlink:actuate="onRequest" xlink:href="https://github.com/sjames/syscribe/blob/main/model/UAV/Avionics/AvionicsBay.md" xlink:show="new" xlink:title="https://github.com/sjames/syscribe/blob/main/model/UAV/Avionics/AvionicsBay.md" xlink:type="simple"><rect fill="#F5F5FA" height="40.2656" rx="2.5" ry="2.5" style="stroke:#3A3A4A;stroke-width:0.5;" width="116.54" x="327" y="124"/><ellipse cx="342" cy="144.1328" fill="#ADD1B2" rx="11" ry="11" style="stroke:#181818;stroke-width:1;"/><path d="M344.9688,149.7734 Q344.3906,150.0703 343.75,150.2109 Q343.1094,150.3672 342.4063,150.3672 Q339.9063,150.3672 338.5781,148.7266 Q337.2656,147.0703 337.2656,143.9453 Q337.2656,140.8203 338.5781,139.1641 Q339.9063,137.5078 342.4063,137.5078 Q343.1094,137.5078 343.75,137.6641 Q344.4063,137.8203 344.9688,138.1172 L344.9688,140.8359 Q344.3438,140.2578 343.75,139.9922 Q343.1563,139.7109 342.5313,139.7109 Q341.1875,139.7109 340.5,140.7891 Q339.8125,141.8516 339.8125,143.9453 Q339.8125,146.0391 340.5,147.1172 Q341.1875,148.1797 342.5313,148.1797 Q343.1563,148.1797 343.75,147.9141 Q344.3438,147.6328 344.9688,147.0547 L344.9688,149.7734 Z " fill="#000000"/><text fill="#000000" font-family="sans-serif" font-size="12" font-style="italic" lengthAdjust="spacing" textLength="62.4609" x="367.0396" y="140.1387">&#171;part def&#187;</text><text fill="#000000" font-family="sans-serif" font-size="14" lengthAdjust="spacing" textLength="84.54" x="356" y="155.9639">AvionicsBay</text></a></g><!--class s_power--><g class="entity" data-qualified-name="s_power" data-source-line="11" id="ent0005"><a href="https://github.com/sjames/syscribe/blob/main/model/UAV/Power/PowerSystem.md" target="_top" title="https://github.com/sjames/syscribe/blob/main/model/UAV/Power/PowerSystem.md" xlink:actuate="onRequest" xlink:href="https://github.com/sjames/syscribe/blob/main/model/UAV/Power/PowerSystem.md" xlink:show="new" xlink:title="https://github.com/sjames/syscribe/blob/main/model/UAV/Power/PowerSystem.md" xlink:type="simple"><rect fill="#F5F5FA" height="40.2656" rx="2.5" ry="2.5" style="stroke:#3A3A4A;stroke-width:0.5;" width="127.0332" x="479" y="124"/><ellipse cx="494" cy="144.1328" fill="#ADD1B2" rx="11" ry="11" style="stroke:#181818;stroke-width:1;"/><path d="M496.9688,149.7734 Q496.3906,150.0703 495.75,150.2109 Q495.1094,150.3672 494.4063,150.3672 Q491.9063,150.3672 490.5781,148.7266 Q489.2656,147.0703 489.2656,143.9453 Q489.2656,140.8203 490.5781,139.1641 Q491.9063,137.5078 494.4063,137.5078 Q495.1094,137.5078 495.75,137.6641 Q496.4063,137.8203 496.9688,138.1172 L496.9688,140.8359 Q496.3438,140.2578 495.75,139.9922 Q495.1563,139.7109 494.5313,139.7109 Q493.1875,139.7109 492.5,140.7891 Q491.8125,141.8516 491.8125,143.9453 Q491.8125,146.0391 492.5,147.1172 Q493.1875,148.1797 494.5313,148.1797 Q495.1563,148.1797 495.75,147.9141 Q496.3438,147.6328 496.9688,147.0547 L496.9688,149.7734 Z " fill="#000000"/><text fill="#000000" font-family="sans-serif" font-size="12" font-style="italic" lengthAdjust="spacing" textLength="62.4609" x="524.2861" y="140.1387">&#171;part def&#187;</text><text fill="#000000" font-family="sans-serif" font-size="14" lengthAdjust="spacing" textLength="95.0332" x="508" y="155.9639">PowerSystem</text></a></g><!--class s_payload--><g class="entity" data-qualified-name="s_payload" data-source-line="12" id="ent0006"><a href="https://github.com/sjames/syscribe/blob/main/model/UAV/Payload/PayloadBay.md" target="_top" title="https://github.com/sjames/syscribe/blob/main/model/UAV/Payload/PayloadBay.md" xlink:actuate="onRequest" xlink:href="https://github.com/sjames/syscribe/blob/main/model/UAV/Payload/PayloadBay.md" xlink:show="new" xlink:title="https://github.com/sjames/syscribe/blob/main/model/UAV/Payload/PayloadBay.md" xlink:type="simple"><rect fill="#F5F5FA" height="40.2656" rx="2.5" ry="2.5" style="stroke:#3A3A4A;stroke-width:0.5;" width="113.6963" x="641.5" y="124"/><ellipse cx="656.5" cy="144.1328" fill="#ADD1B2" rx="11" ry="11" style="stroke:#181818;stroke-width:1;"/><path d="M659.4688,149.7734 Q658.8906,150.0703 658.25,150.2109 Q657.6094,150.3672 656.9063,150.3672 Q654.4063,150.3672 653.0781,148.7266 Q651.7656,147.0703 651.7656,143.9453 Q651.7656,140.8203 653.0781,139.1641 Q654.4063,137.5078 656.9063,137.5078 Q657.6094,137.5078 658.25,137.6641 Q658.9063,137.8203 659.4688,138.1172 L659.4688,140.8359 Q658.8438,140.2578 658.25,139.9922 Q657.6563,139.7109 657.0313,139.7109 Q655.6875,139.7109 655,140.7891 Q654.3125,141.8516 654.3125,143.9453 Q654.3125,146.0391 655,147.1172 Q655.6875,148.1797 657.0313,148.1797 Q657.6563,148.1797 658.25,147.9141 Q658.8438,147.6328 659.4688,147.0547 L659.4688,149.7734 Z " fill="#000000"/><text fill="#000000" font-family="sans-serif" font-size="12" font-style="italic" lengthAdjust="spacing" textLength="62.4609" x="680.1177" y="140.1387">&#171;part def&#187;</text><text fill="#000000" font-family="sans-serif" font-size="14" lengthAdjust="spacing" textLength="81.6963" x="670.5" y="155.9639">PayloadBay</text></a></g><!--class s_gcs--><g class="entity" data-qualified-name="s_gcs" data-source-line="13" id="ent0007"><a href="https://github.com/sjames/syscribe/blob/main/model/GroundStation/GroundControlStation.md" target="_top" title="https://github.com/sjames/syscribe/blob/main/model/GroundStation/GroundControlStation.md" xlink:actuate="onRequest" xlink:href="https://github.com/sjames/syscribe/blob/main/model/GroundStation/GroundControlStation.md" xlink:show="new" xlink:title="https://github.com/sjames/syscribe/blob/main/model/GroundStation/GroundControlStation.md" xlink:type="simple"><rect fill="#F5F5FA" height="40.2656" rx="2.5" ry="2.5" style="stroke:#3A3A4A;stroke-width:0.5;" width="184.4893" x="790.5" y="124"/><ellipse cx="805.5" cy="144.1328" fill="#ADD1B2" rx="11" ry="11" style="stroke:#181818;stroke-width:1;"/><path d="M808.4688,149.7734 Q807.8906,150.0703 807.25,150.2109 Q806.6094,150.3672 805.9063,150.3672 Q803.4063,150.3672 802.0781,148.7266 Q800.7656,147.0703 800.7656,143.9453 Q800.7656,140.8203 802.0781,139.1641 Q803.4063,137.5078 805.9063,137.5078 Q806.6094,137.5078 807.25,137.6641 Q807.9063,137.8203 808.4688,138.1172 L808.4688,140.8359 Q807.8438,140.2578 807.25,139.9922 Q806.6563,139.7109 806.0313,139.7109 Q804.6875,139.7109 804,140.7891 Q803.3125,141.8516 803.3125,143.9453 Q803.3125,146.0391 804,147.1172 Q804.6875,148.1797 806.0313,148.1797 Q806.6563,148.1797 807.25,147.9141 Q807.8438,147.6328 808.4688,147.0547 L808.4688,149.7734 Z " fill="#000000"/><text fill="#000000" font-family="sans-serif" font-size="12" font-style="italic" lengthAdjust="spacing" textLength="62.4609" x="864.5142" y="140.1387">&#171;part def&#187;</text><text fill="#000000" font-family="sans-serif" font-size="14" lengthAdjust="spacing" textLength="152.4893" x="819.5" y="155.9639">GroundControlStation</text></a></g><!--reverse link s_uavsystem to s_airframe--><g class="link" data-entity-1="ent0001" data-entity-2="ent0002" data-link-type="composition" data-source-line="15" id="lnk8"><path codeLine="15" d="M394.3907,41.4812 C350.1807,50.4712 299.43,61.72 245.5,77 C195.31,91.22 138.98,111.06 100.38,125.26" fill="none" id="s_uavsystem-backto-s_airframe" style="stroke:#181818;stroke-width:1;"/><polygon fill="#181818" points="406.15,39.09,399.4733,36.3658,394.3907,41.4812,401.0674,44.2054,406.15,39.09" style="stroke:#181818;stroke-width:1;stroke-linejoin:miter;stroke-miterlimit:10;"/><text fill="#000000" font-family="sans-serif" font-size="13" lengthAdjust="spacing" textLength="55.4722" x="246.5" y="90.0669">airframe</text></g><!--reverse link s_uavsystem to s_propulsion--><g class="link" data-entity-1="ent0001" data-entity-2="ent0003" data-link-type="composition" data-source-line="16" id="lnk9"><path codeLine="16" d="M402.4709,51.4629 C380.4709,60.1629 365.59,66.45 342.5,77 C310.24,91.75 274.38,110.27 248.68,123.94" fill="none" id="s_uavsystem-backto-s_propulsion" style="stroke:#181818;stroke-width:1;"/><polygon fill="#181818" points="413.63,47.05,406.5795,45.5368,402.4709,51.4629,409.5214,52.9762,413.63,47.05" style="stroke:#181818;stroke-width:1;stroke-linejoin:miter;stroke-miterlimit:10;"/><text fill="#000000" font-family="sans-serif" font-size="13" lengthAdjust="spacing" textLength="68.231" x="343.5" y="90.0669">propulsion</text></g><!--reverse link s_uavsystem to s_avionics--><g class="link" data-entity-1="ent0001" data-entity-2="ent0004" data-link-type="composition" data-source-line="17" id="lnk10"><path codeLine="17" d="M443.7071,57.1832 C429.3171,78.4132 413.01,102.44 398.6,123.69" fill="none" id="s_uavsystem-backto-s_avionics" style="stroke:#181818;stroke-width:1;"/><polygon fill="#181818" points="450.44,47.25,443.7625,49.9723,443.7071,57.1832,450.3846,54.4609,450.44,47.25" style="stroke:#181818;stroke-width:1;stroke-linejoin:miter;stroke-miterlimit:10;"/><text fill="#000000" font-family="sans-serif" font-size="13" lengthAdjust="spacing" textLength="52.9966" x="430.5" y="90.0669">avionics</text></g><!--reverse link s_uavsystem to s_power--><g class="link" data-entity-1="ent0001" data-entity-2="ent0005" data-link-type="composition" data-source-line="18" id="lnk11"><path codeLine="18" d="M483.5166,57.1397 C498.1066,78.3697 514.63,102.44 529.23,123.69" fill="none" id="s_uavsystem-backto-s_power" style="stroke:#181818;stroke-width:1;"/><polygon fill="#181818" points="476.72,47.25,476.8217,54.4604,483.5166,57.1397,483.4149,49.9293,476.72,47.25" style="stroke:#181818;stroke-width:1;stroke-linejoin:miter;stroke-miterlimit:10;"/><text fill="#000000" font-family="sans-serif" font-size="13" lengthAdjust="spacing" textLength="40.1807" x="509.5" y="90.0669">power</text></g><!--reverse link s_uavsystem to s_payload--><g class="link" data-entity-1="ent0001" data-entity-2="ent0006" data-link-type="composition" data-source-line="19" id="lnk12"><path codeLine="19" d="M513.3484,52.3951 C556.8084,73.6651 615.84,102.55 659.34,123.84" fill="none" id="s_uavsystem-backto-s_payload" style="stroke:#181818;stroke-width:1;"/><polygon fill="#181818" points="502.57,47.12,506.2008,53.3503,513.3484,52.3951,509.7176,46.1648,502.57,47.12" style="stroke:#181818;stroke-width:1;stroke-linejoin:miter;stroke-miterlimit:10;"/><text fill="#000000" font-family="sans-serif" font-size="13" lengthAdjust="spacing" textLength="51.6953" x="596.5" y="90.0669">payload</text></g><!--link s_uavsystem to s_gcs--><g class="link" data-entity-1="ent0001" data-entity-2="ent0007" data-link-type="dependency" data-source-line="20" id="lnk13"><path codeLine="20" d="M520.64,41.94 C559.13,51.47 610.98,64.58 656.5,77 C711.71,92.06 769.3294,108.958 814.5594,122.478" fill="none" id="s_uavsystem-to-s_gcs" style="stroke:#181818;stroke-width:1;stroke-dasharray:7,7;"/><polygon fill="#181818" points="819.35,123.91,811.8726,117.5,814.5594,122.478,809.5814,125.1649,819.35,123.91" style="stroke:#181818;stroke-width:1;stroke-linejoin:miter;stroke-miterlimit:10;"/><text fill="#000000" font-family="sans-serif" font-size="13" lengthAdjust="spacing" textLength="22.1724" x="713.5" y="90.0669">gcs</text></g><?plantuml-src hPD1QyCW5CVlVef7Tniq7hfTGYcqE-mwADkbbF4IRUggCQZf26FVVQOnJHmvXe3nFH__d--lseieApIe89TeBVmGW1tcbyBekcGlMce33wTd_s6xeWtZ9cHNkC8d9B_aB1W7hYhNWE8guyOIqgajthSV-yOwhXQ05kndZLTxYs6zzbW7Z9ys6pWSpivLDgMq4EvSPqck5RLVgBYblZut8kCqapgZ2aL9bMPSKgzDx_g9OiTZJzqAS_8jyG354Cx4xDKZv9lHLIsjq6NKRtLFpmGVEFG_ChRWwlCYjpjiUXT2PYuNWXmTaM97z3StiHbjPYuVMYqwOiHiRAH6DZHVTOcvu9qQ7J0H_JMydT8PBVSEdJSexAEOnVyE49Jf5AxR3na_kCVbSlmMKkYd4rMZQvl244pfzRVAwuNfbDxjvBrK-vzQ3yVZAxfPL9Cacs1T2duaVm00?></g></svg>