<svg xmlns="http://www.w3.org/2000/svg" xmlns:xlink="http://www.w3.org/1999/xlink" contentStyleType="text/css" data-diagram-type="CLASS" height="158px" preserveAspectRatio="none" style="width:852px;height:158px;background:#FFFFFF;" version="1.1" viewBox="0 0 852 158" width="852px" zoomAndPan="magnify"><?plantuml 1.2026.6?><defs/><g><!--class s_uavsystem--><g class="entity" data-qualified-name="s_uavsystem" data-source-line="4" id="ent0001"><a href="https://github.com/sjames/syscribe/blob/main/model/UAV/UAVSystem.md" target="_top" title="https://github.com/sjames/syscribe/blob/main/model/UAV/UAVSystem.md" xlink:actuate="onRequest" xlink:href="https://github.com/sjames/syscribe/blob/main/model/UAV/UAVSystem.md" xlink:show="new" xlink:title="https://github.com/sjames/syscribe/blob/main/model/UAV/UAVSystem.md" xlink:type="simple"><rect fill="#D4E6F1" height="32.1172" rx="2" ry="2" style="stroke:#154360;stroke-width:1.5;" width="93.2539" x="354" y="7"/><rect fill="#154360" height="32.1172" rx="2" ry="2" style="stroke:#154360;stroke-width:1.5;" width="93.2539" x="354" y="7"/><rect fill="#154360" height="2" style="stroke:#154360;stroke-width:1.5;" width="93.2539" x="354" y="37.1172"/><rect fill="none" height="32.1172" rx="2" ry="2" style="stroke:#154360;stroke-width:1.5;" width="93.2539" x="354" y="7"/><ellipse cx="367" cy="23.0586" fill="#ADD1B2" rx="9" ry="9" style="stroke:#181818;stroke-width:1;"/><path d="M368.3125,26.8242 Q367.9375,27.0273 367.5156,27.1211 Q367.1094,27.2148 366.6406,27.2148 Q365.0313,27.2148 364.1719,26.1523 Q363.3125,25.0742 363.3125,23.0586 Q363.3125,21.0273 364.1719,19.9648 Q365.0313,18.8867 366.6406,18.8867 Q367.1094,18.8867 367.5156,18.9961 Q367.9375,19.0898 368.3125,19.2773 L368.3125,21.043 Q367.8906,20.668 367.5,20.4961 Q367.125,20.3242 366.7188,20.3242 Q365.8594,20.3242 365.4063,21.0117 Q364.9688,21.6992 364.9688,23.0586 Q364.9688,24.418 365.4063,25.1055 Q365.8594,25.793 366.7188,25.793 Q367.125,25.793 367.5,25.6211 Q367.8906,25.4492 368.3125,25.0586 L368.3125,26.8242 Z " fill="#000000"/><text fill="#A8C8E8" font-family="Helvetica Neue, Helvetica, Arial, sans-serif" font-size="9" font-style="italic" lengthAdjust="spacing" textLength="46.8457" x="388.2041" y="20.354">&#171;part def&#187;</text><text fill="#FFFFFF" font-family="'Helvetica Neue, Helvetica, Arial, sans-serif'" font-size="10" font-weight="700" lengthAdjust="spacing" textLength="65.2539" x="379" y="31.7588">UAVSystem</text></a></g><!--class s_airframe--><g class="entity" data-qualified-name="s_airframe" data-source-line="5" id="ent0002"><a href="https://github.com/sjames/syscribe/blob/main/model/UAV/Airframe.md" target="_top" title="https://github.com/sjames/syscribe/blob/main/model/UAV/Airframe.md" xlink:actuate="onRequest" xlink:href="https://github.com/sjames/syscribe/blob/main/model/UAV/Airframe.md" xlink:show="new" xlink:title="https://github.com/sjames/syscribe/blob/main/model/UAV/Airframe.md" xlink:type="simple"><rect fill="#D4E6F1" height="32.1172" rx="2" ry="2" style="stroke:#154360;stroke-width:1.5;" width="77.3311" x="7" y="112"/><rect fill="#154360" height="32.1172" rx="2" ry="2" style="stroke:#154360;stroke-width:1.5;" width="77.3311" x="7" y="112"/><rect fill="#154360" height="2" style="stroke:#154360;stroke-width:1.5;" width="77.3311" x="7" y="142.1172"/><rect fill="none" height="32.1172" rx="2" ry="2" style="stroke:#154360;stroke-width:1.5;" width="77.3311" x="7" y="112"/><ellipse cx="20" cy="128.0586" fill="#ADD1B2" rx="9" ry="9" style="stroke:#181818;stroke-width:1;"/><path d="M21.3125,131.8242 Q20.9375,132.0273 20.5156,132.1211 Q20.1094,132.2148 19.6406,132.2148 Q18.0313,132.2148 17.1719,131.1523 Q16.3125,130.0742 16.3125,128.0586 Q16.3125,126.0273 17.1719,124.9648 Q18.0313,123.8867 19.6406,123.8867 Q20.1094,123.8867 20.5156,123.9961 Q20.9375,124.0898 21.3125,124.2773 L21.3125,126.043 Q20.8906,125.668 20.5,125.4961 Q20.125,125.3242 19.7188,125.3242 Q18.8594,125.3242 18.4063,126.0117 Q17.9688,126.6992 17.9688,128.0586 Q17.9688,129.418 18.4063,130.1055 Q18.8594,130.793 19.7188,130.793 Q20.125,130.793 20.5,130.6211 Q20.8906,130.4492 21.3125,130.0586 L21.3125,131.8242 Z " fill="#000000"/><text fill="#A8C8E8" font-family="Helvetica Neue, Helvetica, Arial, sans-serif" font-size="9" font-style="italic" lengthAdjust="spacing" textLength="46.8457" x="33.2427" y="125.354">&#171;part def&#187;</text><text fill="#FFFFFF" font-family="'Helvetica Neue, Helvetica, Arial, sans-serif'" font-size="10" font-weight="700" lengthAdjust="spacing" textLength="49.3311" x="32" y="136.7588">Airframe</text></a></g><!--class s_propulsion--><g class="entity" data-qualified-name="s_propulsion" data-source-line="6" id="ent0003"><a href="https://github.com/sjames/syscribe/blob/main/model/UAV/Propulsion/PropulsionSystem.md" target="_top" title="https://github.com/sjames/syscribe/blob/main/model/UAV/Propulsion/PropulsionSystem.md" xlink:actuate="onRequest" xlink:href="https://github.com/sjames/syscribe/blob/main/model/UAV/Propulsion/PropulsionSystem.md" xlink:show="new" xlink:title="https://github.com/sjames/syscribe/blob/main/model/UAV/Propulsion/PropulsionSystem.md" xlink:type="simple"><rect fill="#D4E6F1" height="32.1172" rx="2" ry="2" style="stroke:#154360;stroke-width:1.5;" width="129.8604" x="119.5" y="112"/><rect fill="#154360" height="32.1172" rx="2" ry="2" style="stroke:#154360;stroke-width:1.5;" width="129.8604" x="119.5" y="112"/><rect fill="#154360" height="2" style="stroke:#154360;stroke-width:1.5;" width="129.8604" x="119.5" y="142.1172"/><rect fill="none" height="32.1172" rx="2" ry="2" style="stroke:#154360;stroke-width:1.5;" width="129.8604" x="119.5" y="112"/><ellipse cx="132.5" cy="128.0586" fill="#ADD1B2" rx="9" ry="9" style="stroke:#181818;stroke-width:1;"/><path d="M133.8125,131.8242 Q133.4375,132.0273 133.0156,132.1211 Q132.6094,132.2148 132.1406,132.2148 Q130.5313,132.2148 129.6719,131.1523 Q128.8125,130.0742 128.8125,128.0586 Q128.8125,126.0273 129.6719,124.9648 Q130.5313,123.8867 132.1406,123.8867 Q132.6094,123.8867 133.0156,123.9961 Q133.4375,124.0898 133.8125,124.2773 L133.8125,126.043 Q133.3906,125.668 133,125.4961 Q132.625,125.3242 132.2188,125.3242 Q131.3594,125.3242 130.9063,126.0117 Q130.4688,126.6992 130.4688,128.0586 Q130.4688,129.418 130.9063,130.1055 Q131.3594,130.793 132.2188,130.793 Q132.625,130.793 133,130.6211 Q133.3906,130.4492 133.8125,130.0586 L133.8125,131.8242 Z " fill="#000000"/><text fill="#A8C8E8" font-family="Helvetica Neue, Helvetica, Arial, sans-serif" font-size="9" font-style="italic" lengthAdjust="spacing" textLength="46.8457" x="172.0073" y="125.354">&#171;part def&#187;</text><text fill="#FFFFFF" font-family="'Helvetica Neue, Helvetica, Arial, sans-serif'" font-size="10" font-weight="700" lengthAdjust="spacing" textLength="101.8604" x="144.5" y="136.7588">PropulsionSystem</text></a></g><!--class s_avionics--><g class="entity" data-qualified-name="s_avionics" data-source-line="7" id="ent0004"><a href="https://github.com/sjames/syscribe/blob/main/model/UAV/Avionics/AvionicsBay.md" target="_top" title="https://github.com/sjames/syscribe/blob/main/model/UAV/Avionics/AvionicsBay.md" xlink:actuate="onRequest" xlink:href="https://github.com/sjames/syscribe/blob/main/model/UAV/Avionics/AvionicsBay.md" xlink:show="new" xlink:title="https://github.com/sjames/syscribe/blob/main/model/UAV/Avionics/AvionicsBay.md" xlink:type="simple"><rect fill="#D4E6F1" height="32.1172" rx="2" ry="2" style="stroke:#154360;stroke-width:1.5;" width="95.8711" x="284.5" y="112"/><rect fill="#154360" height="32.1172" rx="2" ry="2" style="stroke:#154360;stroke-width:1.5;" width="95.8711" x="284.5" y="112"/><rect fill="#154360" height="2" style="stroke:#154360;stroke-width:1.5;" width="95.8711" x="284.5" y="142.1172"/><rect fill="none" height="32.1172" rx="2" ry="2" style="stroke:#154360;stroke-width:1.5;" width="95.8711" x="284.5" y="112"/><ellipse cx="297.5" cy="128.0586" fill="#ADD1B2" rx="9" ry="9" style="stroke:#181818;stroke-width:1;"/><path d="M298.8125,131.8242 Q298.4375,132.0273 298.0156,132.1211 Q297.6094,132.2148 297.1406,132.2148 Q295.5313,132.2148 294.6719,131.1523 Q293.8125,130.0742 293.8125,128.0586 Q293.8125,126.0273 294.6719,124.9648 Q295.5313,123.8867 297.1406,123.8867 Q297.6094,123.8867 298.0156,123.9961 Q298.4375,124.0898 298.8125,124.2773 L298.8125,126.043 Q298.3906,125.668 298,125.4961 Q297.625,125.3242 297.2188,125.3242 Q296.3594,125.3242 295.9063,126.0117 Q295.4688,126.6992 295.4688,128.0586 Q295.4688,129.418 295.9063,130.1055 Q296.3594,130.793 297.2188,130.793 Q297.625,130.793 298,130.6211 Q298.3906,130.4492 298.8125,130.0586 L298.8125,131.8242 Z " fill="#000000"/><text fill="#A8C8E8" font-family="Helvetica Neue, Helvetica, Arial, sans-serif" font-size="9" font-style="italic" lengthAdjust="spacing" textLength="46.8457" x="320.0127" y="125.354">&#171;part def&#187;</text><text fill="#FFFFFF" font-family="'Helvetica Neue, Helvetica, Arial, sans-serif'" font-size="10" font-weight="700" lengthAdjust="spacing" textLength="67.8711" x="309.5" y="136.7588">AvionicsBay</text></a></g><!--class s_power--><g class="entity" data-qualified-name="s_power" data-source-line="8" id="ent0005"><a href="https://github.com/sjames/syscribe/blob/main/model/UAV/Power/PowerSystem.md" target="_top" title="https://github.com/sjames/syscribe/blob/main/model/UAV/Power/PowerSystem.md" xlink:actuate="onRequest" xlink:href="https://github.com/sjames/syscribe/blob/main/model/UAV/Power/PowerSystem.md" xlink:show="new" xlink:title="https://github.com/sjames/syscribe/blob/main/model/UAV/Power/PowerSystem.md" xlink:type="simple"><rect fill="#D4E6F1" height="32.1172" rx="2" ry="2" style="stroke:#154360;stroke-width:1.5;" width="104.8066" x="416" y="112"/><rect fill="#154360" height="32.1172" rx="2" ry="2" style="stroke:#154360;stroke-width:1.5;" width="104.8066" x="416" y="112"/><rect fill="#154360" height="2" style="stroke:#154360;stroke-width:1.5;" width="104.8066" x="416" y="142.1172"/><rect fill="none" height="32.1172" rx="2" ry="2" style="stroke:#154360;stroke-width:1.5;" width="104.8066" x="416" y="112"/><ellipse cx="429" cy="128.0586" fill="#ADD1B2" rx="9" ry="9" style="stroke:#181818;stroke-width:1;"/><path d="M430.3125,131.8242 Q429.9375,132.0273 429.5156,132.1211 Q429.1094,132.2148 428.6406,132.2148 Q427.0313,132.2148 426.1719,131.1523 Q425.3125,130.0742 425.3125,128.0586 Q425.3125,126.0273 426.1719,124.9648 Q427.0313,123.8867 428.6406,123.8867 Q429.1094,123.8867 429.5156,123.9961 Q429.9375,124.0898 430.3125,124.2773 L430.3125,126.043 Q429.8906,125.668 429.5,125.4961 Q429.125,125.3242 428.7188,125.3242 Q427.8594,125.3242 427.4063,126.0117 Q426.9688,126.6992 426.9688,128.0586 Q426.9688,129.418 427.4063,130.1055 Q427.8594,130.793 428.7188,130.793 Q429.125,130.793 429.5,130.6211 Q429.8906,130.4492 430.3125,130.0586 L430.3125,131.8242 Z " fill="#000000"/><text fill="#A8C8E8" font-family="Helvetica Neue, Helvetica, Arial, sans-serif" font-size="9" font-style="italic" lengthAdjust="spacing" textLength="46.8457" x="455.9805" y="125.354">&#171;part def&#187;</text><text fill="#FFFFFF" font-family="'Helvetica Neue, Helvetica, Arial, sans-serif'" font-size="10" font-weight="700" lengthAdjust="spacing" textLength="76.8066" x="441" y="136.7588">PowerSystem</text></a></g><!--class s_payload--><g class="entity" data-qualified-name="s_payload" data-source-line="9" id="ent0006"><a href="https://github.com/sjames/syscribe/blob/main/model/UAV/Payload/PayloadBay.md" target="_top" title="https://github.com/sjames/syscribe/blob/main/model/UAV/Payload/PayloadBay.md" xlink:actuate="onRequest" xlink:href="https://github.com/sjames/syscribe/blob/main/model/UAV/Payload/PayloadBay.md" xlink:show="new" xlink:title="https://github.com/sjames/syscribe/blob/main/model/UAV/Payload/PayloadBay.md" xlink:type="simple"><rect fill="#D4E6F1" height="32.1172" rx="2" ry="2" style="stroke:#154360;stroke-width:1.5;" width="93.6885" x="556.5" y="112"/><rect fill="#154360" height="32.1172" rx="2" ry="2" style="stroke:#154360;stroke-width:1.5;" width="93.6885" x="556.5" y="112"/><rect fill="#154360" height="2" style="stroke:#154360;stroke-width:1.5;" width="93.6885" x="556.5" y="142.1172"/><rect fill="none" height="32.1172" rx="2" ry="2" style="stroke:#154360;stroke-width:1.5;" width="93.6885" x="556.5" y="112"/><ellipse cx="569.5" cy="128.0586" fill="#ADD1B2" rx="9" ry="9" style="stroke:#181818;stroke-width:1;"/><path d="M570.8125,131.8242 Q570.4375,132.0273 570.0156,132.1211 Q569.6094,132.2148 569.1406,132.2148 Q567.5313,132.2148 566.6719,131.1523 Q565.8125,130.0742 565.8125,128.0586 Q565.8125,126.0273 566.6719,124.9648 Q567.5313,123.8867 569.1406,123.8867 Q569.6094,123.8867 570.0156,123.9961 Q570.4375,124.0898 570.8125,124.2773 L570.8125,126.043 Q570.3906,125.668 570,125.4961 Q569.625,125.3242 569.2188,125.3242 Q568.3594,125.3242 567.9063,126.0117 Q567.4688,126.6992 567.4688,128.0586 Q567.4688,129.418 567.9063,130.1055 Q568.3594,130.793 569.2188,130.793 Q569.625,130.793 570,130.6211 Q570.3906,130.4492 570.8125,130.0586 L570.8125,131.8242 Z " fill="#000000"/><text fill="#A8C8E8" font-family="Helvetica Neue, Helvetica, Arial, sans-serif" font-size="9" font-style="italic" lengthAdjust="spacing" textLength="46.8457" x="590.9214" y="125.354">&#171;part def&#187;</text><text fill="#FFFFFF" font-family="'Helvetica Neue, Helvetica, Arial, sans-serif'" font-size="10" font-weight="700" lengthAdjust="spacing" textLength="65.6885" x="581.5" y="136.7588">PayloadBay</text></a></g><!--class s_gcs--><g class="entity" data-qualified-name="s_gcs" data-source-line="10" id="ent0007"><a href="https://github.com/sjames/syscribe/blob/main/model/GroundStation/GroundControlStation.md" target="_top" title="https://github.com/sjames/syscribe/blob/main/model/GroundStation/GroundControlStation.md" xlink:actuate="onRequest" xlink:href="https://github.com/sjames/syscribe/blob/main/model/GroundStation/GroundControlStation.md" xlink:show="new" xlink:title="https://github.com/sjames/syscribe/blob/main/model/GroundStation/GroundControlStation.md" xlink:type="simple"><rect fill="#D4E6F1" height="32.1172" rx="2" ry="2" style="stroke:#154360;stroke-width:1.5;" width="151.6719" x="685.5" y="112"/><rect fill="#154360" height="32.1172" rx="2" ry="2" style="stroke:#154360;stroke-width:1.5;" width="151.6719" x="685.5" y="112"/><rect fill="#154360" height="2" style="stroke:#154360;stroke-width:1.5;" width="151.6719" x="685.5" y="142.1172"/><rect fill="none" height="32.1172" rx="2" ry="2" style="stroke:#154360;stroke-width:1.5;" width="151.6719" x="685.5" y="112"/><ellipse cx="698.5" cy="128.0586" fill="#ADD1B2" rx="9" ry="9" style="stroke:#181818;stroke-width:1;"/><path d="M699.8125,131.8242 Q699.4375,132.0273 699.0156,132.1211 Q698.6094,132.2148 698.1406,132.2148 Q696.5313,132.2148 695.6719,131.1523 Q694.8125,130.0742 694.8125,128.0586 Q694.8125,126.0273 695.6719,124.9648 Q696.5313,123.8867 698.1406,123.8867 Q698.6094,123.8867 699.0156,123.9961 Q699.4375,124.0898 699.8125,124.2773 L699.8125,126.043 Q699.3906,125.668 699,125.4961 Q698.625,125.3242 698.2188,125.3242 Q697.3594,125.3242 696.9063,126.0117 Q696.4688,126.6992 696.4688,128.0586 Q696.4688,129.418 696.9063,130.1055 Q697.3594,130.793 698.2188,130.793 Q698.625,130.793 699,130.6211 Q699.3906,130.4492 699.8125,130.0586 L699.8125,131.8242 Z " fill="#000000"/><text fill="#A8C8E8" font-family="Helvetica Neue, Helvetica, Arial, sans-serif" font-size="9" font-style="italic" lengthAdjust="spacing" textLength="46.8457" x="748.9131" y="125.354">&#171;part def&#187;</text><text fill="#FFFFFF" font-family="'Helvetica Neue, Helvetica, Arial, sans-serif'" font-size="10" font-weight="700" lengthAdjust="spacing" textLength="123.6719" x="710.5" y="136.7588">GroundControlStation</text></a></g><!--reverse link s_uavsystem to s_airframe--><g class="link" data-entity-1="ent0001" data-entity-2="ent0002" data-link-type="composition" data-source-line="12" id="lnk8"><path codeLine="12" d="M342.0247,37.8245 C306.2147,46.4645 267.35,56.3 223.5,69 C175.11,83.02 120.07,101.32 84.16,113.59" fill="none" id="s_uavsystem-backto-s_airframe" style="stroke:#1F497D;stroke-width:1.5;"/><polygon fill="#1F497D" points="353.69,35.01,346.9192,32.5288,342.0247,37.8245,348.7955,40.3057,353.69,35.01" style="stroke:#1F497D;stroke-width:1.5;stroke-linejoin:miter;stroke-miterlimit:10;"/><text fill="#2C3E50" font-family="'Helvetica Neue, Helvetica, Arial, sans-serif'" font-size="10" lengthAdjust="spacing" textLength="42.6709" x="224.5" y="79.2822">airframe</text></g><!--reverse link s_uavsystem to s_propulsion--><g class="link" data-entity-1="ent0001" data-entity-2="ent0003" data-link-type="composition" data-source-line="13" id="lnk9"><path codeLine="13" d="M355.1191,43.9321 C335.7591,52.5121 322.17,58.71 300.5,69 C270.8,83.1 237.25,99.98 213.9,111.89" fill="none" id="s_uavsystem-backto-s_propulsion" style="stroke:#1F497D;stroke-width:1.5;"/><polygon fill="#1F497D" points="366.09,39.07,358.9839,37.8441,355.1191,43.9321,362.2253,45.158,366.09,39.07" style="stroke:#1F497D;stroke-width:1.5;stroke-linejoin:miter;stroke-miterlimit:10;"/><text fill="#2C3E50" font-family="'Helvetica Neue, Helvetica, Arial, sans-serif'" font-size="10" lengthAdjust="spacing" textLength="52.4854" x="301.5" y="79.2822">propulsion</text></g><!--reverse link s_uavsystem to s_avionics--><g class="link" data-entity-1="ent0001" data-entity-2="ent0004" data-link-type="composition" data-source-line="14" id="lnk10"><path codeLine="14" d="M383.8564,49.213 C370.9964,68.683 355.45,92.24 342.57,111.74" fill="none" id="s_uavsystem-backto-s_avionics" style="stroke:#1F497D;stroke-width:1.5;"/><polygon fill="#1F497D" points="390.47,39.2,383.8255,42.002,383.8564,49.213,390.5009,46.411,390.47,39.2" style="stroke:#1F497D;stroke-width:1.5;stroke-linejoin:miter;stroke-miterlimit:10;"/><text fill="#2C3E50" font-family="'Helvetica Neue, Helvetica, Arial, sans-serif'" font-size="10" lengthAdjust="spacing" textLength="40.7666" x="372.5" y="79.2822">avionics</text></g><!--reverse link s_uavsystem to s_power--><g class="link" data-entity-1="ent0001" data-entity-2="ent0005" data-link-type="composition" data-source-line="15" id="lnk11"><path codeLine="15" d="M417.1436,49.213 C430.0036,68.683 445.55,92.24 458.43,111.74" fill="none" id="s_uavsystem-backto-s_power" style="stroke:#1F497D;stroke-width:1.5;"/><polygon fill="#1F497D" points="410.53,39.2,410.4991,46.411,417.1436,49.213,417.1745,42.002,410.53,39.2" style="stroke:#1F497D;stroke-width:1.5;stroke-linejoin:miter;stroke-miterlimit:10;"/><text fill="#2C3E50" font-family="'Helvetica Neue, Helvetica, Arial, sans-serif'" font-size="10" lengthAdjust="spacing" textLength="30.9082" x="440.5" y="79.2822">power</text></g><!--reverse link s_uavsystem to s_payload--><g class="link" data-entity-1="ent0001" data-entity-2="ent0006" data-link-type="composition" data-source-line="16" id="lnk12"><path codeLine="16" d="M441.1512,44.6299 C479.6412,64.1599 535.36,92.43 573.75,111.91" fill="none" id="s_uavsystem-backto-s_payload" style="stroke:#1F497D;stroke-width:1.5;"/><polygon fill="#1F497D" points="430.45,39.2,433.9907,45.482,441.1512,44.6299,437.6106,38.3478,430.45,39.2" style="stroke:#1F497D;stroke-width:1.5;stroke-linejoin:miter;stroke-miterlimit:10;"/><text fill="#2C3E50" font-family="'Helvetica Neue, Helvetica, Arial, sans-serif'" font-size="10" lengthAdjust="spacing" textLength="39.7656" x="515.5" y="79.2822">payload</text></g><!--link s_uavsystem to s_gcs--><g class="link" data-entity-1="ent0001" data-entity-2="ent0007" data-link-type="dependency" data-source-line="17" id="lnk13"><path codeLine="17" d="M447.28,36.71 C479.89,45.62 524.39,57.87 563.5,69 C613.63,83.26 665.9457,98.6307 705.9057,110.4607" fill="none" id="s_uavsystem-to-s_gcs" style="stroke:#1F497D;stroke-width:1.5;stroke-dasharray:7,7;"/><polygon fill="#1F497D" points="710.7,111.88,703.2057,105.4897,705.9057,110.4607,700.9348,113.1606,710.7,111.88" style="stroke:#1F497D;stroke-width:1.5;stroke-linejoin:miter;stroke-miterlimit:10;"/><text fill="#2C3E50" font-family="'Helvetica Neue, Helvetica, Arial, sans-serif'" font-size="10" lengthAdjust="spacing" textLength="17.0557" x="608.5" y="79.2822">gcs</text></g><?plantuml-src hPDBRuGW58Nt_WewooRZtPk9oRIBRfjCsiraqg0ooeHNk3YD_xwe-A1nwKOkHpWV7E25grAq5IFGQCa07rGo12DeLrlTgWgmmzBoWa7gHULQANf9YfJxCccudygaSHsHJ1RCOfAKWYAImzVv-zAXO_90A1ByQUaJXpuvdGorZbJidkVaUcsSCvW1rDmrRP6MMaxBcDc5q0L8oXL8NJ41tXjc_rHMjzj4FNDxjtvoWDBGtOavkKV8JwjDAv1h5UtNpF9Ey8K3_v5n14-lynBVQ3Ub49IzKWXsi2B5YUXVPkCmUcMl77elM35YDks4fjMoUJCAUy57DrWm4VrZU3JlMZchnSLHvmCAwwXtoNy416VOmethITOFxlLuNB-5Z4pbngZLjSt8qjdocswLzmlbbjzmyjwgRxV-X-Fn8yOg6fEcUOWk8_wR_040?></g></svg>