<svg xmlns="http://www.w3.org/2000/svg" xmlns:xlink="http://www.w3.org/1999/xlink" contentStyleType="text/css" data-diagram-type="STATE" height="675px" preserveAspectRatio="none" style="width:560px;height:675px;background:#FFFFFF;" version="1.1" viewBox="0 0 560 675" width="560px" zoomAndPan="magnify"><?plantuml 1.2026.6?><defs/><g><g class="entity" data-qualified-name="s_idle" data-source-line="6" id="ent0001"><a href="https://github.com/sjames/syscribe/blob/main/model_auto/System/EngineControlSoftware.md" target="_top" title="https://github.com/sjames/syscribe/blob/main/model_auto/System/EngineControlSoftware.md" xlink:actuate="onRequest" xlink:href="https://github.com/sjames/syscribe/blob/main/model_auto/System/EngineControlSoftware.md" xlink:show="new" xlink:title="https://github.com/sjames/syscribe/blob/main/model_auto/System/EngineControlSoftware.md" xlink:type="simple"><rect fill="#F5F5FA" height="50" rx="12.5" ry="12.5" style="stroke:#3A3A4A;stroke-width:0.5;" width="50" x="208.1" y="103"/><line style="stroke:#3A3A4A;stroke-width:0.5;" x1="208.1" x2="258.1" y1="129.2969" y2="129.2969"/><text fill="#000000" font-family="sans-serif" font-size="14" lengthAdjust="spacing" textLength="25.5186" x="220.3407" y="120.9951">Idle</text></a></g><g class="entity" data-qualified-name="s_crank" data-source-line="7" id="ent0002"><a href="https://github.com/sjames/syscribe/blob/main/model_auto/System/EngineControlSoftware.md" target="_top" title="https://github.com/sjames/syscribe/blob/main/model_auto/System/EngineControlSoftware.md" xlink:actuate="onRequest" xlink:href="https://github.com/sjames/syscribe/blob/main/model_auto/System/EngineControlSoftware.md" xlink:show="new" xlink:title="https://github.com/sjames/syscribe/blob/main/model_auto/System/EngineControlSoftware.md" xlink:type="simple"><rect fill="#F5F5FA" height="50" rx="12.5" ry="12.5" style="stroke:#3A3A4A;stroke-width:0.5;" width="82.7402" x="99.6" y="230"/><line style="stroke:#3A3A4A;stroke-width:0.5;" x1="99.6" x2="182.3402" y1="256.2969" y2="256.2969"/><text fill="#000000" font-family="sans-serif" font-size="14" lengthAdjust="spacing" textLength="62.7402" x="109.6" y="247.9951">Cranking</text></a></g><g class="entity" data-qualified-name="s_run" data-source-line="8" id="ent0003"><a href="https://github.com/sjames/syscribe/blob/main/model_auto/System/EngineControlSoftware.md" target="_top" title="https://github.com/sjames/syscribe/blob/main/model_auto/System/EngineControlSoftware.md" xlink:actuate="onRequest" xlink:href="https://github.com/sjames/syscribe/blob/main/model_auto/System/EngineControlSoftware.md" xlink:show="new" xlink:title="https://github.com/sjames/syscribe/blob/main/model_auto/System/EngineControlSoftware.md" xlink:type="simple"><rect fill="#F5F5FA" height="50" rx="12.5" ry="12.5" style="stroke:#3A3A4A;stroke-width:0.5;" width="77.9961" x="196.1" y="357"/><line style="stroke:#3A3A4A;stroke-width:0.5;" x1="196.1" x2="274.0961" y1="383.2969" y2="383.2969"/><text fill="#000000" font-family="sans-serif" font-size="14" lengthAdjust="spacing" textLength="57.9961" x="206.1" y="374.9951">Running</text></a></g><g class="entity" data-qualified-name="s_fault" data-source-line="9" id="ent0004"><a href="https://github.com/sjames/syscribe/blob/main/model_auto/System/EngineControlSoftware.md" target="_top" title="https://github.com/sjames/syscribe/blob/main/model_auto/System/EngineControlSoftware.md" xlink:actuate="onRequest" xlink:href="https://github.com/sjames/syscribe/blob/main/model_auto/System/EngineControlSoftware.md" xlink:show="new" xlink:title="https://github.com/sjames/syscribe/blob/main/model_auto/System/EngineControlSoftware.md" xlink:type="simple"><rect fill="#F5F5FA" height="50" rx="12.5" ry="12.5" style="stroke:#3A3A4A;stroke-width:0.5;" width="119.0664" x="190.6" y="484"/><line style="stroke:#3A3A4A;stroke-width:0.5;" x1="190.6" x2="309.6664" y1="510.2969" y2="510.2969"/><text fill="#000000" font-family="sans-serif" font-size="14" lengthAdjust="spacing" textLength="99.0664" x="200.6" y="501.9951">FaultDetected</text></a></g><g class="entity" data-qualified-name="s_stop" data-source-line="10" id="ent0005"><a href="https://github.com/sjames/syscribe/blob/main/model_auto/System/EngineControlSoftware.md" target="_top" title="https://github.com/sjames/syscribe/blob/main/model_auto/System/EngineControlSoftware.md" xlink:actuate="onRequest" xlink:href="https://github.com/sjames/syscribe/blob/main/model_auto/System/EngineControlSoftware.md" xlink:show="new" xlink:title="https://github.com/sjames/syscribe/blob/main/model_auto/System/EngineControlSoftware.md" xlink:type="simple"><rect fill="#F5F5FA" height="50" rx="12.5" ry="12.5" style="stroke:#3A3A4A;stroke-width:0.5;" width="82.8359" x="314.6" y="611"/><line style="stroke:#3A3A4A;stroke-width:0.5;" x1="314.6" x2="397.4359" y1="637.2969" y2="637.2969"/><text fill="#000000" font-family="sans-serif" font-size="14" lengthAdjust="spacing" textLength="62.8359" x="324.6" y="628.9951">SafeStop</text></a></g><g class="start_entity" data-qualified-name=".start." data-source-line="12" id="ent0006"><ellipse cx="233.1" cy="16" fill="#222222" rx="10" ry="10" style="stroke:#222222;stroke-width:1;"/></g><!--link *start* to s_idle--><g class="link" data-entity-1="ent0006" data-entity-2="ent0001" data-link-type="dependency" data-source-line="12" id="lnk7"><path d="M233.1,26 C233.1,42.63 233.1,73.66 233.1,97.87" fill="none" id="*start*-to-s_idle" style="stroke:#181818;stroke-width:1;"/><polygon fill="#181818" points="233.1,102.87,237.1,93.87,233.1,97.87,229.1,93.87,233.1,102.87" style="stroke:#181818;stroke-width:1;stroke-linejoin:miter;stroke-miterlimit:10;"/><text fill="#000000" font-family="sans-serif" font-size="13" lengthAdjust="spacing" textLength="20.5601" x="234.1" y="69.0669">init</text></g><!--link s_idle to s_crank--><g class="link" data-entity-1="ent0001" data-entity-2="ent0002" data-link-type="dependency" data-source-line="13" id="lnk8"><path d="M207.97,131.87 C158.4,138.09 50.95,154.62 29.1,183 C6,213.01 54.003,232.4661 94.723,243.4661" fill="none" id="s_idle-to-s_crank" style="stroke:#181818;stroke-width:1;"/><polygon fill="#181818" points="99.55,244.77,91.9046,238.5613,94.723,243.4661,89.8183,246.2845,99.55,244.77" style="stroke:#181818;stroke-width:1;stroke-linejoin:miter;stroke-miterlimit:10;"/><text fill="#000000" font-family="sans-serif" font-size="13" lengthAdjust="spacing" textLength="67.0884" x="30.1" y="196.0669">ignitionOn</text></g><!--link s_crank to s_idle--><g class="link" data-entity-1="ent0002" data-entity-2="ent0001" data-link-type="dependency" data-source-line="15" id="lnk10"><path d="M133.84,229.74 C130.95,215.23 129.97,196.97 138.1,183 C152.99,157.42 180.2548,144.5053 202.9948,137.1153" fill="none" id="s_crank-to-s_idle" style="stroke:#181818;stroke-width:1;"/><polygon fill="#181818" points="207.75,135.57,197.9544,134.5474,202.9948,137.1153,200.4269,142.1558,207.75,135.57" style="stroke:#181818;stroke-width:1;stroke-linejoin:miter;stroke-miterlimit:10;"/><text fill="#000000" font-family="sans-serif" font-size="13" lengthAdjust="spacing" textLength="159.7832" x="139.1" y="196.0669">timeout / cranking failed</text></g><!--link s_crank to s_run--><g class="link" data-entity-1="ent0002" data-entity-2="ent0003" data-link-type="dependency" data-source-line="14" id="lnk9"><path d="M146.02,280.31 C149.81,294.83 156.12,313.09 166.1,327 C174.26,338.37 181.4896,345.514 192.4996,353.884" fill="none" id="s_crank-to-s_run" style="stroke:#181818;stroke-width:1;"/><polygon fill="#181818" points="196.48,356.91,191.7361,348.2789,192.4996,353.884,186.8945,354.6476,196.48,356.91" style="stroke:#181818;stroke-width:1;stroke-linejoin:miter;stroke-miterlimit:10;"/><text fill="#000000" font-family="sans-serif" font-size="13" lengthAdjust="spacing" textLength="131.4028" x="167.1" y="323.0669">rpmAboveThreshold</text></g><!--link s_run to s_fault--><g class="link" data-entity-1="ent0003" data-entity-2="ent0004" data-link-type="dependency" data-source-line="16" id="lnk11"><path d="M231.67,407.13 C230.31,420.94 229.59,438.53 232.1,454 C233.73,464.05 235.278,470.0414 238.568,479.2514" fill="none" id="s_run-to-s_fault" style="stroke:#181818;stroke-width:1;"/><polygon fill="#181818" points="240.25,483.96,240.9893,474.1389,238.568,479.2514,233.4555,476.8301,240.25,483.96" style="stroke:#181818;stroke-width:1;stroke-linejoin:miter;stroke-miterlimit:10;"/><text fill="#000000" font-family="sans-serif" font-size="13" lengthAdjust="spacing" textLength="188.7349" x="233.1" y="450.0669">safetyFaultDetected [ASIL D]</text></g><!--link s_run to s_idle--><g class="link" data-entity-1="ent0003" data-entity-2="ent0001" data-link-type="dependency" data-source-line="17" id="lnk12"><path d="M274.21,359.36 C285.67,350.88 296.81,340.03 303.1,327 C330.93,269.37 331.33,240.44 303.1,183 C293.83,164.13 278.7817,152.4523 262.7517,143.3823" fill="none" id="s_run-to-s_idle" style="stroke:#181818;stroke-width:1;"/><polygon fill="#181818" points="258.4,140.92,264.2633,148.8334,262.7517,143.3823,268.2029,141.8707,258.4,140.92" style="stroke:#181818;stroke-width:1;stroke-linejoin:miter;stroke-miterlimit:10;"/><text fill="#000000" font-family="sans-serif" font-size="13" lengthAdjust="spacing" textLength="68.0024" x="326.1" y="259.5669">ignitionOff</text></g><!--link s_fault to s_stop--><g class="link" data-entity-1="ent0004" data-entity-2="ent0005" data-link-type="dependency" data-source-line="18" id="lnk13"><path d="M260.87,534.11 C267.98,548.55 278.18,566.81 290.1,581 C299.25,591.88 306.9044,599.0806 317.7844,607.7206" fill="none" id="s_fault-to-s_stop" style="stroke:#181818;stroke-width:1;"/><polygon fill="#181818" points="321.7,610.83,317.1395,602.1006,317.7844,607.7206,312.1645,608.3655,321.7,610.83" style="stroke:#181818;stroke-width:1;stroke-linejoin:miter;stroke-miterlimit:10;"/><text fill="#000000" font-family="sans-serif" font-size="13" lengthAdjust="spacing" textLength="130.2412" x="291.1" y="577.0669">shutdownCommand</text></g><!--link s_stop to s_idle--><g class="link" data-entity-1="ent0005" data-entity-2="ent0001" data-link-type="dependency" data-source-line="19" id="lnk14"><path d="M395.92,610.92 C406.99,602.61 418.13,592.47 426.1,581 C444.95,553.87 448.1,543.04 448.1,510 C448.1,254 448.1,254 448.1,254 C448.1,167 319.8538,140.1879 263.1438,132.4279" fill="none" id="s_stop-to-s_idle" style="stroke:#181818;stroke-width:1;"/><polygon fill="#181818" points="258.19,131.75,266.5646,136.9332,263.1438,132.4279,267.6492,129.0071,258.19,131.75" style="stroke:#181818;stroke-width:1;stroke-linejoin:miter;stroke-miterlimit:10;"/><text fill="#000000" font-family="sans-serif" font-size="13" lengthAdjust="spacing" textLength="95.8623" x="449.1" y="386.5669">resetComplete</text></g><?plantuml-src lPB1JiCm38RlUGfht91O3i1b1wInWJG92ObocwR9RTqsB8chn0LDY7SdfQtGk3FbajX__i-n4m_6jnZGGHGKWay5S8_5eGxS-NB5bWDSLBTfOP_XK58OezTuZJUelfGQhiusfQKPO8IuDsaBssqZqiQ5rhMHfild1JiTtz1HrF4OYs1oqhdbN3iqNZikoUwn4zRPCGev_U1husd5NWBRZ2lvm41pL-vs4t8LqASNr2Esw8_duBvqtlzYG-VF0Nt4pigQX0gXSaHNVUmSy0mhoeJRaHlJzb-nQdkvWwkhk-apBS1u8sey3ObXt2bJfvHX_-pL51m4_M0M45gtpFcTNfj0iM5R_b6D_c8SSIUWeHX_5LHeBFNotcWG3mrVG4pzaEF9I62xp3PFiDwTN9YgdsgiAZMv38AVLYR3ffEIF_oAdKFVGtyI9oQfVf8aQ6r2gcy0?></g></svg>