<svg xmlns="http://www.w3.org/2000/svg" xmlns:xlink="http://www.w3.org/1999/xlink" contentStyleType="text/css" data-diagram-type="CLASS" height="295px" preserveAspectRatio="none" style="width:1585px;height:295px;background:#FFFFFF;" version="1.1" viewBox="0 0 1585 295" width="1585px" zoomAndPan="magnify"><?plantuml 1.2026.6?><defs/><g><!--class s_sys--><g class="entity" data-qualified-name="s_sys" data-source-line="7" id="ent0001"><a href="https://github.com/sjames/syscribe/blob/main/model_auto/Requirements/Safety/REQ-ENG-SAFE-000.md" target="_top" title="https://github.com/sjames/syscribe/blob/main/model_auto/Requirements/Safety/REQ-ENG-SAFE-000.md" xlink:actuate="onRequest" xlink:href="https://github.com/sjames/syscribe/blob/main/model_auto/Requirements/Safety/REQ-ENG-SAFE-000.md" xlink:show="new" xlink:title="https://github.com/sjames/syscribe/blob/main/model_auto/Requirements/Safety/REQ-ENG-SAFE-000.md" xlink:type="simple"><rect fill="#F9F7FF" height="40.2656" rx="2.5" ry="2.5" style="stroke:#4A0A6E;stroke-width:0.5;" width="448.1309" x="505" y="241"/><ellipse cx="520" cy="261.1328" fill="#ADD1B2" rx="11" ry="11" style="stroke:#181818;stroke-width:1;"/><path d="M522.9688,266.7734 Q522.3906,267.0703 521.75,267.2109 Q521.1094,267.3672 520.4063,267.3672 Q517.9063,267.3672 516.5781,265.7266 Q515.2656,264.0703 515.2656,260.9453 Q515.2656,257.8203 516.5781,256.1641 Q517.9063,254.5078 520.4063,254.5078 Q521.1094,254.5078 521.75,254.6641 Q522.4063,254.8203 522.9688,255.1172 L522.9688,257.8359 Q522.3438,257.2578 521.75,256.9922 Q521.1563,256.7109 520.5313,256.7109 Q519.1875,256.7109 518.5,257.7891 Q517.8125,258.8516 517.8125,260.9453 Q517.8125,263.0391 518.5,264.1172 Q519.1875,265.1797 520.5313,265.1797 Q521.1563,265.1797 521.75,264.9141 Q522.3438,264.6328 522.9688,264.0547 L522.9688,266.7734 Z " fill="#000000"/><text fill="#000000" font-family="sans-serif" font-size="12" font-style="italic" lengthAdjust="spacing" textLength="89.3848" x="697.373" y="257.1387">&#171;requirement&#187;</text><text fill="#000000" font-family="sans-serif" font-size="14" lengthAdjust="spacing" textLength="416.1309" x="534" y="272.9639">Engine ECU shall prevent safety hazards identified in HARA</text></a></g><!--class s_safe--><g class="entity" data-qualified-name="s_safe" data-source-line="8" id="ent0002"><a href="https://github.com/sjames/syscribe/blob/main/model_auto/Requirements/Safety/REQ-ENG-SAFE-001.md" target="_top" title="https://github.com/sjames/syscribe/blob/main/model_auto/Requirements/Safety/REQ-ENG-SAFE-001.md" xlink:actuate="onRequest" xlink:href="https://github.com/sjames/syscribe/blob/main/model_auto/Requirements/Safety/REQ-ENG-SAFE-001.md" xlink:show="new" xlink:title="https://github.com/sjames/syscribe/blob/main/model_auto/Requirements/Safety/REQ-ENG-SAFE-001.md" xlink:type="simple"><rect fill="#F9F7FF" height="40.2656" rx="2.5" ry="2.5" style="stroke:#4A0A6E;stroke-width:0.5;" width="437.6445" x="7" y="124"/><ellipse cx="22" cy="144.1328" fill="#ADD1B2" rx="11" ry="11" style="stroke:#181818;stroke-width:1;"/><path d="M24.9688,149.7734 Q24.3906,150.0703 23.75,150.2109 Q23.1094,150.3672 22.4063,150.3672 Q19.9063,150.3672 18.5781,148.7266 Q17.2656,147.0703 17.2656,143.9453 Q17.2656,140.8203 18.5781,139.1641 Q19.9063,137.5078 22.4063,137.5078 Q23.1094,137.5078 23.75,137.6641 Q24.4063,137.8203 24.9688,138.1172 L24.9688,140.8359 Q24.3438,140.2578 23.75,139.9922 Q23.1563,139.7109 22.5313,139.7109 Q21.1875,139.7109 20.5,140.7891 Q19.8125,141.8516 19.8125,143.9453 Q19.8125,146.0391 20.5,147.1172 Q21.1875,148.1797 22.5313,148.1797 Q23.1563,148.1797 23.75,147.9141 Q24.3438,147.6328 24.9688,147.0547 L24.9688,149.7734 Z " fill="#000000"/><text fill="#000000" font-family="sans-serif" font-size="12" font-style="italic" lengthAdjust="spacing" textLength="89.3848" x="194.1299" y="140.1387">&#171;requirement&#187;</text><text fill="#000000" font-family="sans-serif" font-size="14" lengthAdjust="spacing" textLength="405.6445" x="36" y="155.9639">Safety monitor shall detect all safety faults within 100 ms</text></a></g><!--class s_stall--><g class="entity" data-qualified-name="s_stall" data-source-line="9" id="ent0003"><a href="https://github.com/sjames/syscribe/blob/main/model_auto/Requirements/Safety/REQ-ENG-SAFE-003.md" target="_top" title="https://github.com/sjames/syscribe/blob/main/model_auto/Requirements/Safety/REQ-ENG-SAFE-003.md" xlink:actuate="onRequest" xlink:href="https://github.com/sjames/syscribe/blob/main/model_auto/Requirements/Safety/REQ-ENG-SAFE-003.md" xlink:show="new" xlink:title="https://github.com/sjames/syscribe/blob/main/model_auto/Requirements/Safety/REQ-ENG-SAFE-003.md" xlink:type="simple"><rect fill="#F9F7FF" height="40.2656" rx="2.5" ry="2.5" style="stroke:#4A0A6E;stroke-width:0.5;" width="497.9307" x="480" y="124"/><ellipse cx="495" cy="144.1328" fill="#ADD1B2" rx="11" ry="11" style="stroke:#181818;stroke-width:1;"/><path d="M497.9688,149.7734 Q497.3906,150.0703 496.75,150.2109 Q496.1094,150.3672 495.4063,150.3672 Q492.9063,150.3672 491.5781,148.7266 Q490.2656,147.0703 490.2656,143.9453 Q490.2656,140.8203 491.5781,139.1641 Q492.9063,137.5078 495.4063,137.5078 Q496.1094,137.5078 496.75,137.6641 Q497.4063,137.8203 497.9688,138.1172 L497.9688,140.8359 Q497.3438,140.2578 496.75,139.9922 Q496.1563,139.7109 495.5313,139.7109 Q494.1875,139.7109 493.5,140.7891 Q492.8125,141.8516 492.8125,143.9453 Q492.8125,146.0391 493.5,147.1172 Q494.1875,148.1797 495.5313,148.1797 Q496.1563,148.1797 496.75,147.9141 Q497.3438,147.6328 497.9688,147.0547 L497.9688,149.7734 Z " fill="#000000"/><text fill="#000000" font-family="sans-serif" font-size="12" font-style="italic" lengthAdjust="spacing" textLength="89.3848" x="697.2729" y="140.1387">&#171;requirement&#187;</text><text fill="#000000" font-family="sans-serif" font-size="14" lengthAdjust="spacing" textLength="465.9307" x="509" y="155.9639">Engine stall monitor shall detect CPS loss and initiate deceleration</text></a></g><!--class s_sm--><g class="entity" data-qualified-name="s_sm" data-source-line="10" id="ent0004"><a href="https://github.com/sjames/syscribe/blob/main/model_auto/System/Software/SafetyMonitor.md" target="_top" title="https://github.com/sjames/syscribe/blob/main/model_auto/System/Software/SafetyMonitor.md" xlink:actuate="onRequest" xlink:href="https://github.com/sjames/syscribe/blob/main/model_auto/System/Software/SafetyMonitor.md" xlink:show="new" xlink:title="https://github.com/sjames/syscribe/blob/main/model_auto/System/Software/SafetyMonitor.md" xlink:type="simple"><rect fill="#F9F7FF" height="40.2656" rx="2.5" ry="2.5" style="stroke:#4A0A6E;stroke-width:0.5;" width="134.4502" x="159" y="7"/><ellipse cx="174" cy="27.1328" fill="#ADD1B2" rx="11" ry="11" style="stroke:#181818;stroke-width:1;"/><path d="M176.9688,32.7734 Q176.3906,33.0703 175.75,33.2109 Q175.1094,33.3672 174.4063,33.3672 Q171.9063,33.3672 170.5781,31.7266 Q169.2656,30.0703 169.2656,26.9453 Q169.2656,23.8203 170.5781,22.1641 Q171.9063,20.5078 174.4063,20.5078 Q175.1094,20.5078 175.75,20.6641 Q176.4063,20.8203 176.9688,21.1172 L176.9688,23.8359 Q176.3438,23.2578 175.75,22.9922 Q175.1563,22.7109 174.5313,22.7109 Q173.1875,22.7109 172.5,23.7891 Q171.8125,24.8516 171.8125,26.9453 Q171.8125,29.0391 172.5,30.1172 Q173.1875,31.1797 174.5313,31.1797 Q175.1563,31.1797 175.75,30.9141 Q176.3438,30.6328 176.9688,30.0547 L176.9688,32.7734 Z " fill="#000000"/><text fill="#000000" font-family="sans-serif" font-size="12" font-style="italic" lengthAdjust="spacing" textLength="62.4609" x="207.9946" y="23.1387">&#171;part def&#187;</text><text fill="#000000" font-family="sans-serif" font-size="14" lengthAdjust="spacing" textLength="102.4502" x="188" y="38.9639">Safety Monitor</text></a></g><!--class s_esm--><g class="entity" data-qualified-name="s_esm" data-source-line="11" id="ent0005"><a href="https://github.com/sjames/syscribe/blob/main/model_auto/System/Software/EngineStallMonitor.md" target="_top" title="https://github.com/sjames/syscribe/blob/main/model_auto/System/Software/EngineStallMonitor.md" xlink:actuate="onRequest" xlink:href="https://github.com/sjames/syscribe/blob/main/model_auto/System/Software/EngineStallMonitor.md" xlink:show="new" xlink:title="https://github.com/sjames/syscribe/blob/main/model_auto/System/Software/EngineStallMonitor.md" xlink:type="simple"><rect fill="#F9F7FF" height="40.2656" rx="2.5" ry="2.5" style="stroke:#4A0A6E;stroke-width:0.5;" width="172.834" x="642.5" y="7"/><ellipse cx="657.5" cy="27.1328" fill="#ADD1B2" rx="11" ry="11" style="stroke:#181818;stroke-width:1;"/><path d="M660.4688,32.7734 Q659.8906,33.0703 659.25,33.2109 Q658.6094,33.3672 657.9063,33.3672 Q655.4063,33.3672 654.0781,31.7266 Q652.7656,30.0703 652.7656,26.9453 Q652.7656,23.8203 654.0781,22.1641 Q655.4063,20.5078 657.9063,20.5078 Q658.6094,20.5078 659.25,20.6641 Q659.9063,20.8203 660.4688,21.1172 L660.4688,23.8359 Q659.8438,23.2578 659.25,22.9922 Q658.6563,22.7109 658.0313,22.7109 Q656.6875,22.7109 656,23.7891 Q655.3125,24.8516 655.3125,26.9453 Q655.3125,29.0391 656,30.1172 Q656.6875,31.1797 658.0313,31.1797 Q658.6563,31.1797 659.25,30.9141 Q659.8438,30.6328 660.4688,30.0547 L660.4688,32.7734 Z " fill="#000000"/><text fill="#000000" font-family="sans-serif" font-size="12" font-style="italic" lengthAdjust="spacing" textLength="62.4609" x="710.6865" y="23.1387">&#171;part def&#187;</text><text fill="#000000" font-family="sans-serif" font-size="14" lengthAdjust="spacing" textLength="140.834" x="671.5" y="38.9639">Engine Stall Monitor</text></a></g><!--class s_tc1--><g class="entity" data-qualified-name="s_tc1" data-source-line="12" id="ent0006"><a href="https://github.com/sjames/syscribe/blob/main/model_auto/Verification/TC-ENG-SAFE-001.md" target="_top" title="https://github.com/sjames/syscribe/blob/main/model_auto/Verification/TC-ENG-SAFE-001.md" xlink:actuate="onRequest" xlink:href="https://github.com/sjames/syscribe/blob/main/model_auto/Verification/TC-ENG-SAFE-001.md" xlink:show="new" xlink:title="https://github.com/sjames/syscribe/blob/main/model_auto/Verification/TC-ENG-SAFE-001.md" xlink:type="simple"><rect fill="#F9F7FF" height="40.2656" rx="2.5" ry="2.5" style="stroke:#4A0A6E;stroke-width:0.5;" width="557.9365" x="1013" y="124"/><ellipse cx="1028" cy="144.1328" fill="#ADD1B2" rx="11" ry="11" style="stroke:#181818;stroke-width:1;"/><path d="M1030.9688,149.7734 Q1030.3906,150.0703 1029.75,150.2109 Q1029.1094,150.3672 1028.4063,150.3672 Q1025.9063,150.3672 1024.5781,148.7266 Q1023.2656,147.0703 1023.2656,143.9453 Q1023.2656,140.8203 1024.5781,139.1641 Q1025.9063,137.5078 1028.4063,137.5078 Q1029.1094,137.5078 1029.75,137.6641 Q1030.4063,137.8203 1030.9688,138.1172 L1030.9688,140.8359 Q1030.3438,140.2578 1029.75,139.9922 Q1029.1563,139.7109 1028.5313,139.7109 Q1027.1875,139.7109 1026.5,140.7891 Q1025.8125,141.8516 1025.8125,143.9453 Q1025.8125,146.0391 1026.5,147.1172 Q1027.1875,148.1797 1028.5313,148.1797 Q1029.1563,148.1797 1029.75,147.9141 Q1030.3438,147.6328 1030.9688,147.0547 L1030.9688,149.7734 Z " fill="#000000"/><text fill="#000000" font-family="sans-serif" font-size="12" font-style="italic" lengthAdjust="spacing" textLength="69.2578" x="1270.3394" y="140.1387">&#171;test case&#187;</text><text fill="#000000" font-family="sans-serif" font-size="14" lengthAdjust="spacing" textLength="525.9365" x="1042" y="155.9639">HIL &#8212; safety system end-to-end fault response under all single-point faults</text></a></g><!--link s_safe to s_sys--><g class="link" data-entity-1="ent0002" data-entity-2="ent0001" data-link-type="dependency" data-source-line="14" id="lnk7"><path codeLine="14" d="M309.34,164.05 C402.45,185.34 547.4457,218.4958 640.6257,239.7958" fill="none" id="s_safe-to-s_sys" style="stroke:#181818;stroke-width:1;stroke-dasharray:7,7;"/><polygon fill="#181818" points="645.5,240.91,637.6177,235.005,640.6257,239.7958,635.8349,242.8038,645.5,240.91" style="stroke:#181818;stroke-width:1;stroke-linejoin:miter;stroke-miterlimit:10;"/><text fill="#000000" font-family="sans-serif" font-size="13" lengthAdjust="spacing" textLength="82.5894" x="509" y="207.0669">derivedFrom</text></g><!--link s_stall to s_sys--><g class="link" data-entity-1="ent0003" data-entity-2="ent0001" data-link-type="dependency" data-source-line="15" id="lnk8"><path codeLine="15" d="M729,164.25 C729,185.48 729,214.44 729,235.69" fill="none" id="s_stall-to-s_sys" style="stroke:#181818;stroke-width:1;stroke-dasharray:7,7;"/><polygon fill="#181818" points="729,240.69,733,231.69,729,235.69,725,231.69,729,240.69" style="stroke:#181818;stroke-width:1;stroke-linejoin:miter;stroke-miterlimit:10;"/><text fill="#000000" font-family="sans-serif" font-size="13" lengthAdjust="spacing" textLength="82.5894" x="730" y="207.0669">derivedFrom</text></g><!--link s_tc1 to s_sys--><g class="link" data-entity-1="ent0006" data-entity-2="ent0001" data-link-type="dependency" data-source-line="16" id="lnk9"><path codeLine="16" d="M1198.72,164.05 C1094.5,185.34 931.6589,218.6095 827.3689,239.9095" fill="none" id="s_tc1-to-s_sys" style="stroke:#181818;stroke-width:1;stroke-dasharray:7,7;"/><polygon fill="#181818" points="822.47,240.91,832.0884,243.0281,827.3689,239.9095,830.4875,235.1899,822.47,240.91" style="stroke:#181818;stroke-width:1;stroke-linejoin:miter;stroke-miterlimit:10;"/><text fill="#000000" font-family="sans-serif" font-size="13" lengthAdjust="spacing" textLength="47.6074" x="1045" y="207.0669">verifies</text></g><!--link s_sm to s_safe--><g class="link" data-entity-1="ent0004" data-entity-2="ent0002" data-link-type="dependency" data-source-line="17" id="lnk10"><path codeLine="17" d="M226,47.25 C226,68.48 226,97.44 226,118.69" fill="none" id="s_sm-to-s_safe" style="stroke:#181818;stroke-width:1;"/><polygon fill="#181818" points="226,123.69,230,114.69,226,118.69,222,114.69,226,123.69" style="stroke:#181818;stroke-width:1;stroke-linejoin:miter;stroke-miterlimit:10;"/><text fill="#000000" font-family="sans-serif" font-size="13" lengthAdjust="spacing" textLength="53.1807" x="227" y="90.0669">satisfies</text></g><!--link s_esm to s_stall--><g class="link" data-entity-1="ent0005" data-entity-2="ent0003" data-link-type="dependency" data-source-line="18" id="lnk11"><path codeLine="18" d="M729,47.25 C729,68.48 729,97.44 729,118.69" fill="none" id="s_esm-to-s_stall" style="stroke:#181818;stroke-width:1;"/><polygon fill="#181818" points="729,123.69,733,114.69,729,118.69,725,114.69,729,123.69" style="stroke:#181818;stroke-width:1;stroke-linejoin:miter;stroke-miterlimit:10;"/><text fill="#000000" font-family="sans-serif" font-size="13" lengthAdjust="spacing" textLength="53.1807" x="730" y="90.0669">satisfies</text></g><?plantuml-src lPFTRjGm48NlynIZSfrrLY0GgsgbPPLI942m0MwggdBYoSOqjeDdijM2a7W8df0dmVbJMobSLVGgKSx4yvtn6RhMjf5U6YXgIGG_8e1NihZUUzTQjNMry_2aV5c-ACjESLwX7xy-aubyZj7FgD8A0Kt3Hp1eSlGKHSDf9wdTQukGRZy3LRAkeV5uGCj0iiHGNydlqYk2S89bNMfKe2sSRtQR4v04T4L7WjDJZzzQxT64elKQBYugvePMGkmrLss-A9mHz5KQ917g2wzp57djSc6aji8uXVMLRDc9tUqv9B8UGUpIZt7w_dMSRSxIE4cIXL6NbnF_K0F6MSt1y-118MF1qBsEDahPranm4t02_Z99mD1a85GyheFbFGVZ3H1tkBC-jXyog5sebRQRlcOj6ODOO8rUidPsijAVyQXUdixTnhl1nKHb0bA8C0Vaya4ysP4OZSXSoJVIuuWqTfiRQjOFv3uE_Z-UeMlVT0xg_CrR-FFhzvH9wly6j2fc5uV7a5BmI8spX13s6_sGOcttDSQDqs4pXooFRhXO1ZUCn518mWVP-O8-R7ZH9qfysiv4DXhNPR5OZwk_2aFq-e3gp3iJJH7yjzxntbKFVK-agCz97A-dZLo5CR6cKSDRiMzmL_qB?></g></svg>