<svg xmlns="http://www.w3.org/2000/svg" xmlns:xlink="http://www.w3.org/1999/xlink" contentStyleType="text/css" data-diagram-type="CLASS" height="263px" preserveAspectRatio="none" style="width:1306px;height:263px;background:#FFFFFF;" version="1.1" viewBox="0 0 1306 263" width="1306px" zoomAndPan="magnify"><?plantuml 1.2026.6?><defs/><g><!--class s_sys--><g class="entity" data-qualified-name="s_sys" data-source-line="4" id="ent0001"><a href="https://github.com/sjames/syscribe/blob/main/model_auto/Requirements/Safety/REQ-ENG-SAFE-000.md" target="_top" title="https://github.com/sjames/syscribe/blob/main/model_auto/Requirements/Safety/REQ-ENG-SAFE-000.md" xlink:actuate="onRequest" xlink:href="https://github.com/sjames/syscribe/blob/main/model_auto/Requirements/Safety/REQ-ENG-SAFE-000.md" xlink:show="new" xlink:title="https://github.com/sjames/syscribe/blob/main/model_auto/Requirements/Safety/REQ-ENG-SAFE-000.md" xlink:type="simple"><rect fill="#FDEDEC" height="32.1172" rx="2" ry="2" style="stroke:#C0392B;stroke-width:1.5;" width="363.4443" x="419.5" y="217"/><rect fill="#C0392B" height="32.1172" rx="2" ry="2" style="stroke:#C0392B;stroke-width:1.5;" width="363.4443" x="419.5" y="217"/><rect fill="#C0392B" height="2" style="stroke:#C0392B;stroke-width:1.5;" width="363.4443" x="419.5" y="247.1172"/><rect fill="none" height="32.1172" rx="2" ry="2" style="stroke:#C0392B;stroke-width:1.5;" width="363.4443" x="419.5" y="217"/><ellipse cx="432.5" cy="233.0586" fill="#ADD1B2" rx="9" ry="9" style="stroke:#181818;stroke-width:1;"/><path d="M433.8125,236.8242 Q433.4375,237.0273 433.0156,237.1211 Q432.6094,237.2148 432.1406,237.2148 Q430.5313,237.2148 429.6719,236.1523 Q428.8125,235.0742 428.8125,233.0586 Q428.8125,231.0273 429.6719,229.9648 Q430.5313,228.8867 432.1406,228.8867 Q432.6094,228.8867 433.0156,228.9961 Q433.4375,229.0898 433.8125,229.2773 L433.8125,231.043 Q433.3906,230.668 433,230.4961 Q432.625,230.3242 432.2188,230.3242 Q431.3594,230.3242 430.9063,231.0117 Q430.4688,231.6992 430.4688,233.0586 Q430.4688,234.418 430.9063,235.1055 Q431.3594,235.793 432.2188,235.793 Q432.625,235.793 433,235.6211 Q433.3906,235.4492 433.8125,235.0586 L433.8125,236.8242 Z " fill="#000000"/><text fill="#F5B7B1" font-family="Helvetica Neue, Helvetica, Arial, sans-serif" font-size="9" font-style="italic" lengthAdjust="spacing" textLength="67.0386" x="578.7029" y="230.354">&#171;requirement&#187;</text><text fill="#FFFFFF" font-family="'Helvetica Neue, Helvetica, Arial, sans-serif'" font-size="10" font-weight="700" lengthAdjust="spacing" textLength="335.4443" x="444.5" y="241.7588">Engine ECU shall prevent safety hazards identified in HARA</text></a></g><!--class s_safe--><g class="entity" data-qualified-name="s_safe" data-source-line="5" id="ent0002"><a href="https://github.com/sjames/syscribe/blob/main/model_auto/Requirements/Safety/REQ-ENG-SAFE-001.md" target="_top" title="https://github.com/sjames/syscribe/blob/main/model_auto/Requirements/Safety/REQ-ENG-SAFE-001.md" xlink:actuate="onRequest" xlink:href="https://github.com/sjames/syscribe/blob/main/model_auto/Requirements/Safety/REQ-ENG-SAFE-001.md" xlink:show="new" xlink:title="https://github.com/sjames/syscribe/blob/main/model_auto/Requirements/Safety/REQ-ENG-SAFE-001.md" xlink:type="simple"><rect fill="#FDEDEC" height="32.1172" rx="2" ry="2" style="stroke:#C0392B;stroke-width:1.5;" width="356.4912" x="7" y="112"/><rect fill="#C0392B" height="32.1172" rx="2" ry="2" style="stroke:#C0392B;stroke-width:1.5;" width="356.4912" x="7" y="112"/><rect fill="#C0392B" height="2" style="stroke:#C0392B;stroke-width:1.5;" width="356.4912" x="7" y="142.1172"/><rect fill="none" height="32.1172" rx="2" ry="2" style="stroke:#C0392B;stroke-width:1.5;" width="356.4912" x="7" y="112"/><ellipse cx="20" cy="128.0586" fill="#ADD1B2" rx="9" ry="9" style="stroke:#181818;stroke-width:1;"/><path d="M21.3125,131.8242 Q20.9375,132.0273 20.5156,132.1211 Q20.1094,132.2148 19.6406,132.2148 Q18.0313,132.2148 17.1719,131.1523 Q16.3125,130.0742 16.3125,128.0586 Q16.3125,126.0273 17.1719,124.9648 Q18.0313,123.8867 19.6406,123.8867 Q20.1094,123.8867 20.5156,123.9961 Q20.9375,124.0898 21.3125,124.2773 L21.3125,126.043 Q20.8906,125.668 20.5,125.4961 Q20.125,125.3242 19.7188,125.3242 Q18.8594,125.3242 18.4063,126.0117 Q17.9688,126.6992 17.9688,128.0586 Q17.9688,129.418 18.4063,130.1055 Q18.8594,130.793 19.7188,130.793 Q20.125,130.793 20.5,130.6211 Q20.8906,130.4492 21.3125,130.0586 L21.3125,131.8242 Z " fill="#000000"/><text fill="#F5B7B1" font-family="Helvetica Neue, Helvetica, Arial, sans-serif" font-size="9" font-style="italic" lengthAdjust="spacing" textLength="67.0386" x="162.7263" y="125.354">&#171;requirement&#187;</text><text fill="#FFFFFF" font-family="'Helvetica Neue, Helvetica, Arial, sans-serif'" font-size="10" font-weight="700" lengthAdjust="spacing" textLength="328.4912" x="32" y="136.7588">Safety monitor shall detect all safety faults within 100 ms</text></a></g><!--class s_stall--><g class="entity" data-qualified-name="s_stall" data-source-line="6" id="ent0003"><a href="https://github.com/sjames/syscribe/blob/main/model_auto/Requirements/Safety/REQ-ENG-SAFE-003.md" target="_top" title="https://github.com/sjames/syscribe/blob/main/model_auto/Requirements/Safety/REQ-ENG-SAFE-003.md" xlink:actuate="onRequest" xlink:href="https://github.com/sjames/syscribe/blob/main/model_auto/Requirements/Safety/REQ-ENG-SAFE-003.md" xlink:show="new" xlink:title="https://github.com/sjames/syscribe/blob/main/model_auto/Requirements/Safety/REQ-ENG-SAFE-003.md" xlink:type="simple"><rect fill="#FDEDEC" height="32.1172" rx="2" ry="2" style="stroke:#C0392B;stroke-width:1.5;" width="405.7393" x="398" y="112"/><rect fill="#C0392B" height="32.1172" rx="2" ry="2" style="stroke:#C0392B;stroke-width:1.5;" width="405.7393" x="398" y="112"/><rect fill="#C0392B" height="2" style="stroke:#C0392B;stroke-width:1.5;" width="405.7393" x="398" y="142.1172"/><rect fill="none" height="32.1172" rx="2" ry="2" style="stroke:#C0392B;stroke-width:1.5;" width="405.7393" x="398" y="112"/><ellipse cx="411" cy="128.0586" fill="#ADD1B2" rx="9" ry="9" style="stroke:#181818;stroke-width:1;"/><path d="M412.3125,131.8242 Q411.9375,132.0273 411.5156,132.1211 Q411.1094,132.2148 410.6406,132.2148 Q409.0313,132.2148 408.1719,131.1523 Q407.3125,130.0742 407.3125,128.0586 Q407.3125,126.0273 408.1719,124.9648 Q409.0313,123.8867 410.6406,123.8867 Q411.1094,123.8867 411.5156,123.9961 Q411.9375,124.0898 412.3125,124.2773 L412.3125,126.043 Q411.8906,125.668 411.5,125.4961 Q411.125,125.3242 410.7188,125.3242 Q409.8594,125.3242 409.4063,126.0117 Q408.9688,126.6992 408.9688,128.0586 Q408.9688,129.418 409.4063,130.1055 Q409.8594,130.793 410.7188,130.793 Q411.125,130.793 411.5,130.6211 Q411.8906,130.4492 412.3125,130.0586 L412.3125,131.8242 Z " fill="#000000"/><text fill="#F5B7B1" font-family="Helvetica Neue, Helvetica, Arial, sans-serif" font-size="9" font-style="italic" lengthAdjust="spacing" textLength="67.0386" x="578.3503" y="125.354">&#171;requirement&#187;</text><text fill="#FFFFFF" font-family="'Helvetica Neue, Helvetica, Arial, sans-serif'" font-size="10" font-weight="700" lengthAdjust="spacing" textLength="377.7393" x="423" y="136.7588">Engine stall monitor shall detect CPS loss and initiate deceleration</text></a></g><!--class s_sm--><g class="entity" data-qualified-name="s_sm" data-source-line="7" id="ent0004"><a href="https://github.com/sjames/syscribe/blob/main/model_auto/System/Software/SafetyMonitor.md" target="_top" title="https://github.com/sjames/syscribe/blob/main/model_auto/System/Software/SafetyMonitor.md" xlink:actuate="onRequest" xlink:href="https://github.com/sjames/syscribe/blob/main/model_auto/System/Software/SafetyMonitor.md" xlink:show="new" xlink:title="https://github.com/sjames/syscribe/blob/main/model_auto/System/Software/SafetyMonitor.md" xlink:type="simple"><rect fill="#D4E6F1" height="32.1172" rx="2" ry="2" style="stroke:#154360;stroke-width:1.5;" width="111.8135" x="129" y="7"/><rect fill="#154360" height="32.1172" rx="2" ry="2" style="stroke:#154360;stroke-width:1.5;" width="111.8135" x="129" y="7"/><rect fill="#154360" height="2" style="stroke:#154360;stroke-width:1.5;" width="111.8135" x="129" y="37.1172"/><rect fill="none" height="32.1172" rx="2" ry="2" style="stroke:#154360;stroke-width:1.5;" width="111.8135" x="129" y="7"/><ellipse cx="142" cy="23.0586" fill="#ADD1B2" rx="9" ry="9" style="stroke:#181818;stroke-width:1;"/><path d="M143.3125,26.8242 Q142.9375,27.0273 142.5156,27.1211 Q142.1094,27.2148 141.6406,27.2148 Q140.0313,27.2148 139.1719,26.1523 Q138.3125,25.0742 138.3125,23.0586 Q138.3125,21.0273 139.1719,19.9648 Q140.0313,18.8867 141.6406,18.8867 Q142.1094,18.8867 142.5156,18.9961 Q142.9375,19.0898 143.3125,19.2773 L143.3125,21.043 Q142.8906,20.668 142.5,20.4961 Q142.125,20.3242 141.7188,20.3242 Q140.8594,20.3242 140.4063,21.0117 Q139.9688,21.6992 139.9688,23.0586 Q139.9688,24.418 140.4063,25.1055 Q140.8594,25.793 141.7188,25.793 Q142.125,25.793 142.5,25.6211 Q142.8906,25.4492 143.3125,25.0586 L143.3125,26.8242 Z " fill="#000000"/><text fill="#A8C8E8" font-family="Helvetica Neue, Helvetica, Arial, sans-serif" font-size="9" font-style="italic" lengthAdjust="spacing" textLength="46.8457" x="172.4839" y="20.354">&#171;part def&#187;</text><text fill="#FFFFFF" font-family="'Helvetica Neue, Helvetica, Arial, sans-serif'" font-size="10" font-weight="700" lengthAdjust="spacing" textLength="83.8135" x="154" y="31.7588">Safety Monitor</text></a></g><!--class s_esm--><g class="entity" data-qualified-name="s_esm" data-source-line="8" id="ent0005"><a href="https://github.com/sjames/syscribe/blob/main/model_auto/System/Software/EngineStallMonitor.md" target="_top" title="https://github.com/sjames/syscribe/blob/main/model_auto/System/Software/EngineStallMonitor.md" xlink:actuate="onRequest" xlink:href="https://github.com/sjames/syscribe/blob/main/model_auto/System/Software/EngineStallMonitor.md" xlink:show="new" xlink:title="https://github.com/sjames/syscribe/blob/main/model_auto/System/Software/EngineStallMonitor.md" xlink:type="simple"><rect fill="#D4E6F1" height="32.1172" rx="2" ry="2" style="stroke:#154360;stroke-width:1.5;" width="142.9365" x="529.5" y="7"/><rect fill="#154360" height="32.1172" rx="2" ry="2" style="stroke:#154360;stroke-width:1.5;" width="142.9365" x="529.5" y="7"/><rect fill="#154360" height="2" style="stroke:#154360;stroke-width:1.5;" width="142.9365" x="529.5" y="37.1172"/><rect fill="none" height="32.1172" rx="2" ry="2" style="stroke:#154360;stroke-width:1.5;" width="142.9365" x="529.5" y="7"/><ellipse cx="542.5" cy="23.0586" fill="#ADD1B2" rx="9" ry="9" style="stroke:#181818;stroke-width:1;"/><path d="M543.8125,26.8242 Q543.4375,27.0273 543.0156,27.1211 Q542.6094,27.2148 542.1406,27.2148 Q540.5313,27.2148 539.6719,26.1523 Q538.8125,25.0742 538.8125,23.0586 Q538.8125,21.0273 539.6719,19.9648 Q540.5313,18.8867 542.1406,18.8867 Q542.6094,18.8867 543.0156,18.9961 Q543.4375,19.0898 543.8125,19.2773 L543.8125,21.043 Q543.3906,20.668 543,20.4961 Q542.625,20.3242 542.2188,20.3242 Q541.3594,20.3242 540.9063,21.0117 Q540.4688,21.6992 540.4688,23.0586 Q540.4688,24.418 540.9063,25.1055 Q541.3594,25.793 542.2188,25.793 Q542.625,25.793 543,25.6211 Q543.3906,25.4492 543.8125,25.0586 L543.8125,26.8242 Z " fill="#000000"/><text fill="#A8C8E8" font-family="Helvetica Neue, Helvetica, Arial, sans-serif" font-size="9" font-style="italic" lengthAdjust="spacing" textLength="46.8457" x="588.5454" y="20.354">&#171;part def&#187;</text><text fill="#FFFFFF" font-family="'Helvetica Neue, Helvetica, Arial, sans-serif'" font-size="10" font-weight="700" lengthAdjust="spacing" textLength="114.9365" x="554.5" y="31.7588">Engine Stall Monitor</text></a></g><!--class s_tc1--><g class="entity" data-qualified-name="s_tc1" data-source-line="9" id="ent0006"><a href="https://github.com/sjames/syscribe/blob/main/model_auto/Verification/TC-ENG-SAFE-001.md" target="_top" title="https://github.com/sjames/syscribe/blob/main/model_auto/Verification/TC-ENG-SAFE-001.md" xlink:actuate="onRequest" xlink:href="https://github.com/sjames/syscribe/blob/main/model_auto/Verification/TC-ENG-SAFE-001.md" xlink:show="new" xlink:title="https://github.com/sjames/syscribe/blob/main/model_auto/Verification/TC-ENG-SAFE-001.md" xlink:type="simple"><rect fill="#E9F7EF" height="32.1172" rx="2" ry="2" style="stroke:#1E8449;stroke-width:1.5;" width="453.3223" x="838.5" y="112"/><rect fill="#1E8449" height="32.1172" rx="2" ry="2" style="stroke:#1E8449;stroke-width:1.5;" width="453.3223" x="838.5" y="112"/><rect fill="#1E8449" height="2" style="stroke:#1E8449;stroke-width:1.5;" width="453.3223" x="838.5" y="142.1172"/><rect fill="none" height="32.1172" rx="2" ry="2" style="stroke:#1E8449;stroke-width:1.5;" width="453.3223" x="838.5" y="112"/><ellipse cx="851.5" cy="128.0586" fill="#ADD1B2" rx="9" ry="9" style="stroke:#181818;stroke-width:1;"/><path d="M852.8125,131.8242 Q852.4375,132.0273 852.0156,132.1211 Q851.6094,132.2148 851.1406,132.2148 Q849.5313,132.2148 848.6719,131.1523 Q847.8125,130.0742 847.8125,128.0586 Q847.8125,126.0273 848.6719,124.9648 Q849.5313,123.8867 851.1406,123.8867 Q851.6094,123.8867 852.0156,123.9961 Q852.4375,124.0898 852.8125,124.2773 L852.8125,126.043 Q852.3906,125.668 852,125.4961 Q851.625,125.3242 851.2188,125.3242 Q850.3594,125.3242 849.9063,126.0117 Q849.4688,126.6992 849.4688,128.0586 Q849.4688,129.418 849.9063,130.1055 Q850.3594,130.793 851.2188,130.793 Q851.625,130.793 852,130.6211 Q852.3906,130.4492 852.8125,130.0586 L852.8125,131.8242 Z " fill="#000000"/><text fill="#A9DFBF" font-family="Helvetica Neue, Helvetica, Arial, sans-serif" font-size="9" font-style="italic" lengthAdjust="spacing" textLength="51.9434" x="1050.1895" y="125.354">&#171;test case&#187;</text><text fill="#FFFFFF" font-family="'Helvetica Neue, Helvetica, Arial, sans-serif'" font-size="10" font-weight="700" lengthAdjust="spacing" textLength="425.3223" x="863.5" y="136.7588">HIL &#8212; safety system end-to-end fault response under all single-point faults</text></a></g><!--link s_safe to s_sys--><g class="link" data-entity-1="ent0002" data-entity-2="ent0001" data-link-type="dependency" data-source-line="11" id="lnk7"><path codeLine="11" d="M245.94,144.09 C324.81,163.62 456.5966,196.2482 535.3866,215.7582" fill="none" id="s_safe-to-s_sys" style="stroke:#1F497D;stroke-width:1.5;stroke-dasharray:7,7;"/><polygon fill="#1F497D" points="540.24,216.96,532.4653,210.914,535.3866,215.7582,530.5424,218.6795,540.24,216.96" style="stroke:#1F497D;stroke-width:1.5;stroke-linejoin:miter;stroke-miterlimit:10;"/><text fill="#2C3E50" font-family="'Helvetica Neue, Helvetica, Arial, sans-serif'" font-size="10" lengthAdjust="spacing" textLength="63.5303" x="419" y="184.2822">derivedFrom</text></g><!--link s_stall to s_sys--><g class="link" data-entity-1="ent0003" data-entity-2="ent0001" data-link-type="dependency" data-source-line="12" id="lnk8"><path codeLine="12" d="M601,144.2 C601,163.67 601,192.24 601,211.74" fill="none" id="s_stall-to-s_sys" style="stroke:#1F497D;stroke-width:1.5;stroke-dasharray:7,7;"/><polygon fill="#1F497D" points="601,216.74,605,207.74,601,211.74,597,207.74,601,216.74" style="stroke:#1F497D;stroke-width:1.5;stroke-linejoin:miter;stroke-miterlimit:10;"/><text fill="#2C3E50" font-family="'Helvetica Neue, Helvetica, Arial, sans-serif'" font-size="10" lengthAdjust="spacing" textLength="63.5303" x="602" y="184.2822">derivedFrom</text></g><!--link s_tc1 to s_sys--><g class="link" data-entity-1="ent0006" data-entity-2="ent0001" data-link-type="dependency" data-source-line="13" id="lnk9"><path codeLine="13" d="M997.03,144.09 C909.06,163.62 761.5312,196.3663 673.6512,215.8763" fill="none" id="s_tc1-to-s_sys" style="stroke:#1F497D;stroke-width:1.5;stroke-dasharray:7,7;"/><polygon fill="#1F497D" points="668.77,216.96,678.423,218.9144,673.6512,215.8763,676.6892,211.1045,668.77,216.96" style="stroke:#1F497D;stroke-width:1.5;stroke-linejoin:miter;stroke-miterlimit:10;"/><text fill="#2C3E50" font-family="'Helvetica Neue, Helvetica, Arial, sans-serif'" font-size="10" lengthAdjust="spacing" textLength="36.6211" x="861" y="184.2822">verifies</text></g><!--link s_sm to s_safe--><g class="link" data-entity-1="ent0004" data-entity-2="ent0002" data-link-type="dependency" data-source-line="14" id="lnk10"><path codeLine="14" d="M185,39.2 C185,58.67 185,87.24 185,106.74" fill="none" id="s_sm-to-s_safe" style="stroke:#1F497D;stroke-width:1.5;"/><polygon fill="#1F497D" points="185,111.74,189,102.74,185,106.74,181,102.74,185,111.74" style="stroke:#1F497D;stroke-width:1.5;stroke-linejoin:miter;stroke-miterlimit:10;"/><text fill="#2C3E50" font-family="'Helvetica Neue, Helvetica, Arial, sans-serif'" font-size="10" lengthAdjust="spacing" textLength="40.9082" x="186" y="79.2822">satisfies</text></g><!--link s_esm to s_stall--><g class="link" data-entity-1="ent0005" data-entity-2="ent0003" data-link-type="dependency" data-source-line="15" id="lnk11"><path codeLine="15" d="M601,39.2 C601,58.67 601,87.24 601,106.74" fill="none" id="s_esm-to-s_stall" style="stroke:#1F497D;stroke-width:1.5;"/><polygon fill="#1F497D" points="601,111.74,605,102.74,601,106.74,597,102.74,601,111.74" style="stroke:#1F497D;stroke-width:1.5;stroke-linejoin:miter;stroke-miterlimit:10;"/><text fill="#2C3E50" font-family="'Helvetica Neue, Helvetica, Arial, sans-serif'" font-size="10" lengthAdjust="spacing" textLength="40.9082" x="602" y="79.2822">satisfies</text></g><?plantuml-src lPFDRjD04CVlVegXTtiJSOkgI57aKYH040ENgghMzYHUj1zcPvmgd7W8df0dOU8FsahcLD7JhdPcTtx_sV-yChwoNOsWck1GqJVja5HhzUaGG-ThHIUgeYbHPNBekNFsVEHiPcIRD4Qkeclv10vTYP6IfBAQ22voVp0U8Tz-0MgqjT16FA9d8Br7oM_q3nrh0dd1izaRhC5ukDxiDXUW2UXEoi3bPSJldOde96czXfkRXhcbbL87mqrNPbLm4_HVqjA6KZbjl7AXHdkdEmvgz_0EgQ97KBlyKvf_U9CMcwiyNImMcQjlRoV-8GTSy8P373NKo5WndBUZZBtkB1FS2uxWBnSBS3G9a8oNLR1yec3y0U8pxgoExSS2R91SxS_TDsmqemGhj1Wrc-0dAVqRBwhbzTnll1zKJ5HEa5eTMP3tp-8fJiJeL17sVAyZZaXZjRcc5dr3dkBW_-CPglP5vw2ktxw3tpz_JPwa_ZQWhrCEgIo3Io4YjS4JWWmsni75nXyifcqmCfc3bqSrN2r53ICnL9hmMNA-OfG9htf7gS_R6SicuxXasNeS_PKqCPeZrbSnk6IouB_ZPzx7qMDV4odfVPAcwsaYLz8cDZJ6y27O5tWS_GC0?></g></svg>