<svg xmlns="http://www.w3.org/2000/svg" xmlns:xlink="http://www.w3.org/1999/xlink" contentStyleType="text/css" data-diagram-type="CLASS" height="178px" preserveAspectRatio="none" style="width:652px;height:178px;background:#FFFFFF;" version="1.1" viewBox="0 0 652 178" width="652px" zoomAndPan="magnify"><?plantuml 1.2026.6?><defs/><g><!--class sensor_block--><g class="entity" data-qualified-name="sensor_block" data-source-line="7" id="ent0001"><a href="https://github.com/sjames/syscribe/blob/main/model_auto/System/Sensors/Sensor.md" target="_top" title="https://github.com/sjames/syscribe/blob/main/model_auto/System/Sensors/Sensor.md" xlink:actuate="onRequest" xlink:href="https://github.com/sjames/syscribe/blob/main/model_auto/System/Sensors/Sensor.md" xlink:show="new" xlink:title="https://github.com/sjames/syscribe/blob/main/model_auto/System/Sensors/Sensor.md" xlink:type="simple"><rect fill="#F5F5FA" height="40.2656" rx="2.5" ry="2.5" style="stroke:#3A3A4A;stroke-width:0.5;" width="79.9883" x="322" y="124"/><ellipse cx="337" cy="144.1328" fill="#ADD1B2" rx="11" ry="11" style="stroke:#181818;stroke-width:1;"/><path d="M339.9688,149.7734 Q339.3906,150.0703 338.75,150.2109 Q338.1094,150.3672 337.4063,150.3672 Q334.9063,150.3672 333.5781,148.7266 Q332.2656,147.0703 332.2656,143.9453 Q332.2656,140.8203 333.5781,139.1641 Q334.9063,137.5078 337.4063,137.5078 Q338.1094,137.5078 338.75,137.6641 Q339.4063,137.8203 339.9688,138.1172 L339.9688,140.8359 Q339.3438,140.2578 338.75,139.9922 Q338.1563,139.7109 337.5313,139.7109 Q336.1875,139.7109 335.5,140.7891 Q334.8125,141.8516 334.8125,143.9453 Q334.8125,146.0391 335.5,147.1172 Q336.1875,148.1797 337.5313,148.1797 Q338.1563,148.1797 338.75,147.9141 Q339.3438,147.6328 339.9688,147.0547 L339.9688,149.7734 Z " fill="#000000"/><text fill="#000000" font-family="sans-serif" font-size="12" font-style="italic" lengthAdjust="spacing" textLength="39.4219" x="355.2832" y="140.1387">&#171;part&#187;</text><text fill="#000000" font-family="sans-serif" font-size="14" lengthAdjust="spacing" textLength="47.9883" x="351" y="155.9639">Sensor</text></a></g><!--class cps_block--><g class="entity" data-qualified-name="cps_block" data-source-line="8" id="ent0002"><a href="https://github.com/sjames/syscribe/blob/main/model_auto/System/Sensors/CrankshaftPositionSensor.md" target="_top" title="https://github.com/sjames/syscribe/blob/main/model_auto/System/Sensors/CrankshaftPositionSensor.md" xlink:actuate="onRequest" xlink:href="https://github.com/sjames/syscribe/blob/main/model_auto/System/Sensors/CrankshaftPositionSensor.md" xlink:show="new" xlink:title="https://github.com/sjames/syscribe/blob/main/model_auto/System/Sensors/CrankshaftPositionSensor.md" xlink:type="simple"><rect fill="#F5F5FA" height="40.2656" rx="2.5" ry="2.5" style="stroke:#3A3A4A;stroke-width:0.5;" width="220.1523" x="7" y="7"/><ellipse cx="22" cy="27.1328" fill="#ADD1B2" rx="11" ry="11" style="stroke:#181818;stroke-width:1;"/><path d="M24.9688,32.7734 Q24.3906,33.0703 23.75,33.2109 Q23.1094,33.3672 22.4063,33.3672 Q19.9063,33.3672 18.5781,31.7266 Q17.2656,30.0703 17.2656,26.9453 Q17.2656,23.8203 18.5781,22.1641 Q19.9063,20.5078 22.4063,20.5078 Q23.1094,20.5078 23.75,20.6641 Q24.4063,20.8203 24.9688,21.1172 L24.9688,23.8359 Q24.3438,23.2578 23.75,22.9922 Q23.1563,22.7109 22.5313,22.7109 Q21.1875,22.7109 20.5,23.7891 Q19.8125,24.8516 19.8125,26.9453 Q19.8125,29.0391 20.5,30.1172 Q21.1875,31.1797 22.5313,31.1797 Q23.1563,31.1797 23.75,30.9141 Q24.3438,30.6328 24.9688,30.0547 L24.9688,32.7734 Z " fill="#000000"/><text fill="#000000" font-family="sans-serif" font-size="12" font-style="italic" lengthAdjust="spacing" textLength="39.4219" x="110.3652" y="23.1387">&#171;part&#187;</text><text fill="#000000" font-family="sans-serif" font-size="14" lengthAdjust="spacing" textLength="188.1523" x="36" y="38.9639">Crankshaft Position Sensor</text></a></g><!--class tps_block--><g class="entity" data-qualified-name="tps_block" data-source-line="9" id="ent0003"><a href="https://github.com/sjames/syscribe/blob/main/model_auto/System/Sensors/ThrottlePositionSensor.md" target="_top" title="https://github.com/sjames/syscribe/blob/main/model_auto/System/Sensors/ThrottlePositionSensor.md" xlink:actuate="onRequest" xlink:href="https://github.com/sjames/syscribe/blob/main/model_auto/System/Sensors/ThrottlePositionSensor.md" xlink:show="new" xlink:title="https://github.com/sjames/syscribe/blob/main/model_auto/System/Sensors/ThrottlePositionSensor.md" xlink:type="simple"><rect fill="#F5F5FA" height="40.2656" rx="2.5" ry="2.5" style="stroke:#3A3A4A;stroke-width:0.5;" width="199.125" x="262.5" y="7"/><ellipse cx="277.5" cy="27.1328" fill="#ADD1B2" rx="11" ry="11" style="stroke:#181818;stroke-width:1;"/><path d="M280.4688,32.7734 Q279.8906,33.0703 279.25,33.2109 Q278.6094,33.3672 277.9063,33.3672 Q275.4063,33.3672 274.0781,31.7266 Q272.7656,30.0703 272.7656,26.9453 Q272.7656,23.8203 274.0781,22.1641 Q275.4063,20.5078 277.9063,20.5078 Q278.6094,20.5078 279.25,20.6641 Q279.9063,20.8203 280.4688,21.1172 L280.4688,23.8359 Q279.8438,23.2578 279.25,22.9922 Q278.6563,22.7109 278.0313,22.7109 Q276.6875,22.7109 276,23.7891 Q275.3125,24.8516 275.3125,26.9453 Q275.3125,29.0391 276,30.1172 Q276.6875,31.1797 278.0313,31.1797 Q278.6563,31.1797 279.25,30.9141 Q279.8438,30.6328 280.4688,30.0547 L280.4688,32.7734 Z " fill="#000000"/><text fill="#000000" font-family="sans-serif" font-size="12" font-style="italic" lengthAdjust="spacing" textLength="39.4219" x="355.3516" y="23.1387">&#171;part&#187;</text><text fill="#000000" font-family="sans-serif" font-size="14" lengthAdjust="spacing" textLength="167.125" x="291.5" y="38.9639">Throttle Position Sensor</text></a></g><!--class lambda_block--><g class="entity" data-qualified-name="lambda_block" data-source-line="10" id="ent0004"><a href="https://github.com/sjames/syscribe/blob/main/model_auto/System/Sensors/LambdaSensor.md" target="_top" title="https://github.com/sjames/syscribe/blob/main/model_auto/System/Sensors/LambdaSensor.md" xlink:actuate="onRequest" xlink:href="https://github.com/sjames/syscribe/blob/main/model_auto/System/Sensors/LambdaSensor.md" xlink:show="new" xlink:title="https://github.com/sjames/syscribe/blob/main/model_auto/System/Sensors/LambdaSensor.md" xlink:type="simple"><rect fill="#F5F5FA" height="40.2656" rx="2.5" ry="2.5" style="stroke:#3A3A4A;stroke-width:0.5;" width="140.8076" x="496.5" y="7"/><ellipse cx="511.5" cy="27.1328" fill="#ADD1B2" rx="11" ry="11" style="stroke:#181818;stroke-width:1;"/><path d="M514.4688,32.7734 Q513.8906,33.0703 513.25,33.2109 Q512.6094,33.3672 511.9063,33.3672 Q509.4063,33.3672 508.0781,31.7266 Q506.7656,30.0703 506.7656,26.9453 Q506.7656,23.8203 508.0781,22.1641 Q509.4063,20.5078 511.9063,20.5078 Q512.6094,20.5078 513.25,20.6641 Q513.9063,20.8203 514.4688,21.1172 L514.4688,23.8359 Q513.8438,23.2578 513.25,22.9922 Q512.6563,22.7109 512.0313,22.7109 Q510.6875,22.7109 510,23.7891 Q509.3125,24.8516 509.3125,26.9453 Q509.3125,29.0391 510,30.1172 Q510.6875,31.1797 512.0313,31.1797 Q512.6563,31.1797 513.25,30.9141 Q513.8438,30.6328 514.4688,30.0547 L514.4688,32.7734 Z " fill="#000000"/><text fill="#000000" font-family="sans-serif" font-size="12" font-style="italic" lengthAdjust="spacing" textLength="39.4219" x="560.1929" y="23.1387">&#171;part&#187;</text><text fill="#000000" font-family="sans-serif" font-size="14" lengthAdjust="spacing" textLength="108.8076" x="525.5" y="38.9639">Lambda Sensor</text></a></g><!--link cps_block to sensor_block--><g class="link" data-entity-1="ent0002" data-entity-2="ent0001" data-link-type="extension" data-source-line="12" id="lnk5"><path codeLine="12" d="M157.73,47.12 C203.31,68.51 260.4066,95.3099 305.6866,116.5699" fill="none" id="cps_block-to-sensor_block" style="stroke:#181818;stroke-width:1;"/><polygon fill="none" points="321.98,124.22,308.2366,111.1387,303.1365,122.001,321.98,124.22" style="stroke:#181818;stroke-width:1;stroke-linejoin:miter;stroke-miterlimit:10;"/><text fill="#000000" font-family="sans-serif" font-size="13" lengthAdjust="spacing" textLength="69.0054" x="256" y="90.0669">cps-inherit</text></g><!--link tps_block to sensor_block--><g class="link" data-entity-1="ent0003" data-entity-2="ent0001" data-link-type="extension" data-source-line="13" id="lnk6"><path codeLine="13" d="M362,47.25 C362,68.48 362,84.44 362,105.69" fill="none" id="tps_block-to-sensor_block" style="stroke:#181818;stroke-width:1;"/><polygon fill="none" points="362,123.69,368,105.69,356,105.69,362,123.69" style="stroke:#181818;stroke-width:1;stroke-linejoin:miter;stroke-miterlimit:10;"/><text fill="#000000" font-family="sans-serif" font-size="13" lengthAdjust="spacing" textLength="66.9551" x="363" y="90.0669">tps-inherit</text></g><!--link lambda_block to sensor_block--><g class="link" data-entity-1="ent0004" data-entity-2="ent0001" data-link-type="extension" data-source-line="14" id="lnk7"><path codeLine="14" d="M532.69,47.25 C494.73,68.54 449.6493,93.8348 411.7793,115.0748" fill="none" id="lambda_block-to-sensor_block" style="stroke:#181818;stroke-width:1;"/><polygon fill="none" points="396.08,123.88,414.7144,120.3079,408.8442,109.8417,396.08,123.88" style="stroke:#181818;stroke-width:1;stroke-linejoin:miter;stroke-miterlimit:10;"/><text fill="#000000" font-family="sans-serif" font-size="13" lengthAdjust="spacing" textLength="95.5449" x="477" y="90.0669">lambda-inherit</text></g><?plantuml-src jP8zRy8m48Pt_ueJdOC7sWMX36NjK8bk2A5pOh29FoBVPOZQ_lS6GagG8ZRamTRvjP_7EbDbGuq9FHGEYU1R0BnZKHrJR4AvZYucU3cyTGFFEp6LEbsh2rpWAufVOMofGVkQM_3QAvr8YFwssKO7Yca6I42NvLwvM5ImMdLGpdFORWrpJKifZvPDe-P5z99Ew3L9Qgb8LcdPdL7IemtInrAxFJOSvQObrbxs1BhESr_kTWDydJ1KPF30y1d9ieq1Ha95JK-pkQ47yeJVbqcHsUb9EtwYtG1-uFQ1NfKu5dANojESUk3OHDmQb6K_-Vq7MfxRbzbWTB8i-66IHycxLqo5-y1__Wy0?></g></svg>