<svg xmlns="http://www.w3.org/2000/svg" xmlns:xlink="http://www.w3.org/1999/xlink" contentStyleType="text/css" data-diagram-type="CLASS" height="158px" preserveAspectRatio="none" style="width:552px;height:158px;background:#FFFFFF;" version="1.1" viewBox="0 0 552 158" width="552px" zoomAndPan="magnify"><?plantuml 1.2026.6?><defs/><g><!--class sensor_block--><g class="entity" data-qualified-name="sensor_block" data-source-line="4" id="ent0001"><a href="https://github.com/sjames/syscribe/blob/main/model_auto/System/Sensors/Sensor.md" target="_top" title="https://github.com/sjames/syscribe/blob/main/model_auto/System/Sensors/Sensor.md" xlink:actuate="onRequest" xlink:href="https://github.com/sjames/syscribe/blob/main/model_auto/System/Sensors/Sensor.md" xlink:show="new" xlink:title="https://github.com/sjames/syscribe/blob/main/model_auto/System/Sensors/Sensor.md" xlink:type="simple"><rect fill="#D4E6F1" height="32.1172" rx="2" ry="2" style="stroke:#1A4A7A;stroke-width:1.5;" width="66.8574" x="272" y="112"/><rect fill="#1A4A7A" height="32.1172" rx="2" ry="2" style="stroke:#1A4A7A;stroke-width:1.5;" width="66.8574" x="272" y="112"/><rect fill="#1A4A7A" height="2" style="stroke:#1A4A7A;stroke-width:1.5;" width="66.8574" x="272" y="142.1172"/><rect fill="none" height="32.1172" rx="2" ry="2" style="stroke:#1A4A7A;stroke-width:1.5;" width="66.8574" x="272" y="112"/><ellipse cx="285" cy="128.0586" fill="#ADD1B2" rx="9" ry="9" style="stroke:#181818;stroke-width:1;"/><path d="M286.3125,131.8242 Q285.9375,132.0273 285.5156,132.1211 Q285.1094,132.2148 284.6406,132.2148 Q283.0313,132.2148 282.1719,131.1523 Q281.3125,130.0742 281.3125,128.0586 Q281.3125,126.0273 282.1719,124.9648 Q283.0313,123.8867 284.6406,123.8867 Q285.1094,123.8867 285.5156,123.9961 Q285.9375,124.0898 286.3125,124.2773 L286.3125,126.043 Q285.8906,125.668 285.5,125.4961 Q285.125,125.3242 284.7188,125.3242 Q283.8594,125.3242 283.4063,126.0117 Q282.9688,126.6992 282.9688,128.0586 Q282.9688,129.418 283.4063,130.1055 Q283.8594,130.793 284.7188,130.793 Q285.125,130.793 285.5,130.6211 Q285.8906,130.4492 286.3125,130.0586 L286.3125,131.8242 Z " fill="#000000"/><text fill="#A8C8E8" font-family="Helvetica Neue, Helvetica, Arial, sans-serif" font-size="9" font-style="italic" lengthAdjust="spacing" textLength="29.5664" x="301.6455" y="125.354">&#171;part&#187;</text><text fill="#FFFFFF" font-family="'Helvetica Neue, Helvetica, Arial, sans-serif'" font-size="10" font-weight="700" lengthAdjust="spacing" textLength="38.8574" x="297" y="136.7588">Sensor</text></a></g><!--class cps_block--><g class="entity" data-qualified-name="cps_block" data-source-line="5" id="ent0002"><a href="https://github.com/sjames/syscribe/blob/main/model_auto/System/Sensors/CrankshaftPositionSensor.md" target="_top" title="https://github.com/sjames/syscribe/blob/main/model_auto/System/Sensors/CrankshaftPositionSensor.md" xlink:actuate="onRequest" xlink:href="https://github.com/sjames/syscribe/blob/main/model_auto/System/Sensors/CrankshaftPositionSensor.md" xlink:show="new" xlink:title="https://github.com/sjames/syscribe/blob/main/model_auto/System/Sensors/CrankshaftPositionSensor.md" xlink:type="simple"><rect fill="#D4E6F1" height="32.1172" rx="2" ry="2" style="stroke:#1A4A7A;stroke-width:1.5;" width="181.335" x="7" y="7"/><rect fill="#1A4A7A" height="32.1172" rx="2" ry="2" style="stroke:#1A4A7A;stroke-width:1.5;" width="181.335" x="7" y="7"/><rect fill="#1A4A7A" height="2" style="stroke:#1A4A7A;stroke-width:1.5;" width="181.335" x="7" y="37.1172"/><rect fill="none" height="32.1172" rx="2" ry="2" style="stroke:#1A4A7A;stroke-width:1.5;" width="181.335" x="7" y="7"/><ellipse cx="20" cy="23.0586" fill="#ADD1B2" rx="9" ry="9" style="stroke:#181818;stroke-width:1;"/><path d="M21.3125,26.8242 Q20.9375,27.0273 20.5156,27.1211 Q20.1094,27.2148 19.6406,27.2148 Q18.0313,27.2148 17.1719,26.1523 Q16.3125,25.0742 16.3125,23.0586 Q16.3125,21.0273 17.1719,19.9648 Q18.0313,18.8867 19.6406,18.8867 Q20.1094,18.8867 20.5156,18.9961 Q20.9375,19.0898 21.3125,19.2773 L21.3125,21.043 Q20.8906,20.668 20.5,20.4961 Q20.125,20.3242 19.7188,20.3242 Q18.8594,20.3242 18.4063,21.0117 Q17.9688,21.6992 17.9688,23.0586 Q17.9688,24.418 18.4063,25.1055 Q18.8594,25.793 19.7188,25.793 Q20.125,25.793 20.5,25.6211 Q20.8906,25.4492 21.3125,25.0586 L21.3125,26.8242 Z " fill="#000000"/><text fill="#A8C8E8" font-family="Helvetica Neue, Helvetica, Arial, sans-serif" font-size="9" font-style="italic" lengthAdjust="spacing" textLength="29.5664" x="93.8843" y="20.354">&#171;part&#187;</text><text fill="#FFFFFF" font-family="'Helvetica Neue, Helvetica, Arial, sans-serif'" font-size="10" font-weight="700" lengthAdjust="spacing" textLength="153.335" x="32" y="31.7588">Crankshaft Position Sensor</text></a></g><!--class tps_block--><g class="entity" data-qualified-name="tps_block" data-source-line="6" id="ent0003"><a href="https://github.com/sjames/syscribe/blob/main/model_auto/System/Sensors/ThrottlePositionSensor.md" target="_top" title="https://github.com/sjames/syscribe/blob/main/model_auto/System/Sensors/ThrottlePositionSensor.md" xlink:actuate="onRequest" xlink:href="https://github.com/sjames/syscribe/blob/main/model_auto/System/Sensors/ThrottlePositionSensor.md" xlink:show="new" xlink:title="https://github.com/sjames/syscribe/blob/main/model_auto/System/Sensors/ThrottlePositionSensor.md" xlink:type="simple"><rect fill="#D4E6F1" height="32.1172" rx="2" ry="2" style="stroke:#1A4A7A;stroke-width:1.5;" width="165.1094" x="223" y="7"/><rect fill="#1A4A7A" height="32.1172" rx="2" ry="2" style="stroke:#1A4A7A;stroke-width:1.5;" width="165.1094" x="223" y="7"/><rect fill="#1A4A7A" height="2" style="stroke:#1A4A7A;stroke-width:1.5;" width="165.1094" x="223" y="37.1172"/><rect fill="none" height="32.1172" rx="2" ry="2" style="stroke:#1A4A7A;stroke-width:1.5;" width="165.1094" x="223" y="7"/><ellipse cx="236" cy="23.0586" fill="#ADD1B2" rx="9" ry="9" style="stroke:#181818;stroke-width:1;"/><path d="M237.3125,26.8242 Q236.9375,27.0273 236.5156,27.1211 Q236.1094,27.2148 235.6406,27.2148 Q234.0313,27.2148 233.1719,26.1523 Q232.3125,25.0742 232.3125,23.0586 Q232.3125,21.0273 233.1719,19.9648 Q234.0313,18.8867 235.6406,18.8867 Q236.1094,18.8867 236.5156,18.9961 Q236.9375,19.0898 237.3125,19.2773 L237.3125,21.043 Q236.8906,20.668 236.5,20.4961 Q236.125,20.3242 235.7188,20.3242 Q234.8594,20.3242 234.4063,21.0117 Q233.9688,21.6992 233.9688,23.0586 Q233.9688,24.418 234.4063,25.1055 Q234.8594,25.793 235.7188,25.793 Q236.125,25.793 236.5,25.6211 Q236.8906,25.4492 237.3125,25.0586 L237.3125,26.8242 Z " fill="#000000"/><text fill="#A8C8E8" font-family="Helvetica Neue, Helvetica, Arial, sans-serif" font-size="9" font-style="italic" lengthAdjust="spacing" textLength="29.5664" x="301.7715" y="20.354">&#171;part&#187;</text><text fill="#FFFFFF" font-family="'Helvetica Neue, Helvetica, Arial, sans-serif'" font-size="10" font-weight="700" lengthAdjust="spacing" textLength="137.1094" x="248" y="31.7588">Throttle Position Sensor</text></a></g><!--class lambda_block--><g class="entity" data-qualified-name="lambda_block" data-source-line="7" id="ent0004"><a href="https://github.com/sjames/syscribe/blob/main/model_auto/System/Sensors/LambdaSensor.md" target="_top" title="https://github.com/sjames/syscribe/blob/main/model_auto/System/Sensors/LambdaSensor.md" xlink:actuate="onRequest" xlink:href="https://github.com/sjames/syscribe/blob/main/model_auto/System/Sensors/LambdaSensor.md" xlink:show="new" xlink:title="https://github.com/sjames/syscribe/blob/main/model_auto/System/Sensors/LambdaSensor.md" xlink:type="simple"><rect fill="#D4E6F1" height="32.1172" rx="2" ry="2" style="stroke:#1A4A7A;stroke-width:1.5;" width="114.9434" x="423" y="7"/><rect fill="#1A4A7A" height="32.1172" rx="2" ry="2" style="stroke:#1A4A7A;stroke-width:1.5;" width="114.9434" x="423" y="7"/><rect fill="#1A4A7A" height="2" style="stroke:#1A4A7A;stroke-width:1.5;" width="114.9434" x="423" y="37.1172"/><rect fill="none" height="32.1172" rx="2" ry="2" style="stroke:#1A4A7A;stroke-width:1.5;" width="114.9434" x="423" y="7"/><ellipse cx="436" cy="23.0586" fill="#ADD1B2" rx="9" ry="9" style="stroke:#181818;stroke-width:1;"/><path d="M437.3125,26.8242 Q436.9375,27.0273 436.5156,27.1211 Q436.1094,27.2148 435.6406,27.2148 Q434.0313,27.2148 433.1719,26.1523 Q432.3125,25.0742 432.3125,23.0586 Q432.3125,21.0273 433.1719,19.9648 Q434.0313,18.8867 435.6406,18.8867 Q436.1094,18.8867 436.5156,18.9961 Q436.9375,19.0898 437.3125,19.2773 L437.3125,21.043 Q436.8906,20.668 436.5,20.4961 Q436.125,20.3242 435.7188,20.3242 Q434.8594,20.3242 434.4063,21.0117 Q433.9688,21.6992 433.9688,23.0586 Q433.9688,24.418 434.4063,25.1055 Q434.8594,25.793 435.7188,25.793 Q436.125,25.793 436.5,25.6211 Q436.8906,25.4492 437.3125,25.0586 L437.3125,26.8242 Z " fill="#000000"/><text fill="#A8C8E8" font-family="Helvetica Neue, Helvetica, Arial, sans-serif" font-size="9" font-style="italic" lengthAdjust="spacing" textLength="29.5664" x="476.6885" y="20.354">&#171;part&#187;</text><text fill="#FFFFFF" font-family="'Helvetica Neue, Helvetica, Arial, sans-serif'" font-size="10" font-weight="700" lengthAdjust="spacing" textLength="86.9434" x="448" y="31.7588">Lambda Sensor</text></a></g><!--link cps_block to sensor_block--><g class="link" data-entity-1="ent0002" data-entity-2="ent0001" data-link-type="extension" data-source-line="9" id="lnk5"><path codeLine="9" d="M128.19,39.2 C167.63,58.73 219.5601,84.4409 258.8901,103.9209" fill="none" id="cps_block-to-sensor_block" style="stroke:#1F497D;stroke-width:1.5;"/><polygon fill="none" points="275.02,111.91,261.5531,98.5443,256.227,109.2976,275.02,111.91" style="stroke:#1F497D;stroke-width:1.5;stroke-linejoin:miter;stroke-miterlimit:10;"/><text fill="#2C3E50" font-family="'Helvetica Neue, Helvetica, Arial, sans-serif'" font-size="10" lengthAdjust="spacing" textLength="53.0811" x="215.5" y="79.2822">cps-inherit</text></g><!--link tps_block to sensor_block--><g class="link" data-entity-1="ent0003" data-entity-2="ent0001" data-link-type="extension" data-source-line="10" id="lnk6"><path codeLine="10" d="M305.5,39.2 C305.5,58.67 305.5,74.24 305.5,93.74" fill="none" id="tps_block-to-sensor_block" style="stroke:#1F497D;stroke-width:1.5;"/><polygon fill="none" points="305.5,111.74,311.5,93.74,299.5,93.74,305.5,111.74" style="stroke:#1F497D;stroke-width:1.5;stroke-linejoin:miter;stroke-miterlimit:10;"/><text fill="#2C3E50" font-family="'Helvetica Neue, Helvetica, Arial, sans-serif'" font-size="10" lengthAdjust="spacing" textLength="51.5039" x="306.5" y="79.2822">tps-inherit</text></g><!--link lambda_block to sensor_block--><g class="link" data-entity-1="ent0004" data-entity-2="ent0001" data-link-type="extension" data-source-line="11" id="lnk7"><path codeLine="11" d="M454.68,39.2 C421.5,58.73 379.7529,83.3004 346.6529,102.7804" fill="none" id="lambda_block-to-sensor_block" style="stroke:#1F497D;stroke-width:1.5;"/><polygon fill="none" points="331.14,111.91,349.6961,107.9513,343.6097,97.6094,331.14,111.91" style="stroke:#1F497D;stroke-width:1.5;stroke-linejoin:miter;stroke-miterlimit:10;"/><text fill="#2C3E50" font-family="'Helvetica Neue, Helvetica, Arial, sans-serif'" font-size="10" lengthAdjust="spacing" textLength="73.4961" x="403.5" y="79.2822">lambda-inherit</text></g><?plantuml-src jPAnYiCm38RtF8MlUwAzb2ottd3GsqefjgEhVRNiO2b3u1x-qkRIfX2wPR8Gl_W-8R_vQ4FNe0AN285_D2536tH_pgcB3N3FDdk3K0tDA1s5Quj2vOUoS7uOHMgbLuHaC7DHsA2PrMQFaLFUACsAR-N9X6GlQhThTPQwLeU34sbv2t3suZfJsKIJm9qwp1WWxIDGQZ2ST2S9zZqB4em4_dyhQex72VwUTRomqz-YFXDxyIcgcP1jUJMR1teYB_XzkPn40YxQoOfs4_Y5suScq-YvKBXrLdCQWNEJud6Wilojdp_Gzdg-qaU7sKiXBvCoIpvjiHGU0_Vy7m00?></g></svg>