<svg xmlns="http://www.w3.org/2000/svg" viewBox="0 0 624 450" width="624" height="450">
<style>text{font-family:'Inter','Roboto',system-ui,sans-serif}@font-face{font-family:'Inter';font-weight:400;src:url('https://fonts.bunny.net/inter/files/inter-latin-400-normal.woff2') format('woff2')}@font-face{font-family:'Inter';font-weight:700;src:url('https://fonts.bunny.net/inter/files/inter-latin-700-normal.woff2') format('woff2')}</style>
<rect width="624" height="450" fill="#ffffff"/>
<text x="40.0" y="32.0" font-size="16" font-weight="700" fill="#1a1a2e">AvionicsBayIBD</text>
<defs><marker id="arr-open" markerUnits="userSpaceOnUse" markerWidth="8" markerHeight="6" refX="7" refY="3" orient="auto"><polyline points="0,0 7,3 0,6" fill="none" stroke="#888" stroke-width="1.2"/></marker><marker id="arr-flow" markerUnits="userSpaceOnUse" markerWidth="8" markerHeight="6" refX="7" refY="3" orient="auto"><polyline points="0,0 7,3 0,6" fill="none" stroke="#3a6ea5" stroke-width="1.2"/></marker><marker id="arr-verify" markerUnits="userSpaceOnUse" markerWidth="8" markerHeight="6" refX="7" refY="3" orient="auto"><polyline points="0,0 7,3 0,6" fill="none" stroke="#3a6ea5" stroke-width="1.2"/></marker><marker id="arr-alloc" markerUnits="userSpaceOnUse" markerWidth="8" markerHeight="6" refX="7" refY="3" orient="auto"><polyline points="0,0 7,3 0,6" fill="none" stroke="#7a3ea5" stroke-width="1.2"/></marker><marker id="arr-satisfy" markerUnits="userSpaceOnUse" markerWidth="8" markerHeight="6" refX="7" refY="3" orient="auto"><polyline points="0,0 7,3 0,6" fill="none" stroke="#1a6b30" stroke-width="1.2"/></marker><marker id="arr-generalize" markerUnits="userSpaceOnUse" markerWidth="10" markerHeight="8" refX="9" refY="4" orient="auto"><polygon points="0,0 9,4 0,8" fill="white" stroke="#3a3a5c" stroke-width="1.2"/></marker></defs>
<path d="M 205.0 115.0 L 227.0 115.0" fill="none" stroke="#3a6ea5" stroke-width="1.4" marker-end="url(#arr-flow)"/>
<path d="M 205.0 115.0 L 216.0 115.0 L 216.0 269.0 L 227.0 269.0" fill="none" stroke="#3a6ea5" stroke-width="1.4" marker-end="url(#arr-flow)"/>
<path d="M 205.0 115.0 L 216.0 115.0 L 216.0 389.0 L 227.0 389.0" fill="none" stroke="#3a6ea5" stroke-width="1.4" marker-end="url(#arr-flow)"/>
<path d="M 399.0 121.0 L 409.0 121.0 L 409.0 127.0 L 419.0 127.0" fill="none" stroke="#3a6ea5" stroke-width="1.4" marker-end="url(#arr-flow)"/>
<path d="M 397.0 149.0 L 408.0 149.0 L 408.0 269.0 L 419.0 269.0" fill="none" stroke="#3a6ea5" stroke-width="1.4" marker-end="url(#arr-flow)"/>
<a href="/ui/detail/UAV::Power::PowerDistributionUnit" data-qname="UAV::Power::PowerDistributionUnit"><g transform="translate(40.0 40.0)">
<defs><style>@font-face{font-family:'Inter';font-weight:400;src:url('https://fonts.bunny.net/inter/files/inter-latin-400-normal.woff2') format('woff2')}@font-face{font-family:'Inter';font-weight:700;src:url('https://fonts.bunny.net/inter/files/inter-latin-700-normal.woff2') format('woff2')}text{font-family:'Inter','Roboto',system-ui,sans-serif}</style></defs>
<rect x="0" y="0.0" width="160.0" height="54.0" fill="#eef3fa"/>
<text x="16.0" y="16.5" font-size="9" fill="#4a6ea5" font-style="italic">«part def»</text>
<text x="16.0" y="35.5" font-size="13" font-weight="700" fill="#1a2540">PowerDistributionUnit</text>
<rect x="0" y="54.0" width="160.0" height="42.0" fill="#ffffff"/>
<rect x="-5.0" y="70.0" width="10" height="10" fill="#ffffff" stroke="#a8bcd4" stroke-width="1.2"/>
<text x="8.0" y="78.5" font-size="9" fill="#7a8aaa">powerIn : Port</text>
<rect x="155.0" y="70.0" width="10" height="10" fill="#ffffff" stroke="#a8bcd4" stroke-width="1.2"/>
<text x="152.0" y="78.5" font-size="9" fill="#7a8aaa" text-anchor="end">powerOut : Port</text>
<rect x="0" y="0" width="4" height="96.0" fill="#3a6ea5"/>
<rect x="0.6" y="0.6" width="158.8" height="94.8" rx="1" ry="1" fill="none" stroke="#a8bcd4" stroke-width="1.2"/>
</g></a>
<a href="/ui/detail/UAV::Avionics::FlightController" data-qname="UAV::Avionics::FlightController"><g transform="translate(232.0 40.0)">
<defs><style>@font-face{font-family:'Inter';font-weight:400;src:url('https://fonts.bunny.net/inter/files/inter-latin-400-normal.woff2') format('woff2')}@font-face{font-family:'Inter';font-weight:700;src:url('https://fonts.bunny.net/inter/files/inter-latin-700-normal.woff2') format('woff2')}text{font-family:'Inter','Roboto',system-ui,sans-serif}</style></defs>
<rect x="0" y="0.0" width="160.0" height="54.0" fill="#eef3fa"/>
<text x="16.0" y="16.5" font-size="9" fill="#4a6ea5" font-style="italic">«part def»</text>
<text x="16.0" y="35.5" font-size="13" font-weight="700" fill="#1a2540">FlightController</text>
<rect x="0" y="54.0" width="160.0" height="76.0" fill="#ffffff"/>
<rect x="-5.0" y="70.0" width="10" height="10" fill="#ffffff" stroke="#a8bcd4" stroke-width="1.2"/>
<text x="8.0" y="78.5" font-size="9" fill="#7a8aaa">powerIn : Port</text>
<rect x="153.0" y="70.0" width="14" height="22.0" fill="#ffffff" stroke="#a8bcd4" stroke-width="1.2"/>
<text x="150.0" y="84.5" font-size="9" fill="#7a8aaa" text-anchor="end">controlOut : Port</text>
<rect x="157.0" y="71.0" width="6" height="6" fill="#c47a1e" stroke="#a8bcd4" stroke-width="1"/>
<rect x="157.0" y="78.0" width="6" height="6" fill="#c47a1e" stroke="#a8bcd4" stroke-width="1"/>
<rect x="157.0" y="85.0" width="6" height="6" fill="#c47a1e" stroke="#a8bcd4" stroke-width="1"/>
<rect x="155.0" y="104.0" width="10" height="10" fill="#ffffff" stroke="#a8bcd4" stroke-width="1.2"/>
<text x="152.0" y="112.5" font-size="9" fill="#7a8aaa" text-anchor="end">telemetryOut : Port</text>
<rect x="0" y="0" width="4" height="130.0" fill="#3a6ea5"/>
<rect x="0.6" y="0.6" width="158.8" height="128.8" rx="1" ry="1" fill="none" stroke="#a8bcd4" stroke-width="1.2"/>
</g></a>
<a href="/ui/detail/UAV::Propulsion::PropulsionSystem" data-qname="UAV::Propulsion::PropulsionSystem"><g transform="translate(424.0 40.0)">
<defs><style>@font-face{font-family:'Inter';font-weight:400;src:url('https://fonts.bunny.net/inter/files/inter-latin-400-normal.woff2') format('woff2')}@font-face{font-family:'Inter';font-weight:700;src:url('https://fonts.bunny.net/inter/files/inter-latin-700-normal.woff2') format('woff2')}text{font-family:'Inter','Roboto',system-ui,sans-serif}</style></defs>
<rect x="0" y="0.0" width="160.0" height="66.0" fill="#eef3fa"/>
<text x="16.0" y="16.5" font-size="9" fill="#4a6ea5" font-style="italic">«part def»</text>
<text x="16.0" y="35.5" font-size="13" font-weight="700" fill="#1a2540" font-style="italic">PropulsionSystem</text>
<text x="16.0" y="54.1" font-size="9" fill="#4a6ea5" font-style="italic">{abstract}</text>
<rect x="0" y="66.0" width="160.0" height="42.0" fill="#ffffff"/>
<rect x="-5.0" y="82.0" width="10" height="10" fill="#ffffff" stroke="#a8bcd4" stroke-width="1.2"/>
<text x="8.0" y="90.5" font-size="9" fill="#7a8aaa">powerIn : Port</text>
<rect x="0" y="0" width="4" height="108.0" fill="#3a6ea5"/>
<rect x="0.6" y="0.6" width="158.8" height="106.8" rx="1" ry="1" fill="none" stroke="#a8bcd4" stroke-width="1.2"/>
</g></a>
<a href="/ui/detail/UAV::Avionics::IMU" data-qname="UAV::Avionics::IMU"><g transform="translate(232.0 194.0)">
<defs><style>@font-face{font-family:'Inter';font-weight:400;src:url('https://fonts.bunny.net/inter/files/inter-latin-400-normal.woff2') format('woff2')}@font-face{font-family:'Inter';font-weight:700;src:url('https://fonts.bunny.net/inter/files/inter-latin-700-normal.woff2') format('woff2')}text{font-family:'Inter','Roboto',system-ui,sans-serif}</style></defs>
<rect x="0" y="0.0" width="160.0" height="54.0" fill="#eef3fa"/>
<text x="16.0" y="16.5" font-size="9" fill="#4a6ea5" font-style="italic">«part def»</text>
<text x="16.0" y="35.5" font-size="13" font-weight="700" fill="#1a2540">IMU</text>
<rect x="0" y="54.0" width="160.0" height="42.0" fill="#ffffff"/>
<rect x="-5.0" y="70.0" width="10" height="10" fill="#ffffff" stroke="#a8bcd4" stroke-width="1.2"/>
<text x="8.0" y="78.5" font-size="9" fill="#7a8aaa">powerIn : Port</text>
<rect x="0" y="0" width="4" height="96.0" fill="#3a6ea5"/>
<rect x="0.6" y="0.6" width="158.8" height="94.8" rx="1" ry="1" fill="none" stroke="#a8bcd4" stroke-width="1.2"/>
</g></a>
<a href="/ui/detail/UAV::Avionics::GPSReceiver" data-qname="UAV::Avionics::GPSReceiver"><g transform="translate(232.0 314.0)">
<defs><style>@font-face{font-family:'Inter';font-weight:400;src:url('https://fonts.bunny.net/inter/files/inter-latin-400-normal.woff2') format('woff2')}@font-face{font-family:'Inter';font-weight:700;src:url('https://fonts.bunny.net/inter/files/inter-latin-700-normal.woff2') format('woff2')}text{font-family:'Inter','Roboto',system-ui,sans-serif}</style></defs>
<rect x="0" y="0.0" width="160.0" height="54.0" fill="#eef3fa"/>
<text x="16.0" y="16.5" font-size="9" fill="#4a6ea5" font-style="italic">«part def»</text>
<text x="16.0" y="35.5" font-size="13" font-weight="700" fill="#1a2540">GPSReceiver</text>
<rect x="0" y="54.0" width="160.0" height="42.0" fill="#ffffff"/>
<rect x="-5.0" y="70.0" width="10" height="10" fill="#ffffff" stroke="#a8bcd4" stroke-width="1.2"/>
<text x="8.0" y="78.5" font-size="9" fill="#7a8aaa">powerIn : Port</text>
<rect x="0" y="0" width="4" height="96.0" fill="#3a6ea5"/>
<rect x="0.6" y="0.6" width="158.8" height="94.8" rx="1" ry="1" fill="none" stroke="#a8bcd4" stroke-width="1.2"/>
</g></a>
<a href="/ui/detail/GroundStation::GroundControlStation" data-qname="GroundStation::GroundControlStation"><g transform="translate(424.0 194.0)">
<defs><style>@font-face{font-family:'Inter';font-weight:400;src:url('https://fonts.bunny.net/inter/files/inter-latin-400-normal.woff2') format('woff2')}@font-face{font-family:'Inter';font-weight:700;src:url('https://fonts.bunny.net/inter/files/inter-latin-700-normal.woff2') format('woff2')}text{font-family:'Inter','Roboto',system-ui,sans-serif}</style></defs>
<rect x="0" y="0.0" width="160.0" height="54.0" fill="#eef3fa"/>
<text x="16.0" y="16.5" font-size="9" fill="#4a6ea5" font-style="italic">«part def»</text>
<text x="16.0" y="35.5" font-size="13" font-weight="700" fill="#1a2540">GroundControlStation</text>
<rect x="0" y="54.0" width="160.0" height="42.0" fill="#ffffff"/>
<rect x="-5.0" y="70.0" width="10" height="10" fill="#ffffff" stroke="#a8bcd4" stroke-width="1.2"/>
<text x="8.0" y="78.5" font-size="9" fill="#7a8aaa">telemetryIn : Port</text>
<rect x="0" y="0" width="4" height="96.0" fill="#3a6ea5"/>
<rect x="0.6" y="0.6" width="158.8" height="94.8" rx="1" ry="1" fill="none" stroke="#a8bcd4" stroke-width="1.2"/>
</g></a>
</svg>