<svg xmlns="http://www.w3.org/2000/svg" viewBox="0 0 1752 500" width="1752" height="500">
<style>text{font-family:'Inter','Roboto',system-ui,sans-serif}@font-face{font-family:'Inter';font-weight:400;src:url('https://fonts.bunny.net/inter/files/inter-latin-400-normal.woff2') format('woff2')}@font-face{font-family:'Inter';font-weight:700;src:url('https://fonts.bunny.net/inter/files/inter-latin-700-normal.woff2') format('woff2')}</style>
<rect width="1752" height="500" fill="#ffffff"/>
<text x="40.0" y="32.0" font-size="16" font-weight="700" fill="#1a1a2e">UAV shall not cause injury to persons or property during any flight phase — Requirement Diagram</text>
<defs><marker id="arr-open" markerWidth="10" markerHeight="7" refX="9" refY="3.5" orient="auto"><polyline points="0,0 9,3.5 0,7" fill="none" stroke="#888" stroke-width="1.2"/></marker><marker id="arr-flow" markerWidth="10" markerHeight="7" refX="9" refY="3.5" orient="auto"><polyline points="0,0 9,3.5 0,7" fill="none" stroke="#3a6ea5" stroke-width="1.2"/></marker><marker id="arr-verify" markerWidth="10" markerHeight="7" refX="9" refY="3.5" orient="auto"><polyline points="0,0 9,3.5 0,7" fill="none" stroke="#3a6ea5" stroke-width="1.2"/></marker><marker id="arr-alloc" markerWidth="10" markerHeight="7" refX="9" refY="3.5" orient="auto"><polyline points="0,0 9,3.5 0,7" fill="none" stroke="#7a3ea5" stroke-width="1.2"/></marker><marker id="arr-satisfy" markerWidth="10" markerHeight="7" refX="9" refY="3.5" orient="auto"><polyline points="0,0 9,3.5 0,7" fill="none" stroke="#1a6b30" stroke-width="1.2"/></marker><marker id="arr-generalize" markerWidth="12" markerHeight="10" refX="11" refY="5" orient="auto"><polygon points="0,0 12,5 0,10" fill="white" stroke="#3a3a5c" stroke-width="1.2"/></marker></defs>
<path d="M 256.0 244.0 L 256.0 224.0 L 484.0 224.0 L 484.0 204.0" fill="none" stroke="#555" stroke-width="1.4" stroke-dasharray="5,3" marker-end="url(#arr-open)"/><text x="370.0" y="220.0" font-size="9" fill="#555" text-anchor="middle" font-style="italic">«derive»</text>
<path d="M 710.0 244.0 L 710.0 224.0 L 484.0 224.0 L 484.0 204.0" fill="none" stroke="#555" stroke-width="1.4" stroke-dasharray="5,3" marker-end="url(#arr-open)"/><text x="597.0" y="220.0" font-size="9" fill="#555" text-anchor="middle" font-style="italic">«derive»</text>
<path d="M 976.0 312.0 L 472.0 312.0" fill="none" stroke="#3a6ea5" stroke-width="1.4" stroke-dasharray="5,3" marker-end="url(#arr-verify)"/><text x="724.0" y="308.0" font-size="9" fill="#3a6ea5" text-anchor="middle" font-style="italic">«verify»</text>
<path d="M 976.0 417.0 L 952.0 417.0 L 952.0 312.0 L 928.0 312.0" fill="none" stroke="#3a6ea5" stroke-width="1.4" stroke-dasharray="5,3" marker-end="url(#arr-verify)"/><text x="952.0" y="360.5" font-size="9" fill="#3a6ea5" text-anchor="middle" font-style="italic">«verify»</text>
<path d="M 976.0 136.0 L 728.0 136.0" fill="none" stroke="#3a6ea5" stroke-width="1.4" stroke-dasharray="5,3" marker-end="url(#arr-verify)"/><text x="852.0" y="132.0" font-size="9" fill="#3a6ea5" text-anchor="middle" font-style="italic">«verify»</text>
<path d="M 1532.0 312.0 L 472.0 312.0" fill="none" stroke="#1a6b30" stroke-width="1.4" stroke-dasharray="4,2" marker-end="url(#arr-satisfy)"/><text x="1002.0" y="308.0" font-size="9" fill="#1a6b30" text-anchor="middle" font-style="italic">«satisfy»</text>
<g transform="translate(240.0 68.0)">
<defs><style>@font-face{font-family:'Inter';font-weight:400;src:url('https://fonts.bunny.net/inter/files/inter-latin-400-normal.woff2') format('woff2')}@font-face{font-family:'Inter';font-weight:700;src:url('https://fonts.bunny.net/inter/files/inter-latin-700-normal.woff2') format('woff2')}text{font-family:'Inter','Roboto',system-ui,sans-serif}</style></defs>
<rect x="0" y="0.0" width="488.0" height="54.0" fill="#f4effe"/>
<text x="16.0" y="16.5" font-size="9" fill="#7040c0" font-style="italic">«requirement»</text>
<text x="16.0" y="35.5" font-size="13" font-weight="700" fill="#2a0a50">UAV shall not cause injury to persons or property during any flight phase</text>
<rect x="389.6" y="18.0" width="86.4" height="18" rx="4" fill="#7040c0"/><text x="432.8" y="30.2" font-size="9" font-weight="400" fill="#2a0a50" text-anchor="middle" font-family="'JetBrains Mono','Roboto Mono',monospace">REQ-UAV-SAFE-000</text>
<line x1="0" y1="54.0" x2="488.0" y2="54.0" stroke="#7040c0" stroke-width="1"/>
<rect x="0" y="55.0" width="488.0" height="30.0" fill="#ffffff"/>
<rect x="16.0" y="61.0" width="47.9" height="18" rx="4" fill="#22c55e"/><text x="40.0" y="73.2" font-size="9" fill="#ffffff" text-anchor="middle">approved</text>
<rect x="69.9" y="61.0" width="33.2" height="18" rx="4" fill="#f97316"/><text x="86.5" y="73.2" font-size="9" fill="#ffffff" text-anchor="middle">SIL-2</text>
<rect x="109.1" y="61.0" width="38.7" height="18" rx="4" fill="#f97316"/><text x="128.5" y="73.2" font-size="9" fill="#ffffff" text-anchor="middle">ASIL-B</text>
<line x1="0" y1="85.0" x2="488.0" y2="85.0" stroke="#e8d8f8" stroke-width="1"/>
<rect x="0" y="86.0" width="488.0" height="50.0" fill="#ffffff"/>
<text x="16.0" y="99.2" font-size="10" fill="#8a70b0" font-style="italic">The UAV system shall not cause injury to persons…</text>
<text x="16.0" y="117.2" font-size="10" fill="#8a70b0" font-style="italic">Stakeholder-level safety goal derived from regul…</text>
<rect x="0" y="0" width="4" height="136.0" fill="#7040c0"/>
<rect x="0.6" y="0.6" width="486.8" height="134.8" rx="1" ry="1" fill="none" stroke="#c0a0e0" stroke-width="1.2"/>
</g>
<g transform="translate(40.0 244.0)">
<defs><style>@font-face{font-family:'Inter';font-weight:400;src:url('https://fonts.bunny.net/inter/files/inter-latin-400-normal.woff2') format('woff2')}@font-face{font-family:'Inter';font-weight:700;src:url('https://fonts.bunny.net/inter/files/inter-latin-700-normal.woff2') format('woff2')}text{font-family:'Inter','Roboto',system-ui,sans-serif}</style></defs>
<rect x="0" y="0.0" width="432.0" height="54.0" fill="#f4effe"/>
<text x="16.0" y="16.5" font-size="9" fill="#7040c0" font-style="italic">«requirement»</text>
<text x="16.0" y="35.5" font-size="13" font-weight="700" fill="#2a0a50">Flight controller shall detect single sensor failure within 50 ms</text>
<rect x="342.8" y="18.0" width="77.2" height="18" rx="4" fill="#7040c0"/><text x="381.4" y="30.2" font-size="9" font-weight="400" fill="#2a0a50" text-anchor="middle" font-family="'JetBrains Mono','Roboto Mono',monospace">REQ-UAV-FC-001</text>
<line x1="0" y1="54.0" x2="432.0" y2="54.0" stroke="#7040c0" stroke-width="1"/>
<rect x="0" y="55.0" width="432.0" height="30.0" fill="#ffffff"/>
<rect x="16.0" y="61.0" width="47.9" height="18" rx="4" fill="#22c55e"/><text x="40.0" y="73.2" font-size="9" fill="#ffffff" text-anchor="middle">approved</text>
<rect x="69.9" y="61.0" width="33.2" height="18" rx="4" fill="#ef4444"/><text x="86.5" y="73.2" font-size="9" fill="#ffffff" text-anchor="middle">SIL-3</text>
<rect x="109.1" y="61.0" width="38.9" height="18" rx="4" fill="#ef4444"/><text x="128.6" y="73.2" font-size="9" fill="#ffffff" text-anchor="middle">ASIL-C</text>
<rect x="154.0" y="61.0" width="46.1" height="18" rx="4" fill="#3b82f6"/><text x="177.1" y="73.2" font-size="9" fill="#ffffff" text-anchor="middle">software</text>
<line x1="0" y1="85.0" x2="432.0" y2="85.0" stroke="#e8d8f8" stroke-width="1"/>
<rect x="0" y="86.0" width="432.0" height="50.0" fill="#ffffff"/>
<text x="16.0" y="99.2" font-size="10" fill="#8a70b0" font-style="italic">The flight controller shall detect and respond t…</text>
<text x="16.0" y="117.2" font-size="10" fill="#8a70b0" font-style="italic">DO-178C DAL A requires bounded fault detection a…</text>
<rect x="0" y="0" width="4" height="136.0" fill="#7040c0"/>
<rect x="0.6" y="0.6" width="430.8" height="134.8" rx="1" ry="1" fill="none" stroke="#c0a0e0" stroke-width="1.2"/>
</g>
<g transform="translate(492.0 244.0)">
<defs><style>@font-face{font-family:'Inter';font-weight:400;src:url('https://fonts.bunny.net/inter/files/inter-latin-400-normal.woff2') format('woff2')}@font-face{font-family:'Inter';font-weight:700;src:url('https://fonts.bunny.net/inter/files/inter-latin-700-normal.woff2') format('woff2')}text{font-family:'Inter','Roboto',system-ui,sans-serif}</style></defs>
<rect x="0" y="0.0" width="436.0" height="54.0" fill="#f4effe"/>
<text x="16.0" y="16.5" font-size="9" fill="#7040c0" font-style="italic">«requirement»</text>
<text x="16.0" y="35.5" font-size="13" font-weight="700" fill="#2a0a50">Autonomous safe landing on battery-critical or link-loss event</text>
<rect x="337.6" y="18.0" width="86.4" height="18" rx="4" fill="#7040c0"/><text x="380.8" y="30.2" font-size="9" font-weight="400" fill="#2a0a50" text-anchor="middle" font-family="'JetBrains Mono','Roboto Mono',monospace">REQ-UAV-SAFE-001</text>
<line x1="0" y1="54.0" x2="436.0" y2="54.0" stroke="#7040c0" stroke-width="1"/>
<rect x="0" y="55.0" width="436.0" height="30.0" fill="#ffffff"/>
<rect x="16.0" y="61.0" width="47.9" height="18" rx="4" fill="#22c55e"/><text x="40.0" y="73.2" font-size="9" fill="#ffffff" text-anchor="middle">approved</text>
<rect x="69.9" y="61.0" width="33.2" height="18" rx="4" fill="#f97316"/><text x="86.5" y="73.2" font-size="9" fill="#ffffff" text-anchor="middle">SIL-2</text>
<rect x="109.1" y="61.0" width="38.7" height="18" rx="4" fill="#f97316"/><text x="128.5" y="73.2" font-size="9" fill="#ffffff" text-anchor="middle">ASIL-B</text>
<rect x="153.8" y="61.0" width="46.1" height="18" rx="4" fill="#3b82f6"/><text x="176.9" y="73.2" font-size="9" fill="#ffffff" text-anchor="middle">software</text>
<line x1="0" y1="85.0" x2="436.0" y2="85.0" stroke="#e8d8f8" stroke-width="1"/>
<rect x="0" y="86.0" width="436.0" height="50.0" fill="#ffffff"/>
<text x="16.0" y="99.2" font-size="10" fill="#8a70b0" font-style="italic">The UAV shall execute an autonomous landing with…</text>
<text x="16.0" y="117.2" font-size="10" fill="#8a70b0" font-style="italic">An uncontrolled descent following loss of link o…</text>
<rect x="0" y="0" width="4" height="136.0" fill="#7040c0"/>
<rect x="0.6" y="0.6" width="434.8" height="134.8" rx="1" ry="1" fill="none" stroke="#c0a0e0" stroke-width="1.2"/>
</g>
<g transform="translate(976.0 269.5)">
<defs><style>@font-face{font-family:'Inter';font-weight:400;src:url('https://fonts.bunny.net/inter/files/inter-latin-400-normal.woff2') format('woff2')}@font-face{font-family:'Inter';font-weight:700;src:url('https://fonts.bunny.net/inter/files/inter-latin-700-normal.woff2') format('woff2')}text{font-family:'Inter','Roboto',system-ui,sans-serif}</style></defs>
<rect x="0" y="0.0" width="416.0" height="54.0" fill="#edfbf2"/>
<text x="16.0" y="16.5" font-size="9" fill="#2a7a44" font-style="italic">«test case»</text>
<text x="16.0" y="35.5" font-size="13" font-weight="700" fill="#0a2e14">FC detects injected sensor failure within 50 ms on HIL bench</text>
<rect x="331.6" y="18.0" width="72.4" height="18" rx="4" fill="#2a7a44"/><text x="367.8" y="30.2" font-size="9" font-weight="400" fill="#0a2e14" text-anchor="middle" font-family="'JetBrains Mono','Roboto Mono',monospace">TC-UAV-FC-001</text>
<line x1="0" y1="54.0" x2="416.0" y2="54.0" stroke="#2a7a44" stroke-width="1"/>
<rect x="0" y="55.0" width="416.0" height="30.0" fill="#ffffff"/>
<rect x="16.0" y="61.0" width="36.4" height="18" rx="4" fill="#e5e7eb"/><text x="34.2" y="73.2" font-size="9" fill="#374151" text-anchor="middle">active</text>
<rect x="58.4" y="61.0" width="24.5" height="18" rx="4" fill="#7c3aed"/><text x="70.6" y="73.2" font-size="9" fill="#ffffff" text-anchor="middle">L5</text>
<rect x="0" y="0" width="4" height="85.0" fill="#2a7a44"/>
<rect x="0.6" y="0.6" width="414.8" height="83.8" rx="1" ry="1" fill="none" stroke="#90c8a4" stroke-width="1.2"/>
</g>
<g transform="translate(976.0 374.5)">
<defs><style>@font-face{font-family:'Inter';font-weight:400;src:url('https://fonts.bunny.net/inter/files/inter-latin-400-normal.woff2') format('woff2')}@font-face{font-family:'Inter';font-weight:700;src:url('https://fonts.bunny.net/inter/files/inter-latin-700-normal.woff2') format('woff2')}text{font-family:'Inter','Roboto',system-ui,sans-serif}</style></defs>
<rect x="0" y="0.0" width="460.0" height="54.0" fill="#edfbf2"/>
<text x="16.0" y="16.5" font-size="9" fill="#2a7a44" font-style="italic">«test case»</text>
<text x="16.0" y="35.5" font-size="13" font-weight="700" fill="#0a2e14">Autonomous landing descent rate ≤ 3 m/s on battery-critical trigger</text>
<rect x="366.4" y="18.0" width="81.6" height="18" rx="4" fill="#2a7a44"/><text x="407.2" y="30.2" font-size="9" font-weight="400" fill="#0a2e14" text-anchor="middle" font-family="'JetBrains Mono','Roboto Mono',monospace">TC-UAV-SAFE-001</text>
<line x1="0" y1="54.0" x2="460.0" y2="54.0" stroke="#2a7a44" stroke-width="1"/>
<rect x="0" y="55.0" width="460.0" height="30.0" fill="#ffffff"/>
<rect x="16.0" y="61.0" width="36.4" height="18" rx="4" fill="#e5e7eb"/><text x="34.2" y="73.2" font-size="9" fill="#374151" text-anchor="middle">active</text>
<rect x="58.4" y="61.0" width="24.5" height="18" rx="4" fill="#7c3aed"/><text x="70.6" y="73.2" font-size="9" fill="#ffffff" text-anchor="middle">L5</text>
<rect x="0" y="0" width="4" height="85.0" fill="#2a7a44"/>
<rect x="0.6" y="0.6" width="458.8" height="83.8" rx="1" ry="1" fill="none" stroke="#90c8a4" stroke-width="1.2"/>
</g>
<g transform="translate(976.0 93.5)">
<defs><style>@font-face{font-family:'Inter';font-weight:400;src:url('https://fonts.bunny.net/inter/files/inter-latin-400-normal.woff2') format('woff2')}@font-face{font-family:'Inter';font-weight:700;src:url('https://fonts.bunny.net/inter/files/inter-latin-700-normal.woff2') format('woff2')}text{font-family:'Inter','Roboto',system-ui,sans-serif}</style></defs>
<rect x="0" y="0.0" width="532.0" height="54.0" fill="#edfbf2"/>
<text x="16.0" y="16.5" font-size="9" fill="#2a7a44" font-style="italic">«test case»</text>
<text x="16.0" y="35.5" font-size="13" font-weight="700" fill="#0a2e14">Safety case review confirms UAV shall not cause injury across all flight phases</text>
<rect x="421.2" y="18.0" width="98.8" height="18" rx="4" fill="#2a7a44"/><text x="470.6" y="30.2" font-size="9" font-weight="400" fill="#0a2e14" text-anchor="middle" font-family="'JetBrains Mono','Roboto Mono',monospace">TC-UAV-SAFE-SYS-001</text>
<line x1="0" y1="54.0" x2="532.0" y2="54.0" stroke="#2a7a44" stroke-width="1"/>
<rect x="0" y="55.0" width="532.0" height="30.0" fill="#ffffff"/>
<rect x="16.0" y="61.0" width="36.4" height="18" rx="4" fill="#e5e7eb"/><text x="34.2" y="73.2" font-size="9" fill="#374151" text-anchor="middle">active</text>
<rect x="58.4" y="61.0" width="24.5" height="18" rx="4" fill="#bfdbfe"/><text x="70.6" y="73.2" font-size="9" fill="#1e40af" text-anchor="middle">L2</text>
<rect x="0" y="0" width="4" height="85.0" fill="#2a7a44"/>
<rect x="0.6" y="0.6" width="530.8" height="83.8" rx="1" ry="1" fill="none" stroke="#90c8a4" stroke-width="1.2"/>
</g>
<g transform="translate(1532.0 269.5)">
<defs><style>@font-face{font-family:'Inter';font-weight:400;src:url('https://fonts.bunny.net/inter/files/inter-latin-400-normal.woff2') format('woff2')}@font-face{font-family:'Inter';font-weight:700;src:url('https://fonts.bunny.net/inter/files/inter-latin-700-normal.woff2') format('woff2')}text{font-family:'Inter','Roboto',system-ui,sans-serif}</style></defs>
<rect x="0" y="0.0" width="180.0" height="54.0" fill="#eef3fa"/>
<text x="16.0" y="16.5" font-size="9" fill="#4a6ea5" font-style="italic">«part def»</text>
<text x="16.0" y="35.5" font-size="13" font-weight="700" fill="#1a2540">FlightController</text>
<line x1="0" y1="54.0" x2="180.0" y2="54.0" stroke="#3a6ea5" stroke-width="1"/>
<rect x="0" y="55.0" width="180.0" height="30.0" fill="#ffffff"/>
<rect x="16.0" y="61.0" width="46.1" height="18" rx="4" fill="#3b82f6"/><text x="39.1" y="73.2" font-size="9" fill="#ffffff" text-anchor="middle">software</text>
<rect x="0" y="0" width="4" height="85.0" fill="#3a6ea5"/>
<rect x="0.6" y="0.6" width="178.8" height="83.8" rx="1" ry="1" fill="none" stroke="#a8bcd4" stroke-width="1.2"/>
</g>
</svg>