<svg xmlns="http://www.w3.org/2000/svg" xmlns:xlink="http://www.w3.org/1999/xlink" contentStyleType="text/css" data-diagram-type="CLASS" height="295px" preserveAspectRatio="none" style="width:1648px;height:295px;background:#FFFFFF;" version="1.1" viewBox="0 0 1648 295" width="1648px" zoomAndPan="magnify"><?plantuml 1.2026.6?><defs/><g><!--class s_safe--><g class="entity" data-qualified-name="s_safe" data-source-line="7" id="ent0001"><a href="https://github.com/sjames/syscribe/blob/main/model/Requirements/SafetyParentReq.md" target="_top" title="https://github.com/sjames/syscribe/blob/main/model/Requirements/SafetyParentReq.md" xlink:actuate="onRequest" xlink:href="https://github.com/sjames/syscribe/blob/main/model/Requirements/SafetyParentReq.md" xlink:show="new" xlink:title="https://github.com/sjames/syscribe/blob/main/model/Requirements/SafetyParentReq.md" xlink:type="simple"><rect fill="#F9F7FF" height="40.2656" rx="2.5" ry="2.5" style="stroke:#4A0A6E;stroke-width:0.5;" width="543.8818" x="509" y="241"/><ellipse cx="524" cy="261.1328" fill="#ADD1B2" rx="11" ry="11" style="stroke:#181818;stroke-width:1;"/><path d="M526.9688,266.7734 Q526.3906,267.0703 525.75,267.2109 Q525.1094,267.3672 524.4063,267.3672 Q521.9063,267.3672 520.5781,265.7266 Q519.2656,264.0703 519.2656,260.9453 Q519.2656,257.8203 520.5781,256.1641 Q521.9063,254.5078 524.4063,254.5078 Q525.1094,254.5078 525.75,254.6641 Q526.4063,254.8203 526.9688,255.1172 L526.9688,257.8359 Q526.3438,257.2578 525.75,256.9922 Q525.1563,256.7109 524.5313,256.7109 Q523.1875,256.7109 522.5,257.7891 Q521.8125,258.8516 521.8125,260.9453 Q521.8125,263.0391 522.5,264.1172 Q523.1875,265.1797 524.5313,265.1797 Q525.1563,265.1797 525.75,264.9141 Q526.3438,264.6328 526.9688,264.0547 L526.9688,266.7734 Z " fill="#000000"/><text fill="#000000" font-family="sans-serif" font-size="12" font-style="italic" lengthAdjust="spacing" textLength="89.3848" x="749.2485" y="257.1387">&#171;requirement&#187;</text><text fill="#000000" font-family="sans-serif" font-size="14" lengthAdjust="spacing" textLength="511.8818" x="538" y="272.9639">UAV shall not cause injury to persons or property during any flight phase</text></a></g><!--class s_land--><g class="entity" data-qualified-name="s_land" data-source-line="8" id="ent0002"><a href="https://github.com/sjames/syscribe/blob/main/model/Requirements/SafeLandingReq.md" target="_top" title="https://github.com/sjames/syscribe/blob/main/model/Requirements/SafeLandingReq.md" xlink:actuate="onRequest" xlink:href="https://github.com/sjames/syscribe/blob/main/model/Requirements/SafeLandingReq.md" xlink:show="new" xlink:title="https://github.com/sjames/syscribe/blob/main/model/Requirements/SafeLandingReq.md" xlink:type="simple"><rect fill="#F9F7FF" height="40.2656" rx="2.5" ry="2.5" style="stroke:#4A0A6E;stroke-width:0.5;" width="464.2842" x="39" y="124"/><ellipse cx="54" cy="144.1328" fill="#ADD1B2" rx="11" ry="11" style="stroke:#181818;stroke-width:1;"/><path d="M56.9688,149.7734 Q56.3906,150.0703 55.75,150.2109 Q55.1094,150.3672 54.4063,150.3672 Q51.9063,150.3672 50.5781,148.7266 Q49.2656,147.0703 49.2656,143.9453 Q49.2656,140.8203 50.5781,139.1641 Q51.9063,137.5078 54.4063,137.5078 Q55.1094,137.5078 55.75,137.6641 Q56.4063,137.8203 56.9688,138.1172 L56.9688,140.8359 Q56.3438,140.2578 55.75,139.9922 Q55.1563,139.7109 54.5313,139.7109 Q53.1875,139.7109 52.5,140.7891 Q51.8125,141.8516 51.8125,143.9453 Q51.8125,146.0391 52.5,147.1172 Q53.1875,148.1797 54.5313,148.1797 Q55.1563,148.1797 55.75,147.9141 Q56.3438,147.6328 56.9688,147.0547 L56.9688,149.7734 Z " fill="#000000"/><text fill="#000000" font-family="sans-serif" font-size="12" font-style="italic" lengthAdjust="spacing" textLength="89.3848" x="239.4497" y="140.1387">&#171;requirement&#187;</text><text fill="#000000" font-family="sans-serif" font-size="14" lengthAdjust="spacing" textLength="432.2842" x="68" y="155.9639">Autonomous safe landing on battery-critical or link-loss event</text></a></g><!--class s_fc--><g class="entity" data-qualified-name="s_fc" data-source-line="9" id="ent0003"><a href="https://github.com/sjames/syscribe/blob/main/model/Requirements/FaultTolerantFCReq.md" target="_top" title="https://github.com/sjames/syscribe/blob/main/model/Requirements/FaultTolerantFCReq.md" xlink:actuate="onRequest" xlink:href="https://github.com/sjames/syscribe/blob/main/model/Requirements/FaultTolerantFCReq.md" xlink:show="new" xlink:title="https://github.com/sjames/syscribe/blob/main/model/Requirements/FaultTolerantFCReq.md" xlink:type="simple"><rect fill="#F9F7FF" height="40.2656" rx="2.5" ry="2.5" style="stroke:#4A0A6E;stroke-width:0.5;" width="469.124" x="546.5" y="124"/><ellipse cx="561.5" cy="144.1328" fill="#ADD1B2" rx="11" ry="11" style="stroke:#181818;stroke-width:1;"/><path d="M564.4688,149.7734 Q563.8906,150.0703 563.25,150.2109 Q562.6094,150.3672 561.9063,150.3672 Q559.4063,150.3672 558.0781,148.7266 Q556.7656,147.0703 556.7656,143.9453 Q556.7656,140.8203 558.0781,139.1641 Q559.4063,137.5078 561.9063,137.5078 Q562.6094,137.5078 563.25,137.6641 Q563.9063,137.8203 564.4688,138.1172 L564.4688,140.8359 Q563.8438,140.2578 563.25,139.9922 Q562.6563,139.7109 562.0313,139.7109 Q560.6875,139.7109 560,140.7891 Q559.3125,141.8516 559.3125,143.9453 Q559.3125,146.0391 560,147.1172 Q560.6875,148.1797 562.0313,148.1797 Q562.6563,148.1797 563.25,147.9141 Q563.8438,147.6328 564.4688,147.0547 L564.4688,149.7734 Z " fill="#000000"/><text fill="#000000" font-family="sans-serif" font-size="12" font-style="italic" lengthAdjust="spacing" textLength="89.3848" x="749.3696" y="140.1387">&#171;requirement&#187;</text><text fill="#000000" font-family="sans-serif" font-size="14" lengthAdjust="spacing" textLength="437.124" x="575.5" y="155.9639">Flight controller shall detect single sensor failure within 50 ms</text></a></g><!--class s_review--><g class="entity" data-qualified-name="s_review" data-source-line="10" id="ent0004"><a href="https://github.com/sjames/syscribe/blob/main/model/Verification/SafetyCaseReview.md" target="_top" title="https://github.com/sjames/syscribe/blob/main/model/Verification/SafetyCaseReview.md" xlink:actuate="onRequest" xlink:href="https://github.com/sjames/syscribe/blob/main/model/Verification/SafetyCaseReview.md" xlink:show="new" xlink:title="https://github.com/sjames/syscribe/blob/main/model/Verification/SafetyCaseReview.md" xlink:type="simple"><rect fill="#F9F7FF" height="40.2656" rx="2.5" ry="2.5" style="stroke:#4A0A6E;stroke-width:0.5;" width="582.1357" x="1051" y="124"/><ellipse cx="1066" cy="144.1328" fill="#ADD1B2" rx="11" ry="11" style="stroke:#181818;stroke-width:1;"/><path d="M1068.9688,149.7734 Q1068.3906,150.0703 1067.75,150.2109 Q1067.1094,150.3672 1066.4063,150.3672 Q1063.9063,150.3672 1062.5781,148.7266 Q1061.2656,147.0703 1061.2656,143.9453 Q1061.2656,140.8203 1062.5781,139.1641 Q1063.9063,137.5078 1066.4063,137.5078 Q1067.1094,137.5078 1067.75,137.6641 Q1068.4063,137.8203 1068.9688,138.1172 L1068.9688,140.8359 Q1068.3438,140.2578 1067.75,139.9922 Q1067.1563,139.7109 1066.5313,139.7109 Q1065.1875,139.7109 1064.5,140.7891 Q1063.8125,141.8516 1063.8125,143.9453 Q1063.8125,146.0391 1064.5,147.1172 Q1065.1875,148.1797 1066.5313,148.1797 Q1067.1563,148.1797 1067.75,147.9141 Q1068.3438,147.6328 1068.9688,147.0547 L1068.9688,149.7734 Z " fill="#000000"/><text fill="#000000" font-family="sans-serif" font-size="12" font-style="italic" lengthAdjust="spacing" textLength="69.2578" x="1320.439" y="140.1387">&#171;test case&#187;</text><text fill="#000000" font-family="sans-serif" font-size="14" lengthAdjust="spacing" textLength="550.1357" x="1080" y="155.9639">Safety case review confirms UAV shall not cause injury across all flight phases</text></a></g><!--class s_ltest--><g class="entity" data-qualified-name="s_ltest" data-source-line="11" id="ent0005"><a href="https://github.com/sjames/syscribe/blob/main/model/Verification/SafeLandingTest.md" target="_top" title="https://github.com/sjames/syscribe/blob/main/model/Verification/SafeLandingTest.md" xlink:actuate="onRequest" xlink:href="https://github.com/sjames/syscribe/blob/main/model/Verification/SafeLandingTest.md" xlink:show="new" xlink:title="https://github.com/sjames/syscribe/blob/main/model/Verification/SafeLandingTest.md" xlink:type="simple"><rect fill="#F9F7FF" height="40.2656" rx="2.5" ry="2.5" style="stroke:#4A0A6E;stroke-width:0.5;" width="510.1875" x="7" y="7"/><ellipse cx="22" cy="27.1328" fill="#ADD1B2" rx="11" ry="11" style="stroke:#181818;stroke-width:1;"/><path d="M24.9688,32.7734 Q24.3906,33.0703 23.75,33.2109 Q23.1094,33.3672 22.4063,33.3672 Q19.9063,33.3672 18.5781,31.7266 Q17.2656,30.0703 17.2656,26.9453 Q17.2656,23.8203 18.5781,22.1641 Q19.9063,20.5078 22.4063,20.5078 Q23.1094,20.5078 23.75,20.6641 Q24.4063,20.8203 24.9688,21.1172 L24.9688,23.8359 Q24.3438,23.2578 23.75,22.9922 Q23.1563,22.7109 22.5313,22.7109 Q21.1875,22.7109 20.5,23.7891 Q19.8125,24.8516 19.8125,26.9453 Q19.8125,29.0391 20.5,30.1172 Q21.1875,31.1797 22.5313,31.1797 Q23.1563,31.1797 23.75,30.9141 Q24.3438,30.6328 24.9688,30.0547 L24.9688,32.7734 Z " fill="#000000"/><text fill="#000000" font-family="sans-serif" font-size="12" font-style="italic" lengthAdjust="spacing" textLength="69.2578" x="240.4648" y="23.1387">&#171;test case&#187;</text><text fill="#000000" font-family="sans-serif" font-size="14" lengthAdjust="spacing" textLength="478.1875" x="36" y="38.9639">Autonomous landing descent rate &#8804; 3 m/s on battery-critical trigger</text></a></g><!--class s_fitest--><g class="entity" data-qualified-name="s_fitest" data-source-line="12" id="ent0006"><a href="https://github.com/sjames/syscribe/blob/main/model/Verification/FCFaultInjectionTest.md" target="_top" title="https://github.com/sjames/syscribe/blob/main/model/Verification/FCFaultInjectionTest.md" xlink:actuate="onRequest" xlink:href="https://github.com/sjames/syscribe/blob/main/model/Verification/FCFaultInjectionTest.md" xlink:show="new" xlink:title="https://github.com/sjames/syscribe/blob/main/model/Verification/FCFaultInjectionTest.md" xlink:type="simple"><rect fill="#F9F7FF" height="40.2656" rx="2.5" ry="2.5" style="stroke:#4A0A6E;stroke-width:0.5;" width="457.3389" x="552.5" y="7"/><ellipse cx="567.5" cy="27.1328" fill="#ADD1B2" rx="11" ry="11" style="stroke:#181818;stroke-width:1;"/><path d="M570.4688,32.7734 Q569.8906,33.0703 569.25,33.2109 Q568.6094,33.3672 567.9063,33.3672 Q565.4063,33.3672 564.0781,31.7266 Q562.7656,30.0703 562.7656,26.9453 Q562.7656,23.8203 564.0781,22.1641 Q565.4063,20.5078 567.9063,20.5078 Q568.6094,20.5078 569.25,20.6641 Q569.9063,20.8203 570.4688,21.1172 L570.4688,23.8359 Q569.8438,23.2578 569.25,22.9922 Q568.6563,22.7109 568.0313,22.7109 Q566.6875,22.7109 566,23.7891 Q565.3125,24.8516 565.3125,26.9453 Q565.3125,29.0391 566,30.1172 Q566.6875,31.1797 568.0313,31.1797 Q568.6563,31.1797 569.25,30.9141 Q569.8438,30.6328 570.4688,30.0547 L570.4688,32.7734 Z " fill="#000000"/><text fill="#000000" font-family="sans-serif" font-size="12" font-style="italic" lengthAdjust="spacing" textLength="69.2578" x="759.5405" y="23.1387">&#171;test case&#187;</text><text fill="#000000" font-family="sans-serif" font-size="14" lengthAdjust="spacing" textLength="425.3389" x="581.5" y="38.9639">FC detects injected sensor failure within 50 ms on HIL bench</text></a></g><!--class s_flightc--><g class="entity" data-qualified-name="s_flightc" data-source-line="13" id="ent0007"><a href="https://github.com/sjames/syscribe/blob/main/model/UAV/Avionics/FlightController.md" target="_top" title="https://github.com/sjames/syscribe/blob/main/model/UAV/Avionics/FlightController.md" xlink:actuate="onRequest" xlink:href="https://github.com/sjames/syscribe/blob/main/model/UAV/Avionics/FlightController.md" xlink:show="new" xlink:title="https://github.com/sjames/syscribe/blob/main/model/UAV/Avionics/FlightController.md" xlink:type="simple"><rect fill="#F9F7FF" height="40.2656" rx="2.5" ry="2.5" style="stroke:#4A0A6E;stroke-width:0.5;" width="140.2539" x="1045" y="7"/><ellipse cx="1060" cy="27.1328" fill="#ADD1B2" rx="11" ry="11" style="stroke:#181818;stroke-width:1;"/><path d="M1062.9688,32.7734 Q1062.3906,33.0703 1061.75,33.2109 Q1061.1094,33.3672 1060.4063,33.3672 Q1057.9063,33.3672 1056.5781,31.7266 Q1055.2656,30.0703 1055.2656,26.9453 Q1055.2656,23.8203 1056.5781,22.1641 Q1057.9063,20.5078 1060.4063,20.5078 Q1061.1094,20.5078 1061.75,20.6641 Q1062.4063,20.8203 1062.9688,21.1172 L1062.9688,23.8359 Q1062.3438,23.2578 1061.75,22.9922 Q1061.1563,22.7109 1060.5313,22.7109 Q1059.1875,22.7109 1058.5,23.7891 Q1057.8125,24.8516 1057.8125,26.9453 Q1057.8125,29.0391 1058.5,30.1172 Q1059.1875,31.1797 1060.5313,31.1797 Q1061.1563,31.1797 1061.75,30.9141 Q1062.3438,30.6328 1062.9688,30.0547 L1062.9688,32.7734 Z " fill="#000000"/><text fill="#000000" font-family="sans-serif" font-size="12" font-style="italic" lengthAdjust="spacing" textLength="39.4219" x="1108.416" y="23.1387">&#171;part&#187;</text><text fill="#000000" font-family="sans-serif" font-size="14" lengthAdjust="spacing" textLength="108.2539" x="1074" y="38.9639">FlightController</text></a></g><!--link s_land to s_safe--><g class="link" data-entity-1="ent0002" data-entity-2="ent0001" data-link-type="dependency" data-source-line="15" id="lnk8"><path codeLine="15" d="M355.5,164.05 C449.91,185.34 596.9824,218.5103 691.4524,239.8103" fill="none" id="s_land-to-s_safe" style="stroke:#181818;stroke-width:1;stroke-dasharray:7,7;"/><polygon fill="#181818" points="696.33,240.91,688.4302,235.0284,691.4524,239.8103,686.6706,242.8325,696.33,240.91" style="stroke:#181818;stroke-width:1;stroke-linejoin:miter;stroke-miterlimit:10;"/><text fill="#000000" font-family="sans-serif" font-size="13" lengthAdjust="spacing" textLength="82.5894" x="558" y="207.0669">derivedFrom</text></g><!--link s_fc to s_safe--><g class="link" data-entity-1="ent0003" data-entity-2="ent0001" data-link-type="dependency" data-source-line="16" id="lnk9"><path codeLine="16" d="M781,164.25 C781,185.48 781,214.44 781,235.69" fill="none" id="s_fc-to-s_safe" style="stroke:#181818;stroke-width:1;stroke-dasharray:7,7;"/><polygon fill="#181818" points="781,240.69,785,231.69,781,235.69,777,231.69,781,240.69" style="stroke:#181818;stroke-width:1;stroke-linejoin:miter;stroke-miterlimit:10;"/><text fill="#000000" font-family="sans-serif" font-size="13" lengthAdjust="spacing" textLength="82.5894" x="782" y="207.0669">derivedFrom</text></g><!--link s_review to s_safe--><g class="link" data-entity-1="ent0004" data-entity-2="ent0001" data-link-type="dependency" data-source-line="17" id="lnk10"><path codeLine="17" d="M1249.05,164.05 C1145.2,185.34 982.9482,218.606 879.0282,239.906" fill="none" id="s_review-to-s_safe" style="stroke:#181818;stroke-width:1;stroke-dasharray:7,7;"/><polygon fill="#181818" points="874.13,240.91,883.7499,243.0214,879.0282,239.906,882.1435,235.1843,874.13,240.91" style="stroke:#181818;stroke-width:1;stroke-linejoin:miter;stroke-miterlimit:10;"/><text fill="#000000" font-family="sans-serif" font-size="13" lengthAdjust="spacing" textLength="47.6074" x="1096" y="207.0669">verifies</text></g><!--link s_ltest to s_land--><g class="link" data-entity-1="ent0005" data-entity-2="ent0002" data-link-type="dependency" data-source-line="18" id="lnk11"><path codeLine="18" d="M263.51,47.25 C265.17,68.48 267.4406,97.4552 269.1006,118.7052" fill="none" id="s_ltest-to-s_land" style="stroke:#181818;stroke-width:1;stroke-dasharray:7,7;"/><polygon fill="#181818" points="269.49,123.69,272.7769,114.4058,269.1006,118.7052,264.8012,115.0289,269.49,123.69" style="stroke:#181818;stroke-width:1;stroke-linejoin:miter;stroke-miterlimit:10;"/><text fill="#000000" font-family="sans-serif" font-size="13" lengthAdjust="spacing" textLength="47.6074" x="269" y="90.0669">verifies</text></g><!--link s_fitest to s_fc--><g class="link" data-entity-1="ent0006" data-entity-2="ent0003" data-link-type="dependency" data-source-line="19" id="lnk12"><path codeLine="19" d="M781,47.25 C781,68.48 781,97.44 781,118.69" fill="none" id="s_fitest-to-s_fc" style="stroke:#181818;stroke-width:1;stroke-dasharray:7,7;"/><polygon fill="#181818" points="781,123.69,785,114.69,781,118.69,777,114.69,781,123.69" style="stroke:#181818;stroke-width:1;stroke-linejoin:miter;stroke-miterlimit:10;"/><text fill="#000000" font-family="sans-serif" font-size="13" lengthAdjust="spacing" textLength="47.6074" x="782" y="90.0669">verifies</text></g><!--link s_flightc to s_fc--><g class="link" data-entity-1="ent0007" data-entity-2="ent0003" data-link-type="dependency" data-source-line="20" id="lnk13"><path codeLine="20" d="M1059.47,47.12 C997.61,68.42 902.9177,101.0224 841.1077,122.3024" fill="none" id="s_flightc-to-s_fc" style="stroke:#181818;stroke-width:1;"/><polygon fill="#181818" points="836.38,123.93,846.1919,124.7824,841.1077,122.3024,843.5877,117.2181,836.38,123.93" style="stroke:#181818;stroke-width:1;stroke-linejoin:miter;stroke-miterlimit:10;"/><text fill="#000000" font-family="sans-serif" font-size="13" lengthAdjust="spacing" textLength="53.1807" x="969" y="90.0669">satisfies</text></g><?plantuml-src jPJRQjj048RlzHH3Ucqhq1CDnk0AJ0EvA6cQcn32QZMIDjw3EhDoCAKFqFVea_L9EZgbTThw8k0heVrt__bdzfDuOtoZI3dGLZ73rmJWlTARYaBhYopOGF2YV5U-BSjE2LGWZQklrAbwWyctf3O50hecxi2Xov4uIGQtay-hQ-1QMGi-HD2gPGJZxrlQGGpGoDRW6SIjeI1lub2qP7m5ok-WjAQg8pIrOZm1nS1th4g4nOBmIsi87VguNCBDJHrZmsTfMfbOj_bS1vVolNB8AUzOayanpMt8KwUCJrqeqAQNloqu_IIsSVTHaRo9C7V5xUtKmggDmGSNMgdVLRVA5rt2u25NCIBjPb8X6griruWrVZEpGKxYLjp6tDsX8-M-6F8yZRqUXgU3ZnIiHHhleS28EWBB4Ol0w5b2byhObX0U98VnyFeK78_9Its4t6lLsdWL99NoSPqzpJvSX-0Yj11k3JvqVPI67CC1efIcRkwTzYSwKoUZqs8HaMDl_jnUhf5CAHSUJV0ZEvdONVO5_WVFn4s1h6K8G2eY_Fp-0rw2LFmdJf5CLI5D3FMvZn5_HEXAZFSPoaPSk1knFB4uH4pNmuVp2yZHwth2nnmbzJhh4JhlKyd2tz5x0B97-gSu_NA7jFpqdisoC9YkjbBMQ67vIQKXHZ9-y_FvSlfjdSamoMonM5DmIVzb7L17MlTsRFiH82SJ38FQ5zfJnwaFijJP5ySPp6QFAijKkPT_0G00?></g></svg>