<svg xmlns="http://www.w3.org/2000/svg" xmlns:xlink="http://www.w3.org/1999/xlink" contentStyleType="text/css" data-diagram-type="CLASS" height="263px" preserveAspectRatio="none" style="width:1354px;height:263px;background:#FFFFFF;" version="1.1" viewBox="0 0 1354 263" width="1354px" zoomAndPan="magnify"><?plantuml 1.2026.6?><defs/><g><!--class s_safe--><g class="entity" data-qualified-name="s_safe" data-source-line="4" id="ent0001"><a href="https://github.com/sjames/syscribe/blob/main/model/Requirements/SafetyParentReq.md" target="_top" title="https://github.com/sjames/syscribe/blob/main/model/Requirements/SafetyParentReq.md" xlink:actuate="onRequest" xlink:href="https://github.com/sjames/syscribe/blob/main/model/Requirements/SafetyParentReq.md" xlink:show="new" xlink:title="https://github.com/sjames/syscribe/blob/main/model/Requirements/SafetyParentReq.md" xlink:type="simple"><rect fill="#FDEDEC" height="32.1172" rx="2" ry="2" style="stroke:#C0392B;stroke-width:1.5;" width="442.5654" x="419" y="217"/><rect fill="#C0392B" height="32.1172" rx="2" ry="2" style="stroke:#C0392B;stroke-width:1.5;" width="442.5654" x="419" y="217"/><rect fill="#C0392B" height="2" style="stroke:#C0392B;stroke-width:1.5;" width="442.5654" x="419" y="247.1172"/><rect fill="none" height="32.1172" rx="2" ry="2" style="stroke:#C0392B;stroke-width:1.5;" width="442.5654" x="419" y="217"/><ellipse cx="432" cy="233.0586" fill="#ADD1B2" rx="9" ry="9" style="stroke:#181818;stroke-width:1;"/><path d="M433.3125,236.8242 Q432.9375,237.0273 432.5156,237.1211 Q432.1094,237.2148 431.6406,237.2148 Q430.0313,237.2148 429.1719,236.1523 Q428.3125,235.0742 428.3125,233.0586 Q428.3125,231.0273 429.1719,229.9648 Q430.0313,228.8867 431.6406,228.8867 Q432.1094,228.8867 432.5156,228.9961 Q432.9375,229.0898 433.3125,229.2773 L433.3125,231.043 Q432.8906,230.668 432.5,230.4961 Q432.125,230.3242 431.7188,230.3242 Q430.8594,230.3242 430.4063,231.0117 Q429.9688,231.6992 429.9688,233.0586 Q429.9688,234.418 430.4063,235.1055 Q430.8594,235.793 431.7188,235.793 Q432.125,235.793 432.5,235.6211 Q432.8906,235.4492 433.3125,235.0586 L433.3125,236.8242 Z " fill="#000000"/><text fill="#F5B7B1" font-family="Helvetica Neue, Helvetica, Arial, sans-serif" font-size="9" font-style="italic" lengthAdjust="spacing" textLength="67.0386" x="617.7634" y="230.354">&#171;requirement&#187;</text><text fill="#FFFFFF" font-family="'Helvetica Neue, Helvetica, Arial, sans-serif'" font-size="10" font-weight="700" lengthAdjust="spacing" textLength="414.5654" x="444" y="241.7588">UAV shall not cause injury to persons or property during any flight phase</text></a></g><!--class s_land--><g class="entity" data-qualified-name="s_land" data-source-line="5" id="ent0002"><a href="https://github.com/sjames/syscribe/blob/main/model/Requirements/SafeLandingReq.md" target="_top" title="https://github.com/sjames/syscribe/blob/main/model/Requirements/SafeLandingReq.md" xlink:actuate="onRequest" xlink:href="https://github.com/sjames/syscribe/blob/main/model/Requirements/SafeLandingReq.md" xlink:show="new" xlink:title="https://github.com/sjames/syscribe/blob/main/model/Requirements/SafeLandingReq.md" xlink:type="simple"><rect fill="#FDEDEC" height="32.1172" rx="2" ry="2" style="stroke:#C0392B;stroke-width:1.5;" width="378.4199" x="30.5" y="112"/><rect fill="#C0392B" height="32.1172" rx="2" ry="2" style="stroke:#C0392B;stroke-width:1.5;" width="378.4199" x="30.5" y="112"/><rect fill="#C0392B" height="2" style="stroke:#C0392B;stroke-width:1.5;" width="378.4199" x="30.5" y="142.1172"/><rect fill="none" height="32.1172" rx="2" ry="2" style="stroke:#C0392B;stroke-width:1.5;" width="378.4199" x="30.5" y="112"/><ellipse cx="43.5" cy="128.0586" fill="#ADD1B2" rx="9" ry="9" style="stroke:#181818;stroke-width:1;"/><path d="M44.8125,131.8242 Q44.4375,132.0273 44.0156,132.1211 Q43.6094,132.2148 43.1406,132.2148 Q41.5313,132.2148 40.6719,131.1523 Q39.8125,130.0742 39.8125,128.0586 Q39.8125,126.0273 40.6719,124.9648 Q41.5313,123.8867 43.1406,123.8867 Q43.6094,123.8867 44.0156,123.9961 Q44.4375,124.0898 44.8125,124.2773 L44.8125,126.043 Q44.3906,125.668 44,125.4961 Q43.625,125.3242 43.2188,125.3242 Q42.3594,125.3242 41.9063,126.0117 Q41.4688,126.6992 41.4688,128.0586 Q41.4688,129.418 41.9063,130.1055 Q42.3594,130.793 43.2188,130.793 Q43.625,130.793 44,130.6211 Q44.3906,130.4492 44.8125,130.0586 L44.8125,131.8242 Z " fill="#000000"/><text fill="#F5B7B1" font-family="Helvetica Neue, Helvetica, Arial, sans-serif" font-size="9" font-style="italic" lengthAdjust="spacing" textLength="67.0386" x="197.1907" y="125.354">&#171;requirement&#187;</text><text fill="#FFFFFF" font-family="'Helvetica Neue, Helvetica, Arial, sans-serif'" font-size="10" font-weight="700" lengthAdjust="spacing" textLength="350.4199" x="55.5" y="136.7588">Autonomous safe landing on battery-critical or link-loss event</text></a></g><!--class s_fc--><g class="entity" data-qualified-name="s_fc" data-source-line="6" id="ent0003"><a href="https://github.com/sjames/syscribe/blob/main/model/Requirements/FaultTolerantFCReq.md" target="_top" title="https://github.com/sjames/syscribe/blob/main/model/Requirements/FaultTolerantFCReq.md" xlink:actuate="onRequest" xlink:href="https://github.com/sjames/syscribe/blob/main/model/Requirements/FaultTolerantFCReq.md" xlink:show="new" xlink:title="https://github.com/sjames/syscribe/blob/main/model/Requirements/FaultTolerantFCReq.md" xlink:type="simple"><rect fill="#FDEDEC" height="32.1172" rx="2" ry="2" style="stroke:#C0392B;stroke-width:1.5;" width="383.6934" x="448.5" y="112"/><rect fill="#C0392B" height="32.1172" rx="2" ry="2" style="stroke:#C0392B;stroke-width:1.5;" width="383.6934" x="448.5" y="112"/><rect fill="#C0392B" height="2" style="stroke:#C0392B;stroke-width:1.5;" width="383.6934" x="448.5" y="142.1172"/><rect fill="none" height="32.1172" rx="2" ry="2" style="stroke:#C0392B;stroke-width:1.5;" width="383.6934" x="448.5" y="112"/><ellipse cx="461.5" cy="128.0586" fill="#ADD1B2" rx="9" ry="9" style="stroke:#181818;stroke-width:1;"/><path d="M462.8125,131.8242 Q462.4375,132.0273 462.0156,132.1211 Q461.6094,132.2148 461.1406,132.2148 Q459.5313,132.2148 458.6719,131.1523 Q457.8125,130.0742 457.8125,128.0586 Q457.8125,126.0273 458.6719,124.9648 Q459.5313,123.8867 461.1406,123.8867 Q461.6094,123.8867 462.0156,123.9961 Q462.4375,124.0898 462.8125,124.2773 L462.8125,126.043 Q462.3906,125.668 462,125.4961 Q461.625,125.3242 461.2188,125.3242 Q460.3594,125.3242 459.9063,126.0117 Q459.4688,126.6992 459.4688,128.0586 Q459.4688,129.418 459.9063,130.1055 Q460.3594,130.793 461.2188,130.793 Q461.625,130.793 462,130.6211 Q462.3906,130.4492 462.8125,130.0586 L462.8125,131.8242 Z " fill="#000000"/><text fill="#F5B7B1" font-family="Helvetica Neue, Helvetica, Arial, sans-serif" font-size="9" font-style="italic" lengthAdjust="spacing" textLength="67.0386" x="617.8274" y="125.354">&#171;requirement&#187;</text><text fill="#FFFFFF" font-family="'Helvetica Neue, Helvetica, Arial, sans-serif'" font-size="10" font-weight="700" lengthAdjust="spacing" textLength="355.6934" x="473.5" y="136.7588">Flight controller shall detect single sensor failure within 50 ms</text></a></g><!--class s_review--><g class="entity" data-qualified-name="s_review" data-source-line="7" id="ent0004"><a href="https://github.com/sjames/syscribe/blob/main/model/Verification/SafetyCaseReview.md" target="_top" title="https://github.com/sjames/syscribe/blob/main/model/Verification/SafetyCaseReview.md" xlink:actuate="onRequest" xlink:href="https://github.com/sjames/syscribe/blob/main/model/Verification/SafetyCaseReview.md" xlink:show="new" xlink:title="https://github.com/sjames/syscribe/blob/main/model/Verification/SafetyCaseReview.md" xlink:type="simple"><rect fill="#E9F7EF" height="32.1172" rx="2" ry="2" style="stroke:#1E8449;stroke-width:1.5;" width="472.3262" x="867.5" y="112"/><rect fill="#1E8449" height="32.1172" rx="2" ry="2" style="stroke:#1E8449;stroke-width:1.5;" width="472.3262" x="867.5" y="112"/><rect fill="#1E8449" height="2" style="stroke:#1E8449;stroke-width:1.5;" width="472.3262" x="867.5" y="142.1172"/><rect fill="none" height="32.1172" rx="2" ry="2" style="stroke:#1E8449;stroke-width:1.5;" width="472.3262" x="867.5" y="112"/><ellipse cx="880.5" cy="128.0586" fill="#ADD1B2" rx="9" ry="9" style="stroke:#181818;stroke-width:1;"/><path d="M881.8125,131.8242 Q881.4375,132.0273 881.0156,132.1211 Q880.6094,132.2148 880.1406,132.2148 Q878.5313,132.2148 877.6719,131.1523 Q876.8125,130.0742 876.8125,128.0586 Q876.8125,126.0273 877.6719,124.9648 Q878.5313,123.8867 880.1406,123.8867 Q880.6094,123.8867 881.0156,123.9961 Q881.4375,124.0898 881.8125,124.2773 L881.8125,126.043 Q881.3906,125.668 881,125.4961 Q880.625,125.3242 880.2188,125.3242 Q879.3594,125.3242 878.9063,126.0117 Q878.4688,126.6992 878.4688,128.0586 Q878.4688,129.418 878.9063,130.1055 Q879.3594,130.793 880.2188,130.793 Q880.625,130.793 881,130.6211 Q881.3906,130.4492 881.8125,130.0586 L881.8125,131.8242 Z " fill="#000000"/><text fill="#A9DFBF" font-family="Helvetica Neue, Helvetica, Arial, sans-serif" font-size="9" font-style="italic" lengthAdjust="spacing" textLength="51.9434" x="1088.6914" y="125.354">&#171;test case&#187;</text><text fill="#FFFFFF" font-family="'Helvetica Neue, Helvetica, Arial, sans-serif'" font-size="10" font-weight="700" lengthAdjust="spacing" textLength="444.3262" x="892.5" y="136.7588">Safety case review confirms UAV shall not cause injury across all flight phases</text></a></g><!--class s_ltest--><g class="entity" data-qualified-name="s_ltest" data-source-line="8" id="ent0005"><a href="https://github.com/sjames/syscribe/blob/main/model/Verification/SafeLandingTest.md" target="_top" title="https://github.com/sjames/syscribe/blob/main/model/Verification/SafeLandingTest.md" xlink:actuate="onRequest" xlink:href="https://github.com/sjames/syscribe/blob/main/model/Verification/SafeLandingTest.md" xlink:show="new" xlink:title="https://github.com/sjames/syscribe/blob/main/model/Verification/SafeLandingTest.md" xlink:type="simple"><rect fill="#E9F7EF" height="32.1172" rx="2" ry="2" style="stroke:#1E8449;stroke-width:1.5;" width="413.0635" x="7" y="7"/><rect fill="#1E8449" height="32.1172" rx="2" ry="2" style="stroke:#1E8449;stroke-width:1.5;" width="413.0635" x="7" y="7"/><rect fill="#1E8449" height="2" style="stroke:#1E8449;stroke-width:1.5;" width="413.0635" x="7" y="37.1172"/><rect fill="none" height="32.1172" rx="2" ry="2" style="stroke:#1E8449;stroke-width:1.5;" width="413.0635" x="7" y="7"/><ellipse cx="20" cy="23.0586" fill="#ADD1B2" rx="9" ry="9" style="stroke:#181818;stroke-width:1;"/><path d="M21.3125,26.8242 Q20.9375,27.0273 20.5156,27.1211 Q20.1094,27.2148 19.6406,27.2148 Q18.0313,27.2148 17.1719,26.1523 Q16.3125,25.0742 16.3125,23.0586 Q16.3125,21.0273 17.1719,19.9648 Q18.0313,18.8867 19.6406,18.8867 Q20.1094,18.8867 20.5156,18.9961 Q20.9375,19.0898 21.3125,19.2773 L21.3125,21.043 Q20.8906,20.668 20.5,20.4961 Q20.125,20.3242 19.7188,20.3242 Q18.8594,20.3242 18.4063,21.0117 Q17.9688,21.6992 17.9688,23.0586 Q17.9688,24.418 18.4063,25.1055 Q18.8594,25.793 19.7188,25.793 Q20.125,25.793 20.5,25.6211 Q20.8906,25.4492 21.3125,25.0586 L21.3125,26.8242 Z " fill="#000000"/><text fill="#A9DFBF" font-family="Helvetica Neue, Helvetica, Arial, sans-serif" font-size="9" font-style="italic" lengthAdjust="spacing" textLength="51.9434" x="198.5601" y="20.354">&#171;test case&#187;</text><text fill="#FFFFFF" font-family="'Helvetica Neue, Helvetica, Arial, sans-serif'" font-size="10" font-weight="700" lengthAdjust="spacing" textLength="385.0635" x="32" y="31.7588">Autonomous landing descent rate &#8804; 3 m/s on battery-critical trigger</text></a></g><!--class s_fitest--><g class="entity" data-qualified-name="s_fitest" data-source-line="9" id="ent0006"><a href="https://github.com/sjames/syscribe/blob/main/model/Verification/FCFaultInjectionTest.md" target="_top" title="https://github.com/sjames/syscribe/blob/main/model/Verification/FCFaultInjectionTest.md" xlink:actuate="onRequest" xlink:href="https://github.com/sjames/syscribe/blob/main/model/Verification/FCFaultInjectionTest.md" xlink:show="new" xlink:title="https://github.com/sjames/syscribe/blob/main/model/Verification/FCFaultInjectionTest.md" xlink:type="simple"><rect fill="#E9F7EF" height="32.1172" rx="2" ry="2" style="stroke:#1E8449;stroke-width:1.5;" width="370.9053" x="455" y="7"/><rect fill="#1E8449" height="32.1172" rx="2" ry="2" style="stroke:#1E8449;stroke-width:1.5;" width="370.9053" x="455" y="7"/><rect fill="#1E8449" height="2" style="stroke:#1E8449;stroke-width:1.5;" width="370.9053" x="455" y="37.1172"/><rect fill="none" height="32.1172" rx="2" ry="2" style="stroke:#1E8449;stroke-width:1.5;" width="370.9053" x="455" y="7"/><ellipse cx="468" cy="23.0586" fill="#ADD1B2" rx="9" ry="9" style="stroke:#181818;stroke-width:1;"/><path d="M469.3125,26.8242 Q468.9375,27.0273 468.5156,27.1211 Q468.1094,27.2148 467.6406,27.2148 Q466.0313,27.2148 465.1719,26.1523 Q464.3125,25.0742 464.3125,23.0586 Q464.3125,21.0273 465.1719,19.9648 Q466.0313,18.8867 467.6406,18.8867 Q468.1094,18.8867 468.5156,18.9961 Q468.9375,19.0898 469.3125,19.2773 L469.3125,21.043 Q468.8906,20.668 468.5,20.4961 Q468.125,20.3242 467.7188,20.3242 Q466.8594,20.3242 466.4063,21.0117 Q465.9688,21.6992 465.9688,23.0586 Q465.9688,24.418 466.4063,25.1055 Q466.8594,25.793 467.7188,25.793 Q468.125,25.793 468.5,25.6211 Q468.8906,25.4492 469.3125,25.0586 L469.3125,26.8242 Z " fill="#000000"/><text fill="#A9DFBF" font-family="Helvetica Neue, Helvetica, Arial, sans-serif" font-size="9" font-style="italic" lengthAdjust="spacing" textLength="51.9434" x="625.481" y="20.354">&#171;test case&#187;</text><text fill="#FFFFFF" font-family="'Helvetica Neue, Helvetica, Arial, sans-serif'" font-size="10" font-weight="700" lengthAdjust="spacing" textLength="342.9053" x="480" y="31.7588">FC detects injected sensor failure within 50 ms on HIL bench</text></a></g><!--class s_flightc--><g class="entity" data-qualified-name="s_flightc" data-source-line="10" id="ent0007"><a href="https://github.com/sjames/syscribe/blob/main/model/UAV/Avionics/FlightController.md" target="_top" title="https://github.com/sjames/syscribe/blob/main/model/UAV/Avionics/FlightController.md" xlink:actuate="onRequest" xlink:href="https://github.com/sjames/syscribe/blob/main/model/UAV/Avionics/FlightController.md" xlink:show="new" xlink:title="https://github.com/sjames/syscribe/blob/main/model/UAV/Avionics/FlightController.md" xlink:type="simple"><rect fill="#D4E6F1" height="32.1172" rx="2" ry="2" style="stroke:#1A4A7A;stroke-width:1.5;" width="117.2236" x="861" y="7"/><rect fill="#1A4A7A" height="32.1172" rx="2" ry="2" style="stroke:#1A4A7A;stroke-width:1.5;" width="117.2236" x="861" y="7"/><rect fill="#1A4A7A" height="2" style="stroke:#1A4A7A;stroke-width:1.5;" width="117.2236" x="861" y="37.1172"/><rect fill="none" height="32.1172" rx="2" ry="2" style="stroke:#1A4A7A;stroke-width:1.5;" width="117.2236" x="861" y="7"/><ellipse cx="874" cy="23.0586" fill="#ADD1B2" rx="9" ry="9" style="stroke:#181818;stroke-width:1;"/><path d="M875.3125,26.8242 Q874.9375,27.0273 874.5156,27.1211 Q874.1094,27.2148 873.6406,27.2148 Q872.0313,27.2148 871.1719,26.1523 Q870.3125,25.0742 870.3125,23.0586 Q870.3125,21.0273 871.1719,19.9648 Q872.0313,18.8867 873.6406,18.8867 Q874.1094,18.8867 874.5156,18.9961 Q874.9375,19.0898 875.3125,19.2773 L875.3125,21.043 Q874.8906,20.668 874.5,20.4961 Q874.125,20.3242 873.7188,20.3242 Q872.8594,20.3242 872.4063,21.0117 Q871.9688,21.6992 871.9688,23.0586 Q871.9688,24.418 872.4063,25.1055 Q872.8594,25.793 873.7188,25.793 Q874.125,25.793 874.5,25.6211 Q874.8906,25.4492 875.3125,25.0586 L875.3125,26.8242 Z " fill="#000000"/><text fill="#A8C8E8" font-family="Helvetica Neue, Helvetica, Arial, sans-serif" font-size="9" font-style="italic" lengthAdjust="spacing" textLength="29.5664" x="915.8286" y="20.354">&#171;part&#187;</text><text fill="#FFFFFF" font-family="'Helvetica Neue, Helvetica, Arial, sans-serif'" font-size="10" font-weight="700" lengthAdjust="spacing" textLength="89.2236" x="886" y="31.7588">FlightController</text></a></g><!--link s_land to s_safe--><g class="link" data-entity-1="ent0002" data-entity-2="ent0001" data-link-type="dependency" data-source-line="12" id="lnk8"><path codeLine="12" d="M281.17,144.09 C360.99,163.62 494.4133,196.2617 574.1533,215.7717" fill="none" id="s_land-to-s_safe" style="stroke:#1F497D;stroke-width:1.5;stroke-dasharray:7,7;"/><polygon fill="#1F497D" points="579.01,216.96,571.2185,210.9357,574.1533,215.7717,569.3172,218.7065,579.01,216.96" style="stroke:#1F497D;stroke-width:1.5;stroke-linejoin:miter;stroke-miterlimit:10;"/><text fill="#2C3E50" font-family="'Helvetica Neue, Helvetica, Arial, sans-serif'" font-size="10" lengthAdjust="spacing" textLength="63.5303" x="456.5" y="184.2822">derivedFrom</text></g><!--link s_fc to s_safe--><g class="link" data-entity-1="ent0003" data-entity-2="ent0001" data-link-type="dependency" data-source-line="13" id="lnk9"><path codeLine="13" d="M640.5,144.2 C640.5,163.67 640.5,192.24 640.5,211.74" fill="none" id="s_fc-to-s_safe" style="stroke:#1F497D;stroke-width:1.5;stroke-dasharray:7,7;"/><polygon fill="#1F497D" points="640.5,216.74,644.5,207.74,640.5,211.74,636.5,207.74,640.5,216.74" style="stroke:#1F497D;stroke-width:1.5;stroke-linejoin:miter;stroke-miterlimit:10;"/><text fill="#2C3E50" font-family="'Helvetica Neue, Helvetica, Arial, sans-serif'" font-size="10" lengthAdjust="spacing" textLength="63.5303" x="641.5" y="184.2822">derivedFrom</text></g><!--link s_review to s_safe--><g class="link" data-entity-1="ent0004" data-entity-2="ent0001" data-link-type="dependency" data-source-line="14" id="lnk10"><path codeLine="14" d="M1035.68,144.09 C947.89,163.62 800.7007,196.3642 713.0007,215.8742" fill="none" id="s_review-to-s_safe" style="stroke:#1F497D;stroke-width:1.5;stroke-dasharray:7,7;"/><polygon fill="#1F497D" points="708.12,216.96,717.7739,218.9102,713.0007,215.8742,716.0366,211.1011,708.12,216.96" style="stroke:#1F497D;stroke-width:1.5;stroke-linejoin:miter;stroke-miterlimit:10;"/><text fill="#2C3E50" font-family="'Helvetica Neue, Helvetica, Arial, sans-serif'" font-size="10" lengthAdjust="spacing" textLength="36.6211" x="900.5" y="184.2822">verifies</text></g><!--link s_ltest to s_land--><g class="link" data-entity-1="ent0005" data-entity-2="ent0002" data-link-type="dependency" data-source-line="15" id="lnk11"><path codeLine="15" d="M214.39,39.2 C215.52,58.67 217.1782,87.2485 218.3182,106.7485" fill="none" id="s_ltest-to-s_land" style="stroke:#1F497D;stroke-width:1.5;stroke-dasharray:7,7;"/><polygon fill="#1F497D" points="218.61,111.74,222.0779,102.5219,218.3182,106.7485,214.0916,102.9888,218.61,111.74" style="stroke:#1F497D;stroke-width:1.5;stroke-linejoin:miter;stroke-miterlimit:10;"/><text fill="#2C3E50" font-family="'Helvetica Neue, Helvetica, Arial, sans-serif'" font-size="10" lengthAdjust="spacing" textLength="36.6211" x="218.5" y="79.2822">verifies</text></g><!--link s_fitest to s_fc--><g class="link" data-entity-1="ent0006" data-entity-2="ent0003" data-link-type="dependency" data-source-line="16" id="lnk12"><path codeLine="16" d="M640.5,39.2 C640.5,58.67 640.5,87.24 640.5,106.74" fill="none" id="s_fitest-to-s_fc" style="stroke:#1F497D;stroke-width:1.5;stroke-dasharray:7,7;"/><polygon fill="#1F497D" points="640.5,111.74,644.5,102.74,640.5,106.74,636.5,102.74,640.5,111.74" style="stroke:#1F497D;stroke-width:1.5;stroke-linejoin:miter;stroke-miterlimit:10;"/><text fill="#2C3E50" font-family="'Helvetica Neue, Helvetica, Arial, sans-serif'" font-size="10" lengthAdjust="spacing" textLength="36.6211" x="641.5" y="79.2822">verifies</text></g><!--link s_flightc to s_fc--><g class="link" data-entity-1="ent0007" data-entity-2="ent0003" data-link-type="dependency" data-source-line="17" id="lnk13"><path codeLine="17" d="M878.63,39.09 C825.81,58.59 739.0405,90.6182 686.1705,110.1382" fill="none" id="s_flightc-to-s_fc" style="stroke:#1F497D;stroke-width:1.5;"/><polygon fill="#1F497D" points="681.48,111.87,691.3084,112.5052,686.1705,110.1382,688.5375,105.0004,681.48,111.87" style="stroke:#1F497D;stroke-width:1.5;stroke-linejoin:miter;stroke-miterlimit:10;"/><text fill="#2C3E50" font-family="'Helvetica Neue, Helvetica, Arial, sans-serif'" font-size="10" lengthAdjust="spacing" textLength="40.9082" x="798.5" y="79.2822">satisfies</text></g><?plantuml-src jPJFQjj04CRlUeffxfOAfPTW3CPW6iYXf6ak8PJLQYHjkd_KcLq7FKBVeq_M9-b8bjpQRNq8-2HfHplVDz_-f3V6QvigXA8D3Wj-LWwvwApg6mh9LmNthCcKMEIow6DoTbXoDZTocxL6jgBhOWyENOd4MQQjOeQhp-i7u5PP2pv4q2enWl7FYNg80JfvDNY6GD1Ha2VfK2KolW7bUwYjQTe8NQiOhq0ny1TMDS9oIVWj6KA7FgvMyFZOnjZnTL4q9hQfp7Lmyn07vwKDPU6KyOKB5ThYxdSBBZv9szX_L2HFKiXTzVGqZx1ECVZWGXBzGLq2g0Q7mKEfOaJg5w8GZLPs6CGQ_tLXW-p4dNIRV0-RBkJxTk_drFPs7vuEFbAm5cawXmeZwWWiMom2esSnNIjZ4o6yY0_ZuVrRS3mvh_K5V6zLil4-Y2kXQRivzRu_3i55Q27S6NmPvgWDEOOpH2bDG-v3xKzqvaccJijbH8vZyzVEye1aQZdmQ8AVsDb8kxjHu7_mpDnKo5f2058HuUVt7_0EHF6VE4KoJOCqCpJwleJz2Q5xQNpCq6R2XOU8vOhLEMA66JxSt4A9NhSpFkOYhhUR4Q6RqPKi_6rz161pe7-sCouFI7UANisoC5YiTo9hjB1yehItaKtVV9wlvj_MjOH9PeVLbeBBnY_hJ7MYzUYDtHW1SZR3iA-EGaVLAVLzMNIEYrC6YyMXof8gZ-LV?></g></svg>