<svg xmlns="http://www.w3.org/2000/svg" viewBox="0 0 940 576" width="940" height="576">
<style>text{font-family:'Inter','Roboto',system-ui,sans-serif}@font-face{font-family:'Inter';font-weight:400;src:url('https://fonts.bunny.net/inter/files/inter-latin-400-normal.woff2') format('woff2')}@font-face{font-family:'Inter';font-weight:700;src:url('https://fonts.bunny.net/inter/files/inter-latin-700-normal.woff2') format('woff2')}</style>
<rect width="940" height="576" fill="#f8f9fc"/>
<text x="50.0" y="37.0" font-size="16" font-weight="700" fill="#1a1a2e">UAV System Architecture</text>
<defs><marker id="arr-open" markerWidth="10" markerHeight="7" refX="9" refY="3.5" orient="auto"><polyline points="0,0 9,3.5 0,7" fill="none" stroke="#888" stroke-width="1.2"/></marker><marker id="arr-flow" markerWidth="10" markerHeight="7" refX="9" refY="3.5" orient="auto"><polyline points="0,0 9,3.5 0,7" fill="none" stroke="#3a6ea5" stroke-width="1.2"/></marker><marker id="arr-verify" markerWidth="10" markerHeight="7" refX="9" refY="3.5" orient="auto"><polyline points="0,0 9,3.5 0,7" fill="none" stroke="#3a6ea5" stroke-width="1.2"/></marker><marker id="arr-alloc" markerWidth="10" markerHeight="7" refX="9" refY="3.5" orient="auto"><polyline points="0,0 9,3.5 0,7" fill="none" stroke="#7a3ea5" stroke-width="1.2"/></marker><marker id="arr-satisfy" markerWidth="10" markerHeight="7" refX="9" refY="3.5" orient="auto"><polyline points="0,0 9,3.5 0,7" fill="none" stroke="#1a6b30" stroke-width="1.2"/></marker><marker id="arr-generalize" markerWidth="12" markerHeight="10" refX="11" refY="5" orient="auto"><polygon points="0,0 12,5 0,10" fill="white" stroke="#3a3a5c" stroke-width="1.2"/></marker></defs>
<path d="M 210.0 134.0 L 270.0 134.0" fill="none" stroke="#3a6ea5" stroke-width="1.4" marker-end="url(#arr-flow)"/>
<path d="M 430.0 152.0 L 460.0 152.0 L 460.0 134.0 L 490.0 134.0" fill="none" stroke="#3a6ea5" stroke-width="1.4" marker-end="url(#arr-flow)"/>
<path d="M 430.0 152.0 L 240.0 152.0 L 240.0 306.0 L 50.0 306.0" fill="none" stroke="#3a6ea5" stroke-width="1.4" marker-end="url(#arr-flow)"/>
<path d="M 650.0 152.0 L 690.0 152.0 L 690.0 134.0 L 730.0 134.0" fill="none" stroke="#3a6ea5" stroke-width="1.4" marker-end="url(#arr-flow)"/>
<path d="M 210.0 100.5 L 130.0 100.5 L 130.0 458.0 L 50.0 458.0" fill="none" stroke="#1a6b30" stroke-width="1.4" stroke-dasharray="4,2" marker-end="url(#arr-satisfy)"/><text x="130.0" y="275.2" font-size="9" fill="#1a6b30" text-anchor="middle" font-style="italic">«satisfy»</text>
<path d="M 650.0 109.5 L 580.0 109.5 L 580.0 458.0 L 510.0 458.0" fill="none" stroke="#1a6b30" stroke-width="1.4" stroke-dasharray="4,2" marker-end="url(#arr-satisfy)"/><text x="580.0" y="279.8" font-size="9" fill="#1a6b30" text-anchor="middle" font-style="italic">«satisfy»</text>
<g transform="translate(50.0 50.0)">
<defs><style>@font-face{font-family:'Inter';font-weight:400;src:url('https://fonts.bunny.net/inter/files/inter-latin-400-normal.woff2') format('woff2')}@font-face{font-family:'Inter';font-weight:700;src:url('https://fonts.bunny.net/inter/files/inter-latin-700-normal.woff2') format('woff2')}text{font-family:'Inter','Roboto',system-ui,sans-serif}</style></defs>
<rect x="0" y="0.0" width="160.0" height="54.0" fill="#eef3fa"/>
<text x="16.0" y="16.5" font-size="9" fill="#4a6ea5" font-style="italic">«part def»</text>
<text x="16.0" y="35.5" font-size="13" font-weight="700" fill="#1a2540">BatteryPack</text>
<line x1="0" y1="54.0" x2="160.0" y2="54.0" stroke="#3a6ea5" stroke-width="1"/>
<rect x="0" y="55.0" width="160.0" height="46.0" fill="#ffffff"/>
<text x="16.0" y="67.5" font-size="9" fill="#7a8aaa" font-style="italic">ports</text>
<text x="16.0" y="82.9" font-size="11" fill="#1a1a2e">◀ powerOut : Port</text>
<rect x="0" y="0" width="4" height="101.0" fill="#3a6ea5"/>
<rect x="0.6" y="0.6" width="158.8" height="99.8" rx="1" ry="1" fill="none" stroke="#a8bcd4" stroke-width="1.2"/>
</g>
<g transform="translate(270.0 50.0)">
<defs><style>@font-face{font-family:'Inter';font-weight:400;src:url('https://fonts.bunny.net/inter/files/inter-latin-400-normal.woff2') format('woff2')}@font-face{font-family:'Inter';font-weight:700;src:url('https://fonts.bunny.net/inter/files/inter-latin-700-normal.woff2') format('woff2')}text{font-family:'Inter','Roboto',system-ui,sans-serif}</style></defs>
<rect x="0" y="0.0" width="160.0" height="54.0" fill="#eef3fa"/>
<text x="16.0" y="16.5" font-size="9" fill="#4a6ea5" font-style="italic">«part def»</text>
<text x="16.0" y="35.5" font-size="13" font-weight="700" fill="#1a2540">PowerDistributionUnit</text>
<line x1="0" y1="54.0" x2="160.0" y2="54.0" stroke="#3a6ea5" stroke-width="1"/>
<rect x="0" y="55.0" width="160.0" height="64.0" fill="#ffffff"/>
<text x="16.0" y="67.5" font-size="9" fill="#7a8aaa" font-style="italic">ports</text>
<text x="16.0" y="82.9" font-size="11" fill="#1a1a2e">▶ powerIn : Port</text>
<text x="16.0" y="100.9" font-size="11" fill="#1a1a2e">◀ powerOut : Port</text>
<rect x="0" y="0" width="4" height="119.0" fill="#3a6ea5"/>
<rect x="0.6" y="0.6" width="158.8" height="117.8" rx="1" ry="1" fill="none" stroke="#a8bcd4" stroke-width="1.2"/>
</g>
<g transform="translate(490.0 50.0)">
<defs><style>@font-face{font-family:'Inter';font-weight:400;src:url('https://fonts.bunny.net/inter/files/inter-latin-400-normal.woff2') format('woff2')}@font-face{font-family:'Inter';font-weight:700;src:url('https://fonts.bunny.net/inter/files/inter-latin-700-normal.woff2') format('woff2')}text{font-family:'Inter','Roboto',system-ui,sans-serif}</style></defs>
<rect x="0" y="0.0" width="160.0" height="54.0" fill="#eef3fa"/>
<text x="16.0" y="16.5" font-size="9" fill="#4a6ea5" font-style="italic">«part def»</text>
<text x="16.0" y="35.5" font-size="13" font-weight="700" fill="#1a2540">AvionicsBay</text>
<line x1="0" y1="54.0" x2="160.0" y2="54.0" stroke="#3a6ea5" stroke-width="1"/>
<rect x="0" y="55.0" width="160.0" height="64.0" fill="#ffffff"/>
<text x="16.0" y="67.5" font-size="9" fill="#7a8aaa" font-style="italic">ports</text>
<text x="16.0" y="82.9" font-size="11" fill="#1a1a2e">▶ powerIn : Port</text>
<text x="16.0" y="100.9" font-size="11" fill="#1a1a2e">◀ telemetryOut : Port</text>
<rect x="0" y="0" width="4" height="119.0" fill="#3a6ea5"/>
<rect x="0.6" y="0.6" width="158.8" height="117.8" rx="1" ry="1" fill="none" stroke="#a8bcd4" stroke-width="1.2"/>
</g>
<g transform="translate(730.0 50.0)">
<defs><style>@font-face{font-family:'Inter';font-weight:400;src:url('https://fonts.bunny.net/inter/files/inter-latin-400-normal.woff2') format('woff2')}@font-face{font-family:'Inter';font-weight:700;src:url('https://fonts.bunny.net/inter/files/inter-latin-700-normal.woff2') format('woff2')}text{font-family:'Inter','Roboto',system-ui,sans-serif}</style></defs>
<rect x="0" y="0.0" width="160.0" height="54.0" fill="#eef3fa"/>
<text x="16.0" y="16.5" font-size="9" fill="#4a6ea5" font-style="italic">«part def»</text>
<text x="16.0" y="35.5" font-size="13" font-weight="700" fill="#1a2540">GroundControlStation</text>
<line x1="0" y1="54.0" x2="160.0" y2="54.0" stroke="#3a6ea5" stroke-width="1"/>
<rect x="0" y="55.0" width="160.0" height="46.0" fill="#ffffff"/>
<text x="16.0" y="67.5" font-size="9" fill="#7a8aaa" font-style="italic">ports</text>
<text x="16.0" y="82.9" font-size="11" fill="#1a1a2e">▶ telemetryIn : Port</text>
<rect x="0" y="0" width="4" height="101.0" fill="#3a6ea5"/>
<rect x="0.6" y="0.6" width="158.8" height="99.8" rx="1" ry="1" fill="none" stroke="#a8bcd4" stroke-width="1.2"/>
</g>
<g transform="translate(50.0 210.0)">
<defs><style>@font-face{font-family:'Inter';font-weight:400;src:url('https://fonts.bunny.net/inter/files/inter-latin-400-normal.woff2') format('woff2')}@font-face{font-family:'Inter';font-weight:700;src:url('https://fonts.bunny.net/inter/files/inter-latin-700-normal.woff2') format('woff2')}text{font-family:'Inter','Roboto',system-ui,sans-serif}</style></defs>
<rect x="0" y="0.0" width="160.0" height="66.0" fill="#eef3fa"/>
<text x="16.0" y="16.5" font-size="9" fill="#4a6ea5" font-style="italic">«part def»</text>
<text x="16.0" y="35.5" font-size="13" font-weight="700" fill="#1a2540" font-style="italic">PropulsionSystem</text>
<text x="16.0" y="54.1" font-size="9" fill="#4a6ea5" font-style="italic">{abstract}</text>
<line x1="0" y1="66.0" x2="160.0" y2="66.0" stroke="#3a6ea5" stroke-width="1"/>
<rect x="0" y="67.0" width="160.0" height="46.0" fill="#ffffff"/>
<text x="16.0" y="79.5" font-size="9" fill="#7a8aaa" font-style="italic">ports</text>
<text x="16.0" y="94.9" font-size="11" fill="#1a1a2e">▶ powerIn : Port</text>
<rect x="0" y="0" width="4" height="113.0" fill="#3a6ea5"/>
<rect x="0.6" y="0.6" width="158.8" height="111.8" rx="1" ry="1" fill="none" stroke="#a8bcd4" stroke-width="1.2"/>
</g>
<g transform="translate(490.0 210.0)">
<defs><style>@font-face{font-family:'Inter';font-weight:400;src:url('https://fonts.bunny.net/inter/files/inter-latin-400-normal.woff2') format('woff2')}@font-face{font-family:'Inter';font-weight:700;src:url('https://fonts.bunny.net/inter/files/inter-latin-700-normal.woff2') format('woff2')}text{font-family:'Inter','Roboto',system-ui,sans-serif}</style></defs>
<rect x="0" y="0.0" width="160.0" height="54.0" fill="#eef3fa"/>
<text x="16.0" y="16.5" font-size="9" fill="#4a6ea5" font-style="italic">«part def»</text>
<text x="16.0" y="35.5" font-size="13" font-weight="700" fill="#1a2540">FlightController</text>
<line x1="0" y1="54.0" x2="160.0" y2="54.0" stroke="#3a6ea5" stroke-width="1"/>
<rect x="0" y="55.0" width="160.0" height="82.0" fill="#ffffff"/>
<text x="16.0" y="67.5" font-size="9" fill="#7a8aaa" font-style="italic">ports</text>
<text x="16.0" y="82.9" font-size="11" fill="#1a1a2e">▶ powerIn : Port</text>
<text x="16.0" y="100.9" font-size="11" fill="#1a1a2e">◀ controlOut : Port</text>
<text x="16.0" y="118.9" font-size="11" fill="#1a1a2e">◀ telemetryOut : Port</text>
<rect x="0" y="0" width="4" height="137.0" fill="#3a6ea5"/>
<rect x="0.6" y="0.6" width="158.8" height="135.8" rx="1" ry="1" fill="none" stroke="#a8bcd4" stroke-width="1.2"/>
</g>
<g transform="translate(50.0 390.0)">
<defs><style>@font-face{font-family:'Inter';font-weight:400;src:url('https://fonts.bunny.net/inter/files/inter-latin-400-normal.woff2') format('woff2')}@font-face{font-family:'Inter';font-weight:700;src:url('https://fonts.bunny.net/inter/files/inter-latin-700-normal.woff2') format('woff2')}text{font-family:'Inter','Roboto',system-ui,sans-serif}</style></defs>
<rect x="0" y="0.0" width="452.0" height="54.0" fill="#f4effe"/>
<text x="16.0" y="16.5" font-size="9" fill="#7040c0" font-style="italic">«requirement»</text>
<text x="16.0" y="35.5" font-size="13" font-weight="700" fill="#2a0a50">Minimum 25-minute flight endurance under nominal conditions</text>
<rect x="347.4" y="18.0" width="92.6" height="18" rx="4" fill="#7040c0"/><text x="393.7" y="30.2" font-size="9" font-weight="400" fill="#2a0a50" text-anchor="middle" font-family="'JetBrains Mono','Roboto Mono',monospace">REQ-UAV-ENDUR-001</text>
<line x1="0" y1="54.0" x2="452.0" y2="54.0" stroke="#7040c0" stroke-width="1"/>
<rect x="0" y="55.0" width="452.0" height="30.0" fill="#ffffff"/>
<rect x="16.0" y="61.0" width="47.9" height="18" rx="4" fill="#22c55e"/><text x="40.0" y="73.2" font-size="9" fill="#ffffff" text-anchor="middle">approved</text>
<rect x="69.9" y="61.0" width="48.0" height="18" rx="4" fill="#f97316"/><text x="93.9" y="73.2" font-size="9" fill="#ffffff" text-anchor="middle">hardware</text>
<line x1="0" y1="85.0" x2="452.0" y2="85.0" stroke="#e8d8f8" stroke-width="1"/>
<rect x="0" y="86.0" width="452.0" height="50.0" fill="#ffffff"/>
<text x="16.0" y="99.2" font-size="10" fill="#8a70b0" font-style="italic">The UAV shall maintain continuous flight for a m…</text>
<text x="16.0" y="117.2" font-size="10" fill="#8a70b0" font-style="italic">Mission planning analysis requires a minimum end…</text>
<rect x="0" y="0" width="4" height="136.0" fill="#7040c0"/>
<rect x="0.6" y="0.6" width="450.8" height="134.8" rx="1" ry="1" fill="none" stroke="#c0a0e0" stroke-width="1.2"/>
</g>
<g transform="translate(510.0 390.0)">
<defs><style>@font-face{font-family:'Inter';font-weight:400;src:url('https://fonts.bunny.net/inter/files/inter-latin-400-normal.woff2') format('woff2')}@font-face{font-family:'Inter';font-weight:700;src:url('https://fonts.bunny.net/inter/files/inter-latin-700-normal.woff2') format('woff2')}text{font-family:'Inter','Roboto',system-ui,sans-serif}</style></defs>
<rect x="0" y="0.0" width="360.0" height="54.0" fill="#f4effe"/>
<text x="16.0" y="16.5" font-size="9" fill="#7040c0" font-style="italic">«requirement»</text>
<text x="16.0" y="35.5" font-size="13" font-weight="700" fill="#2a0a50">Telemetry data link range ≥ 5 km line of sight</text>
<rect x="256.3" y="18.0" width="91.7" height="18" rx="4" fill="#7040c0"/><text x="302.1" y="30.2" font-size="9" font-weight="400" fill="#2a0a50" text-anchor="middle" font-family="'JetBrains Mono','Roboto Mono',monospace">REQ-UAV-COMM-001</text>
<line x1="0" y1="54.0" x2="360.0" y2="54.0" stroke="#7040c0" stroke-width="1"/>
<rect x="0" y="55.0" width="360.0" height="30.0" fill="#ffffff"/>
<rect x="16.0" y="61.0" width="47.9" height="18" rx="4" fill="#22c55e"/><text x="40.0" y="73.2" font-size="9" fill="#ffffff" text-anchor="middle">approved</text>
<rect x="69.9" y="61.0" width="46.1" height="18" rx="4" fill="#3b82f6"/><text x="93.0" y="73.2" font-size="9" fill="#ffffff" text-anchor="middle">software</text>
<line x1="0" y1="85.0" x2="360.0" y2="85.0" stroke="#e8d8f8" stroke-width="1"/>
<rect x="0" y="86.0" width="360.0" height="50.0" fill="#ffffff"/>
<text x="16.0" y="99.2" font-size="10" fill="#8a70b0" font-style="italic">The command and telemetry data link shall mainta…</text>
<text x="16.0" y="117.2" font-size="10" fill="#8a70b0" font-style="italic">Mission radius is constrained by the data link r…</text>
<rect x="0" y="0" width="4" height="136.0" fill="#7040c0"/>
<rect x="0.6" y="0.6" width="358.8" height="134.8" rx="1" ry="1" fill="none" stroke="#c0a0e0" stroke-width="1.2"/>
</g>
</svg>